<svg width="24" height="24" viewBox="0 0 24 24" fill="none" xmlns="http://www.w3.org/2000/svg">
<g clip-path="url(#clip0_4084_682)">
<path d="M7.51478 5.00795C7.45923 4.87117 7.36424 4.75402 7.2419 4.67139C7.11956 4.58877 6.97541 4.5444 6.82778 4.54395C6.67742 4.54438 6.53067 4.59013 6.40669 4.67522C6.28272 4.76031 6.18726 4.88079 6.13278 5.02095L4.15578 10.2079C4.12651 10.2847 4.11265 10.3665 4.115 10.4486C4.11735 10.5307 4.13587 10.6115 4.16949 10.6865C4.20311 10.7614 4.25118 10.829 4.31094 10.8854C4.37071 10.9417 4.44099 10.9858 4.51778 11.0149C4.58877 11.0417 4.66394 11.0555 4.73978 11.0559C4.86612 11.056 4.98952 11.0178 5.09375 10.9464C5.19798 10.875 5.27817 10.7738 5.32378 10.6559L5.66278 9.76695H7.97378L8.30878 10.6539C8.33774 10.7308 8.38155 10.8011 8.4377 10.861C8.49385 10.9209 8.56125 10.9692 8.63604 11.003C8.71084 11.0369 8.79157 11.0557 8.87363 11.0583C8.95569 11.0609 9.03746 11.0474 9.11428 11.0184C9.19111 10.9895 9.26148 10.9457 9.32137 10.8895C9.38126 10.8334 9.42951 10.766 9.46336 10.6912C9.49721 10.6164 9.51599 10.5357 9.51864 10.4536C9.52128 10.3715 9.50774 10.2898 9.47878 10.2129L7.51478 5.00795ZM6.13878 8.51395L6.82278 6.71395L7.50178 8.51395H6.13878Z" fill="url(#paint0_linear_4084_682)"/>
<path d="M11.2319 4.54395C11.0663 4.54421 10.9074 4.61014 10.7903 4.7273C10.6731 4.84445 10.6072 5.00327 10.6069 5.16895V10.4309C10.6069 10.5967 10.6728 10.7557 10.79 10.8729C10.9072 10.9901 11.0662 11.0559 11.2319 11.0559C11.3977 11.0559 11.5567 10.9901 11.6739 10.8729C11.7911 10.7557 11.8569 10.5967 11.8569 10.4309V5.16895C11.8569 5.00319 11.7911 4.84421 11.6739 4.727C11.5567 4.60979 11.3977 4.54395 11.2319 4.54395Z" fill="url(#paint1_linear_4084_682)"/>
<path d="M19 0H5C3.67441 0.00158786 2.40356 0.528882 1.46622 1.46622C0.528882 2.40356 0.00158786 3.67441 0 5L0 19C0.00158786 20.3256 0.528882 21.5964 1.46622 22.5338C2.40356 23.4711 3.67441 23.9984 5 24H16.343C16.9999 24.0019 17.6507 23.8735 18.2576 23.6222C18.8646 23.3709 19.4157 23.0017 19.879 22.536L22.535 19.878C23.0008 19.4149 23.37 18.864 23.6215 18.2572C23.873 17.6504 24.0016 16.9998 24 16.343V5C23.9984 3.67441 23.4711 2.40356 22.5338 1.46622C21.5964 0.528882 20.3256 0.00158786 19 0V0ZM2 19V5C2 4.20435 2.31607 3.44129 2.87868 2.87868C3.44129 2.31607 4.20435 2 5 2H19C19.7957 2 20.5587 2.31607 21.1213 2.87868C21.6839 3.44129 22 4.20435 22 5V15H18C17.2044 15 16.4413 15.3161 15.8787 15.8787C15.3161 16.4413 15 17.2044 15 18V22H5C4.20435 22 3.44129 21.6839 2.87868 21.1213C2.31607 20.5587 2 19.7957 2 19ZM18.465 21.122C18.063 21.523 17.5547 21.8006 17 21.922V18C17 17.7348 17.1054 17.4804 17.2929 17.2929C17.4804 17.1054 17.7348 17 18 17H21.925C21.8013 17.5535 21.524 18.0609 21.125 18.464L18.465 21.122Z" fill="url(#paint2_linear_4084_682)"/>
</g>
<defs>
<linearGradient id="paint0_linear_4084_682" x1="4.16497" y1="4.54394" x2="10.484" y2="5.65141" gradientUnits="userSpaceOnUse">
<stop stop-color="#8258C8"/>
<stop offset="0.315" stop-color="#6766C8"/>
<stop offset="1" stop-color="#2C84C8"/>
</linearGradient>
<linearGradient id="paint1_linear_4084_682" x1="10.6186" y1="4.54394" x2="12.1226" y2="4.60494" gradientUnits="userSpaceOnUse">
<stop stop-color="#8258C8"/>
<stop offset="0.315" stop-color="#6766C8"/>
<stop offset="1" stop-color="#2C84C8"/>
</linearGradient>
<linearGradient id="paint2_linear_4084_682" x1="0.22305" y1="-4.38018e-06" x2="27.9117" y2="5.84981" gradientUnits="userSpaceOnUse">
<stop stop-color="#8258C8"/>
<stop offset="0.315" stop-color="#6766C8"/>
<stop offset="1" stop-color="#2C84C8"/>
</linearGradient>
<clipPath id="clip0_4084_682">
<rect width="24" height="24" fill="white"/>
</clipPath>
</defs>
</svg>
