<svg width="28" height="28" viewBox="0 0 28 28" fill="none" xmlns="http://www.w3.org/2000/svg">
<path d="M22.1667 1.16699H5.83333C4.28681 1.16884 2.80415 1.78402 1.71059 2.87758C0.617029 3.97114 0.0018525 5.4538 0 7.00033L0 21.0003C0.0018525 22.5469 0.617029 24.0295 1.71059 25.1231C2.80415 26.2166 4.28681 26.8318 5.83333 26.8337H22.1667C23.7132 26.8318 25.1959 26.2166 26.2894 25.1231C27.383 24.0295 27.9981 22.5469 28 21.0003V7.00033C27.9981 5.4538 27.383 3.97114 26.2894 2.87758C25.1959 1.78402 23.7132 1.16884 22.1667 1.16699ZM5.83333 3.50033H22.1667C23.0949 3.50033 23.9852 3.86907 24.6415 4.52545C25.2979 5.18183 25.6667 6.07207 25.6667 7.00033V8.16699H2.33333V7.00033C2.33333 6.07207 2.70208 5.18183 3.35846 4.52545C4.01484 3.86907 4.90508 3.50033 5.83333 3.50033ZM22.1667 24.5003H5.83333C4.90508 24.5003 4.01484 24.1316 3.35846 23.4752C2.70208 22.8188 2.33333 21.9286 2.33333 21.0003V10.5003H25.6667V21.0003C25.6667 21.9286 25.2979 22.8188 24.6415 23.4752C23.9852 24.1316 23.0949 24.5003 22.1667 24.5003ZM22.1667 15.167C22.1667 15.4764 22.0438 15.7732 21.825 15.992C21.6062 16.2107 21.3094 16.3337 21 16.3337H7C6.69058 16.3337 6.39383 16.2107 6.17504 15.992C5.95625 15.7732 5.83333 15.4764 5.83333 15.167C5.83333 14.8576 5.95625 14.5608 6.17504 14.342C6.39383 14.1232 6.69058 14.0003 7 14.0003H21C21.3094 14.0003 21.6062 14.1232 21.825 14.342C22.0438 14.5608 22.1667 14.8576 22.1667 15.167ZM17.5 19.8337C17.5 20.1431 17.3771 20.4398 17.1583 20.6586C16.9395 20.8774 16.6428 21.0003 16.3333 21.0003H7C6.69058 21.0003 6.39383 20.8774 6.17504 20.6586C5.95625 20.4398 5.83333 20.1431 5.83333 19.8337C5.83333 19.5242 5.95625 19.2275 6.17504 19.0087C6.39383 18.7899 6.69058 18.667 7 18.667H16.3333C16.6428 18.667 16.9395 18.7899 17.1583 19.0087C17.3771 19.2275 17.5 19.5242 17.5 19.8337ZM3.5 5.83366C3.5 5.60291 3.56842 5.37735 3.69662 5.18549C3.82481 4.99364 4.00702 4.8441 4.2202 4.7558C4.43338 4.6675 4.66796 4.64439 4.89427 4.68941C5.12058 4.73443 5.32846 4.84554 5.49162 5.0087C5.65479 5.17186 5.7659 5.37974 5.81092 5.60605C5.85593 5.83237 5.83283 6.06694 5.74453 6.28012C5.65622 6.4933 5.50669 6.67551 5.31483 6.80371C5.12297 6.9319 4.89741 7.00033 4.66667 7.00033C4.35725 7.00033 4.0605 6.87741 3.84171 6.65862C3.62292 6.43982 3.5 6.14308 3.5 5.83366ZM7 5.83366C7 5.60291 7.06842 5.37735 7.19662 5.18549C7.32481 4.99364 7.50702 4.8441 7.7202 4.7558C7.93338 4.6675 8.16796 4.64439 8.39427 4.68941C8.62058 4.73443 8.82846 4.84554 8.99162 5.0087C9.15479 5.17186 9.2659 5.37974 9.31092 5.60605C9.35593 5.83237 9.33283 6.06694 9.24453 6.28012C9.15622 6.4933 9.00669 6.67551 8.81483 6.80371C8.62297 6.9319 8.39741 7.00033 8.16667 7.00033C7.85725 7.00033 7.5605 6.87741 7.34171 6.65862C7.12292 6.43982 7 6.14308 7 5.83366ZM10.5 5.83366C10.5 5.60291 10.5684 5.37735 10.6966 5.18549C10.8248 4.99364 11.007 4.8441 11.2202 4.7558C11.4334 4.6675 11.668 4.64439 11.8943 4.68941C12.1206 4.73443 12.3285 4.84554 12.4916 5.0087C12.6548 5.17186 12.7659 5.37974 12.8109 5.60605C12.8559 5.83237 12.8328 6.06694 12.7445 6.28012C12.6562 6.4933 12.5067 6.67551 12.3148 6.80371C12.123 6.9319 11.8974 7.00033 11.6667 7.00033C11.3572 7.00033 11.0605 6.87741 10.8417 6.65862C10.6229 6.43982 10.5 6.14308 10.5 5.83366Z" fill="url(#paint0_linear_4084_667)"/>
<defs>
<linearGradient id="paint0_linear_4084_667" x1="0.260224" y1="1.16699" x2="32.3034" y2="8.55223" gradientUnits="userSpaceOnUse">
<stop stop-color="#8258C8"/>
<stop offset="0.315" stop-color="#6766C8"/>
<stop offset="1" stop-color="#2C84C8"/>
</linearGradient>
</defs>
</svg>
