<svg width="86" height="86" viewBox="0 0 86 86" fill="none" xmlns="http://www.w3.org/2000/svg">
<g opacity="0.9">
<path d="M42.8599 84.7246C65.9784 84.7246 84.7197 65.9822 84.7197 42.8623C84.7197 19.7424 65.9784 1 42.8599 1C19.7413 1 1 19.7424 1 42.8623C1 65.9822 19.7413 84.7246 42.8599 84.7246Z" stroke="url(#paint0_linear_3979_163)" stroke-miterlimit="10"/>
<path d="M83.7639 41.9569C83.796 44.0604 83.7179 46.1041 83.4743 48.1203C82.8631 53.108 81.2639 57.8935 78.8375 62.1555C77.2429 64.9525 75.368 67.5198 73.3276 69.9034C71.2643 72.3192 68.9573 74.4777 66.3242 76.3515C63.2498 78.5376 59.8124 80.2737 56.1223 81.4264C53.6132 82.2164 51.0122 82.74 48.3514 83.0017C46.6557 83.1671 44.9416 83.2176 43.1907 83.1808C40.8195 83.1303 38.485 82.9053 36.2011 82.5195C34.8822 82.2945 33.5816 82.0235 32.3087 81.6882C26.1968 80.0854 20.5582 77.2058 15.9949 73.0264C14.5565 71.7083 13.2101 70.2938 11.9463 68.7966C10.439 67.0146 9.05119 65.1362 7.8288 63.1567C6.61101 61.1911 5.56325 59.129 4.68093 56.9704C3.94566 55.1747 3.34825 53.31 2.91168 51.3857C2.25913 48.5337 1.96042 45.553 2.02017 42.4989C2.06152 40.0923 2.31427 37.7363 2.72327 35.4307C3.85834 29.0423 6.17904 23.1683 9.82782 18.1025C12.3599 14.5983 15.4986 11.5488 19.0371 9.07792C22.548 6.62543 26.4587 4.72865 30.6498 3.44729C34.5789 2.24401 38.7653 1.56888 43.0712 1.49999C50.1758 1.38977 56.8622 3.15336 62.7259 6.32231C68.6586 9.53259 73.7044 14.2034 77.3348 19.8661C81.4248 26.2454 83.6444 33.8371 83.7685 41.9569H83.7639Z" stroke="url(#paint1_linear_3979_163)" stroke-miterlimit="10"/>
<path d="M82.8035 41.0578C82.8678 43.1245 82.877 45.1223 82.6932 47.0972C82.2383 51.993 80.7218 56.7786 78.2908 60.99C76.6824 63.764 74.8304 66.2808 72.9233 68.692C71.0024 71.1123 68.8701 73.2847 66.3151 75.1906C63.328 77.4135 59.932 79.1541 56.2556 80.2426C53.7649 80.9866 51.1869 81.4367 48.5813 81.6204C46.9177 81.7306 45.2404 81.7214 43.5263 81.6479C41.2194 81.5469 38.9308 81.3035 36.6929 80.9269C35.3969 80.711 34.124 80.4584 32.874 80.1507C26.8954 78.6627 21.2798 76.0265 16.8681 71.838C15.4849 70.5245 14.1936 69.1191 12.9574 67.6494C11.4869 65.8996 10.0945 64.0809 8.86288 62.1842C7.63589 60.3012 6.57894 58.3309 5.66445 56.2596C4.90161 54.5281 4.28122 52.7232 3.84465 50.8494C3.18751 48.0662 2.93016 45.1407 3.04505 42.1417C3.13236 39.7902 3.41728 37.4847 3.83087 35.2205C4.97513 28.9377 6.98794 23.1693 10.531 18.1403C12.985 14.6729 16.1099 11.6922 19.6116 9.31778C23.0904 6.95714 26.9505 5.17059 31.0726 3.95353C34.9466 2.80995 39.0687 2.13483 43.2735 2.00623C50.1483 1.79038 56.6325 3.42996 62.3676 6.45195C68.1578 9.51527 73.0979 14.0345 76.6134 19.5549C80.5747 25.7826 82.5599 33.1768 82.8081 41.0532L82.8035 41.0578Z" stroke="url(#paint2_linear_3979_163)" stroke-miterlimit="10"/>
<path d="M81.8426 40.1523C81.9391 42.1869 82.031 44.1296 81.9161 46.0677C81.6174 50.867 80.179 55.6572 77.7434 59.8228C76.1212 62.5784 74.2968 65.0401 72.5138 67.4788C70.74 69.9083 68.7823 72.0898 66.2962 74.0233C63.4011 76.2784 60.0372 78.0328 56.3792 79.0523C53.9023 79.7504 51.3564 80.127 48.8013 80.2281C47.17 80.2878 45.534 80.2189 43.8521 80.1041C41.6095 79.9525 39.3715 79.6861 37.1703 79.3279C35.902 79.1212 34.6474 78.887 33.4204 78.6023C27.5704 77.2382 21.9824 74.8362 17.727 70.6339C16.4035 69.325 15.1673 67.9334 13.9587 66.4868C12.5204 64.7645 11.1279 63.0101 9.88716 61.196C8.65558 59.3957 7.58025 57.5172 6.63819 55.5332C5.84318 53.8615 5.20441 52.1163 4.76325 50.2976C4.1015 47.5833 3.88552 44.7128 4.05555 41.7735C4.18882 39.4772 4.5105 37.2268 4.92409 35.0039C6.07295 28.8268 7.78245 23.164 11.2198 18.1717C13.5957 14.7456 16.7068 11.8338 20.1718 9.55127C23.6137 7.28708 27.4234 5.61075 31.4857 4.45339C35.2999 3.36952 39.3623 2.69899 43.4706 2.5015C50.1156 2.18001 56.4022 3.6956 62.0086 6.57521C67.6518 9.49157 72.4908 13.8638 75.8869 19.2372C79.7195 25.3088 81.4749 32.5101 81.8426 40.1431V40.1523Z" stroke="url(#paint3_linear_3979_163)" stroke-miterlimit="10"/>
<path d="M80.8875 39.2524C81.0208 41.2548 81.1908 43.1424 81.1403 45.0438C80.9978 49.7467 79.6422 54.5415 77.1974 58.6565C75.566 61.3937 73.76 63.8003 72.1056 66.2666C70.4743 68.6961 68.6912 70.896 66.2832 72.8617C63.4754 75.1534 60.1529 76.917 56.5087 77.8677C54.0502 78.5198 51.5319 78.8276 49.0273 78.8459C47.4281 78.8551 45.8335 78.7219 44.1838 78.575C42.0055 78.3775 39.8181 78.0881 37.6582 77.7437C36.4129 77.5462 35.1859 77.3349 33.9819 77.0732C28.2651 75.8285 22.7001 73.67 18.5963 69.4539C17.328 68.1542 16.147 66.7718 14.9659 65.348C13.5597 63.6533 12.1673 61.9632 10.9174 60.2272C9.67659 58.5049 8.59207 56.723 7.61784 54.8262C6.79525 53.2188 6.13351 51.5332 5.69235 49.7651C5.02601 47.1197 4.85138 44.2998 5.07656 41.4248C5.25118 39.1835 5.61422 36.9882 6.02781 34.8021C7.18586 28.7306 8.58747 23.1734 11.9238 18.2179C14.2215 14.8285 17.3188 11.9857 20.7516 9.79954C24.1614 7.6272 27.9205 6.0611 31.9185 4.97263C35.6776 3.94846 39.6802 3.27793 43.6828 3.01615C50.1027 2.59362 56.1824 3.98061 61.6648 6.71785C67.1655 9.49183 71.8943 13.7125 75.1754 18.939C78.8793 24.8544 80.4096 31.8674 80.8967 39.2524H80.8875Z" stroke="url(#paint4_linear_3979_163)" stroke-miterlimit="10"/>
<path d="M79.9266 38.3479C80.092 40.3181 80.3447 42.1506 80.3585 44.0153C80.3723 48.6263 79.0948 53.4165 76.6454 57.4856C75.0002 60.1999 73.2172 62.5559 71.6915 65.0451C70.2026 67.4793 68.5942 69.6929 66.2643 71.6908C63.5438 74.0192 60.2627 75.792 56.6323 76.6738C54.1875 77.2801 51.7014 77.5189 49.2474 77.4546C47.6758 77.4132 46.1271 77.2203 44.5095 77.032C42.3956 76.784 40.2587 76.4763 38.1356 76.1457C36.9178 75.9528 35.7092 75.7645 34.5282 75.5256C28.9447 74.3958 23.4026 72.4853 19.4506 68.2554C18.242 66.9603 17.1115 65.5917 15.958 64.1909C14.584 62.5284 13.1916 60.898 11.9324 59.2446C10.6825 57.605 9.58415 55.9149 8.58694 54.1054C7.73219 52.5576 7.04747 50.9318 6.60631 49.2142C5.93537 46.6377 5.79751 43.8729 6.08243 41.0576C6.30301 38.8714 6.69822 36.7267 7.1164 34.5819C8.28364 28.6206 9.36817 23.1599 12.608 18.2457C14.823 14.8931 17.9111 12.1191 21.3071 10.0294C24.6802 7.95351 28.3933 6.49763 32.3224 5.46886C36.0217 4.5044 39.96 3.83846 43.8707 3.50779C50.0608 2.97963 55.9475 4.22884 61.292 6.83748C66.6549 9.45531 71.2733 13.5336 74.435 18.6177C78.0103 24.3769 79.3154 31.1971 79.9174 38.3387L79.9266 38.3479Z" stroke="url(#paint5_linear_3979_163)" stroke-miterlimit="10"/>
<path d="M78.9713 37.4469C79.1735 39.385 79.5089 41.1624 79.5825 42.9948C79.7617 47.5094 78.5531 52.3042 76.0991 56.3228C74.4402 59.0187 72.6801 61.315 71.2831 63.8364C69.932 66.2706 68.5029 68.5026 66.2511 70.5326C63.6225 72.8978 60.3781 74.6706 56.7615 75.4927C54.3351 76.0438 51.8719 76.2183 49.4731 76.0759C47.9337 75.9841 46.4264 75.7315 44.8409 75.5018C42.7914 75.2079 40.705 74.8772 38.6233 74.5603C37.4285 74.3766 36.2474 74.2113 35.0894 73.9954C29.6346 72.9805 24.1201 71.3133 20.3197 67.0743C19.1662 65.7883 18.0909 64.4243 16.965 63.0557C15.6231 61.4207 14.2261 59.8546 12.9669 58.2839C11.7078 56.7224 10.6003 55.1241 9.57092 53.4064C8.684 51.923 7.98549 50.3569 7.53973 48.6898C6.8688 46.1822 6.7677 43.4725 7.10776 40.7169C7.3697 38.5859 7.80627 36.4962 8.22445 34.3927C9.39629 28.5371 10.1775 23.182 13.3116 18.3046C15.4439 14.9887 18.5228 12.2882 21.8821 10.2903C25.223 8.3063 28.881 6.96064 32.7503 5.99618C36.3899 5.09142 40.2685 4.43007 44.0781 4.03051C50.0384 3.40131 55.7275 4.52193 60.9433 6.9882C66.1684 9.45447 70.6765 13.3904 73.7187 18.3275C77.1653 23.9306 78.2452 30.5624 78.9621 37.4561L78.9713 37.4469Z" stroke="url(#paint6_linear_3979_163)" stroke-miterlimit="10"/>
<path d="M78.0103 36.5431C78.2447 38.449 78.6675 40.1713 78.8007 41.967C79.1362 46.3852 78.0103 51.1845 75.5518 55.1526C73.879 57.8256 72.1419 60.0668 70.8736 62.6203C69.665 65.0498 68.415 67.3049 66.2368 69.367C63.6955 71.7689 60.4879 73.5509 56.8897 74.3041C54.4771 74.8093 52.0461 74.9103 49.7024 74.6853C48.1951 74.5429 46.7292 74.226 45.1759 73.9597C43.1907 73.6198 41.1549 73.2662 39.1099 72.963C37.9381 72.7885 36.78 72.6416 35.6496 72.4487C30.328 71.5531 24.8365 70.1294 21.1877 65.8719C20.0894 64.5906 19.0692 63.2403 17.9755 61.8947C16.6704 60.2918 15.2688 58.7854 14.0004 57.2928C12.7367 55.814 11.6108 54.3076 10.5539 52.6772C9.63476 51.2534 8.91788 49.747 8.46752 48.135C7.79199 45.6963 7.73225 43.0417 8.12746 40.3458C8.43535 38.2699 8.90409 36.2354 9.32687 34.1686C10.5079 28.4186 10.9766 23.1692 14.0142 18.3285C16.0684 15.0493 19.1335 12.4177 22.4606 10.5163C25.7694 8.62874 29.3768 7.39331 33.1818 6.49314C36.7662 5.64809 40.5805 4.99593 44.2936 4.52288C50.0241 3.79724 55.511 4.78007 60.6028 7.10397C65.6853 9.42328 70.0878 13.2122 73.0151 18.0024C76.3284 23.4539 77.1969 29.8883 78.0195 36.5385L78.0103 36.5431Z" stroke="url(#paint7_linear_3979_163)" stroke-miterlimit="10"/>
<path d="M77.0502 35.6423C77.3213 37.5161 77.8222 39.1833 78.0198 40.9423C78.5115 45.264 77.4638 50.0679 75.0006 53.9855C73.3187 56.6401 71.6 58.817 70.4603 61.4027C69.3896 63.8322 68.3188 66.1056 66.2187 68.1952C63.7693 70.634 60.5985 72.4251 57.014 73.114C54.6198 73.5733 52.2118 73.6008 49.9233 73.2977C48.4481 73.1002 47.0236 72.7282 45.5025 72.4251C43.5862 72.0393 41.5917 71.6627 39.5927 71.3688C38.4485 71.1989 37.3134 71.0749 36.2013 70.9095C31.013 70.1288 25.5445 68.9576 22.0473 64.6818C21.0042 63.4097 20.0437 62.0686 18.973 60.7459C17.7 59.1706 16.2984 57.7285 15.0209 56.3186C13.748 54.9178 12.6037 53.5078 11.5238 51.9693C10.5679 50.6099 9.83725 49.1632 9.38689 47.6017C8.70677 45.2318 8.68379 42.6324 9.13874 39.9962C9.48799 37.9708 9.99809 35.9914 10.4209 33.966C11.6065 28.3216 11.7719 23.1778 14.7038 18.3738C16.6799 15.136 19.7312 12.5687 23.0216 10.7638C26.2935 8.96802 29.855 7.84281 33.5911 7.00694C37.1158 6.22159 40.8703 5.57402 44.4823 5.03209C49.983 4.21 55.2724 5.05964 60.2354 7.24117C65.1755 9.41351 69.4723 13.0509 72.2801 17.7033C75.4647 22.9987 76.1173 29.2447 77.0456 35.6469L77.0502 35.6423Z" stroke="url(#paint8_linear_3979_163)" stroke-miterlimit="10"/>
<path d="M76.0939 34.7376C76.4018 36.5793 76.9808 38.1913 77.2473 39.9136C77.8953 44.1434 76.9348 48.952 74.4579 52.8144C72.7668 55.4506 71.0619 57.5678 70.0555 60.1857C69.1226 62.6106 68.2311 64.907 66.2091 67.0288C63.847 69.5042 60.7175 71.3 57.1469 71.9246C54.7664 72.3379 52.3906 72.292 50.1526 71.9108C48.705 71.6628 47.3264 71.2311 45.8375 70.8866C43.9855 70.4549 42.0417 70.0554 40.0794 69.7752C38.9581 69.6145 37.846 69.5088 36.7615 69.3665C31.7065 68.7005 26.2609 67.7774 22.92 63.4878C21.932 62.2202 21.0267 60.8884 19.9835 59.5932C18.7428 58.0501 17.3412 56.6677 16.0544 55.3404C14.7723 54.0223 13.6143 52.7042 12.5114 51.2529C11.5233 49.9532 10.7697 48.5662 10.3193 47.0552C9.63002 44.7543 9.65299 42.2099 10.1631 39.6334C10.5537 37.6632 11.1006 35.7388 11.5279 33.7548C12.7227 28.216 12.5803 23.1778 15.4065 18.4106C17.3044 15.2095 20.342 12.7157 23.5956 11.0026C26.8353 9.30335 30.3463 8.28836 34.018 7.5122C37.4876 6.78656 41.1731 6.14817 44.6932 5.53275C49.9596 4.61422 55.0559 5.32608 59.8858 7.36983C64.6834 9.3952 68.8744 12.8856 71.5628 17.3911C74.6187 22.5303 75.0599 28.588 76.0939 34.7422V34.7376Z" stroke="url(#paint9_linear_3979_163)" stroke-miterlimit="10"/>
<path d="M75.1338 33.8376C75.4784 35.6471 76.1356 37.204 76.4665 38.8896C77.2707 43.023 76.3929 47.8361 73.9068 51.648C72.2019 54.2659 70.5154 56.3142 69.6422 58.9734C68.8472 61.3937 68.1395 63.7084 66.1911 65.867C63.9209 68.3792 60.8282 70.1841 57.2713 70.7398C54.9093 71.1072 52.561 70.9878 50.3736 70.524C48.9582 70.2254 47.6209 69.734 46.1641 69.3482C44.3765 68.8706 42.4832 68.4481 40.5623 68.1817C39.4686 68.0301 38.3795 67.9475 37.3179 67.828C32.3962 67.2769 26.969 66.6064 23.7843 62.2985C22.8561 61.0401 22.0013 59.7174 20.9857 58.4452C19.7771 56.9296 18.3755 55.6115 17.0796 54.3623C15.7883 53.1223 14.6164 51.896 13.486 50.5366C12.4612 49.3012 11.6937 47.9739 11.2434 46.5134C10.5495 44.2814 10.6092 41.7921 11.179 39.2753C11.611 37.3602 12.1992 35.491 12.6266 33.5437C13.8306 28.1105 13.3803 23.178 16.1054 18.4475C17.9251 15.2878 20.9489 12.8582 24.1704 11.2416C27.3734 9.63417 30.8337 8.72941 34.4458 8.02214C37.8556 7.3562 41.4814 6.727 44.9004 6.04269C49.937 5.0323 54.8311 5.60638 59.5369 7.50775C64.1874 9.38616 68.2774 12.725 70.8462 17.0881C73.7735 22.0712 74.0079 27.9406 75.1384 33.8468L75.1338 33.8376Z" stroke="url(#paint10_linear_3979_163)" stroke-miterlimit="10"/>
<path d="M74.1776 32.9333C74.5636 34.7107 75.2989 36.2125 75.6895 37.8613C76.6499 41.8982 75.8503 46.7159 73.3642 50.4774C71.6455 53.0722 69.9773 55.0609 69.2375 57.7522C68.5757 60.1633 68.0518 62.5056 66.1815 64.6963C63.9987 67.2452 60.9473 69.0593 57.4042 69.5462C55.0559 69.8677 52.7352 69.6748 50.6029 69.1328C49.2197 68.7792 47.9238 68.2373 46.4992 67.8055C44.7759 67.2866 42.9332 66.8365 41.049 66.5839C39.9783 66.4369 38.9167 66.3772 37.8736 66.2808C33.0851 65.8399 27.6763 65.4265 24.6479 61.0956C23.7748 59.8464 22.9752 58.5329 21.9871 57.2837C20.8107 55.8003 19.4091 54.5419 18.104 53.3753C16.8035 52.218 15.6133 51.0836 14.4598 49.8114C13.4029 48.6403 12.617 47.3681 12.1621 45.9627C11.4636 43.7996 11.5601 41.3655 12.1897 38.9084C12.663 37.0484 13.2926 35.2296 13.7199 33.3237C14.9285 27.9962 14.1749 23.1693 16.7943 18.4755C18.536 15.3525 21.546 12.9919 24.7306 11.4717C27.9015 9.96071 31.3113 9.16617 34.8544 8.51861C38.209 7.91237 41.7659 7.29236 45.093 6.53457C49.8998 5.43692 54.5964 5.86404 59.1734 7.62303C63.6816 9.35447 67.6658 12.5464 70.1152 16.7625C72.9138 21.5894 72.9414 27.2705 74.1684 32.9287L74.1776 32.9333Z" stroke="url(#paint11_linear_3979_163)" stroke-miterlimit="10"/>
<path d="M73.2176 32.0323C73.6404 33.7775 74.4537 35.2242 74.9087 36.8362C76.0254 40.7767 75.3085 45.5944 72.8132 49.3099C71.0853 51.8864 69.4263 53.8107 68.8243 56.5388C68.2959 58.9454 67.9558 61.3106 66.159 63.5289C64.068 66.1099 61.0534 67.9378 57.5241 68.3558C55.1943 68.6313 52.9011 68.365 50.8194 67.7449C49.4683 67.3408 48.2138 66.7391 46.8214 66.2707C45.167 65.7104 43.3702 65.2327 41.5274 64.9939C40.4797 64.8561 39.4411 64.8148 38.4255 64.7459C33.7703 64.4198 28.3799 64.2591 25.5077 59.9098C24.6897 58.6698 23.9453 57.3655 22.9894 56.1438C21.8497 54.6879 20.4435 53.4939 19.1292 52.41C17.8241 51.3307 16.6109 50.2973 15.4345 49.1078C14.3408 47.9964 13.5412 46.7885 13.0862 45.4291C12.3831 43.3348 12.521 40.9558 13.2057 38.5584C13.725 36.7535 14.3867 34.9899 14.8233 33.1253C16.0411 27.9034 14.9796 23.1822 17.4933 18.5252C19.1614 15.4435 22.153 13.1471 25.3009 11.7234C28.4396 10.3043 31.7989 9.61996 35.2776 9.03669C38.5725 8.49016 42.0697 7.88393 45.2957 7.04806C49.8681 5.86315 54.3671 6.14789 58.8155 7.76452C63.1811 9.35359 67.0597 12.3939 69.3942 16.4631C72.0595 21.1384 71.8941 26.6221 73.2084 32.0368L73.2176 32.0323Z" stroke="url(#paint12_linear_3979_163)" stroke-miterlimit="10"/>
<path d="M72.2571 31.1325C72.7213 32.8456 73.6082 34.2371 74.1275 35.8124C75.4004 39.6565 74.7616 44.4788 72.2617 48.1484C70.5201 50.7019 68.8703 52.5619 68.4107 55.3313C68.0109 57.7287 67.8593 60.1215 66.1406 62.3719C64.137 64.9897 61.1591 66.8268 57.6482 67.1759C55.3321 67.4055 53.0712 67.0656 51.04 66.363C49.7165 65.9037 48.5079 65.2515 47.1522 64.7371C45.5622 64.1355 43.8159 63.6303 42.0099 63.4053C40.9897 63.2767 39.9742 63.2537 38.9769 63.2078C34.4596 62.9965 29.083 63.0884 26.3671 58.7207C25.5996 57.4899 24.9149 56.1902 23.9866 54.9961C22.8791 53.5723 21.4683 52.4379 20.154 51.4367C18.8397 50.4401 17.6036 49.4986 16.4133 48.3964C15.2783 47.3492 14.4695 46.1965 14.0099 44.8922C13.3022 42.8668 13.4768 40.5429 14.2213 38.2052C14.782 36.4554 15.4851 34.7469 15.9216 32.919C17.144 27.8028 15.7792 23.1871 18.1918 18.5669C19.7818 15.522 22.7596 13.2991 25.8753 11.9672C28.9773 10.6445 32.286 10.0704 35.705 9.55147C38.9448 9.06464 42.373 8.47219 45.5071 7.55824C49.8498 6.29066 54.1511 6.42844 58.4708 7.90269C62.694 9.3448 66.4669 12.2336 68.6819 16.1603C71.2186 20.6795 70.8555 25.9749 72.2571 31.1417V31.1325Z" stroke="url(#paint13_linear_3979_163)" stroke-miterlimit="10"/>
<path d="M71.3015 30.2283C71.8116 31.9092 72.7674 33.2456 73.3556 34.7842C74.7848 38.5364 74.2242 43.3587 71.7196 46.9778C69.9642 49.5129 68.3282 51.3087 68.0065 54.1148C67.7354 56.503 67.7768 58.9233 66.1316 61.2059C64.2153 63.8605 61.2788 65.7067 57.7817 65.9869C55.484 66.1706 53.246 65.7572 51.2699 64.9765C49.9786 64.4667 48.8114 63.7594 47.4879 63.1991C45.9622 62.5561 44.2665 62.0234 42.5018 61.8075C41.5046 61.6881 40.512 61.6835 39.5424 61.6652C35.1583 61.5641 29.7954 61.9178 27.2404 57.5272C26.5281 56.3055 25.9031 55.015 24.9978 53.8438C23.9225 52.4476 22.5117 51.3776 21.1882 50.4544C19.8647 49.5405 18.6101 48.6908 17.3969 47.6759C16.2251 46.693 15.3979 45.6 14.943 44.3462C14.2307 42.3897 14.4421 40.1209 15.2463 37.8429C15.8483 36.1482 16.5881 34.4903 17.0293 32.7037C18.2609 27.6977 16.5881 23.1877 18.8951 18.5996C20.407 15.596 23.371 13.4374 26.45 12.202C29.5197 10.9757 32.7779 10.5073 36.128 10.0526C39.308 9.62548 42.6765 9.05139 45.7095 8.05478C49.8224 6.70453 53.9215 6.69535 58.1171 8.02722C62.1979 9.32236 65.8651 12.0642 67.9606 15.844C70.3686 20.207 69.8125 25.3141 71.3015 30.2328V30.2283Z" stroke="url(#paint14_linear_3979_163)" stroke-miterlimit="10"/>
<path d="M70.341 29.328C70.8925 30.9768 71.9219 32.2581 72.5744 33.7599C74.1553 37.4157 73.6819 42.2426 71.1728 45.8111C69.4036 48.3233 67.7722 50.0548 67.5976 52.8976C67.4505 55.2812 67.6849 57.7246 66.1178 60.0393C64.2934 62.7306 61.3937 64.586 57.9104 64.7973C55.631 64.9351 53.4206 64.4482 51.4951 63.5894C50.236 63.0245 49.1101 62.2667 47.8188 61.6605C46.3574 60.9762 44.7077 60.4113 42.989 60.2138C42.0193 60.099 41.0497 60.1173 40.103 60.1219C35.8523 60.1311 30.5032 60.7465 28.1135 56.333C27.4564 55.1205 26.8866 53.8391 26.0088 52.691C24.9657 51.3224 23.5549 50.3166 22.2222 49.4761C20.8895 48.6402 19.6166 47.8916 18.3804 46.9593C17.1718 46.0454 16.3308 45.0028 15.8713 43.8041C15.1498 41.9165 15.4025 39.7029 16.2711 37.4846C16.9099 35.845 17.6957 34.2422 18.1368 32.4969C19.3776 27.5966 17.397 23.1922 19.5982 18.6408C21.032 15.674 23.9822 13.5843 27.0244 12.4453C30.0574 11.3109 33.2696 10.9573 36.5554 10.5623C39.6803 10.1949 42.9844 9.63917 45.9163 8.55989C49.7994 7.13156 53.7009 6.97082 57.7679 8.16032C61.7062 9.30849 65.2677 11.9034 67.2437 15.5362C69.523 19.7431 68.7786 24.6572 70.3456 29.3326L70.341 29.328Z" stroke="url(#paint15_linear_3979_163)" stroke-miterlimit="10"/>
<path d="M69.3802 28.4233C69.9776 30.0353 71.0759 31.2662 71.7928 32.7358C73.5299 36.2951 73.13 41.1175 70.6209 44.6446C68.8333 47.1339 67.2111 48.8056 67.1835 51.6852C67.1606 54.0596 67.5879 56.5305 66.099 58.8774C64.3619 61.6054 61.5036 63.47 58.0386 63.6124C55.7731 63.7089 53.5948 63.144 51.7199 62.2025C50.4929 61.587 49.4084 60.7741 48.1492 60.1266C46.7522 59.4055 45.153 58.8085 43.4711 58.6248C42.5244 58.5191 41.5778 58.5605 40.6541 58.5834C36.5366 58.7028 31.1967 59.58 28.9725 55.1389C28.3659 53.9356 27.8558 52.6589 27.0102 51.5383C25.9992 50.2018 24.5884 49.2557 23.2465 48.4979C21.9093 47.7447 20.6088 47.0925 19.3588 46.2429C18.1088 45.3932 17.2587 44.4104 16.7991 43.2577C16.0731 41.4389 16.3626 39.2804 17.2909 37.1218C17.971 35.5374 18.7982 33.9896 19.2393 32.2811C20.4847 27.4864 18.2053 23.1876 20.3009 18.673C21.6565 15.7475 24.593 13.7267 27.5984 12.6796C30.5992 11.6416 33.7563 11.3936 36.9823 11.0629C40.0475 10.7552 43.2919 10.2225 46.1272 9.05594C49.7806 7.55414 53.4799 7.23724 57.4182 8.27978C61.2095 9.28558 64.6652 11.7243 66.5264 15.2147C68.6771 19.2655 67.7488 23.9868 69.3894 28.4141L69.3802 28.4233Z" stroke="url(#paint16_linear_3979_163)" stroke-miterlimit="10"/>
<path d="M68.4249 27.5229C69.0682 29.1028 70.2355 30.2785 71.0167 31.7115C72.9054 35.1789 72.5883 40.0012 70.0746 43.4779C68.2778 45.9488 66.651 47.5516 66.7751 50.4726C66.8762 52.8424 67.5012 55.3362 66.0858 57.7106C64.4406 60.4754 61.619 62.3492 58.1678 62.4227C55.9207 62.4733 53.7654 61.8349 51.9456 60.8153C50.7462 60.1448 49.703 59.2813 48.4807 58.5878C47.1434 57.83 45.5993 57.2008 43.9587 57.0309C43.0351 56.9345 42.116 56.9942 41.2153 57.0447C37.231 57.2743 31.9049 58.4133 29.8416 53.9492C29.2901 52.7551 28.8352 51.4876 28.0172 50.3899C27.0429 49.081 25.6275 48.1992 24.2765 47.5195C22.93 46.8443 21.6065 46.2932 20.3382 45.5262C19.0469 44.7455 18.1829 43.8178 17.7234 42.7155C16.9927 40.9657 17.3144 38.8623 18.307 36.7634C19.0285 35.234 19.8924 33.7368 20.3382 32.0697C21.5927 27.3806 19.0055 23.192 20.9953 18.7096C22.2775 15.8208 25.1956 13.8689 28.1688 12.9182C31.1329 11.9721 34.244 11.8389 37.4011 11.5725C40.4065 11.3245 43.5911 10.8147 46.3254 9.56554C49.7536 7.99484 53.2461 7.5172 57.0603 8.41737C60.7091 9.28079 64.0592 11.5679 65.8055 14.9114C67.8229 18.8106 66.72 23.3298 68.4295 27.5183L68.4249 27.5229Z" stroke="url(#paint17_linear_3979_163)" stroke-miterlimit="10"/>
<path d="M67.4644 26.618C68.1583 28.1612 69.3898 29.2864 70.2354 30.6825C72.2804 34.0536 72.0414 38.8805 69.5231 42.3066C67.7125 44.7545 66.0857 46.3022 66.3614 49.2507C66.582 51.616 67.4046 54.1328 66.0673 56.5393C64.5095 59.3409 61.7292 61.2239 58.2919 61.2285C56.0585 61.2285 53.9354 60.5166 52.1661 59.4235C50.9989 58.7025 49.9925 57.7885 48.8069 57.0445C47.5339 56.25 46.0404 55.5887 44.4366 55.4325C43.5405 55.3406 42.6444 55.4233 41.7666 55.4968C37.9157 55.8367 32.5941 57.2374 30.7008 52.7504C30.1999 51.5655 29.8047 50.3071 29.0143 49.237C28.0722 47.9602 26.6568 47.1381 25.2966 46.5411C23.9409 45.9486 22.5945 45.4985 21.3077 44.8096C19.9751 44.0978 19.1019 43.2206 18.6424 42.1734C17.9071 40.4925 18.2656 38.4442 19.3179 36.405C20.0808 34.9262 20.9861 33.4887 21.4318 31.8629C22.691 27.2794 19.805 23.1965 21.6846 18.7507C22.8886 15.9033 25.7929 14.0157 28.7294 13.1615C31.6613 12.3118 34.7218 12.2843 37.8146 12.0822C40.7648 11.8939 43.8897 11.4162 46.5229 10.0706C49.7259 8.43558 53.0163 7.7972 56.7018 8.5504C60.2081 9.26686 63.4525 11.4025 65.0793 14.6036C66.968 18.3466 65.6905 22.6683 67.4644 26.618Z" stroke="url(#paint18_linear_3979_163)" stroke-miterlimit="10"/>
<path d="M66.5077 25.7175C67.2521 27.2239 68.548 28.3032 69.4625 29.6581C71.6546 32.9372 71.5075 37.7641 68.98 41.1398C67.1556 43.5693 65.5288 45.0527 65.9562 48.038C66.2963 50.3986 67.3165 52.9384 66.0573 55.3771C64.5914 58.2154 61.8433 60.1121 58.4243 60.0432C56.2093 60.0065 54.1138 59.212 52.3951 58.0408C51.26 57.2647 50.295 56.3048 49.1415 55.5103C47.9283 54.679 46.4899 53.9855 44.9275 53.8385C44.0543 53.7559 43.1812 53.8523 42.3265 53.9579C38.6088 54.408 33.2918 56.0706 31.5685 51.5606C31.1182 50.3848 30.7873 49.1356 30.0199 48.0885C29.11 46.8393 27.6946 46.0815 26.3251 45.5671C24.9603 45.0527 23.5909 44.7083 22.2857 44.0974C20.9117 43.4591 20.0294 42.6324 19.5652 41.6312C18.8208 40.0191 19.2206 38.0213 20.3327 36.0419C21.1323 34.6182 22.0789 33.2312 22.5293 31.6467C23.7976 27.1688 20.6038 23.1916 22.3777 18.7826C23.5081 15.9765 26.3941 14.1578 29.2938 13.3954C32.1935 12.6376 35.2035 12.7248 38.2319 12.5825C41.1225 12.4539 44.1922 12.0038 46.7197 10.5663C49.7021 8.86698 52.7811 8.06326 56.338 8.67409C59.6972 9.24817 62.8405 11.2322 64.3478 14.2863C66.1079 17.8732 64.6603 21.9929 66.4939 25.7083L66.5077 25.7175Z" stroke="url(#paint19_linear_3979_163)" stroke-miterlimit="10"/>
<path d="M65.5483 24.8128C66.3433 26.2825 67.7035 27.3112 68.6823 28.6293C71.0306 31.8166 70.9617 36.6436 68.4342 39.9687C66.596 42.3752 64.9646 43.8035 65.5483 46.8209C66.0078 49.1816 67.2256 51.7351 66.0446 54.2106C64.6659 57.0856 61.9592 58.9915 58.554 58.8538C56.3528 58.7711 54.2894 57.8985 52.6259 56.6493C51.523 55.818 50.5947 54.8122 49.478 53.9717C48.3245 53.1037 46.9413 52.3781 45.4156 52.2449C44.5701 52.1714 43.7199 52.2862 42.8881 52.4148C39.3037 52.9705 33.9914 54.8995 32.4381 50.3619C32.0383 49.1954 31.7672 47.9507 31.0319 46.9312C30.1542 45.7141 28.7342 45.016 27.3647 44.5797C25.9907 44.148 24.6029 43.9046 23.2794 43.3718C21.8686 42.8069 20.9679 42.0262 20.5083 41.0801C19.7593 39.5369 20.1913 37.5942 21.3677 35.6745C22.2087 34.3059 23.1967 32.974 23.647 31.4263C24.9246 27.054 21.4366 23.187 23.0956 18.8102C24.1571 16.0454 27.0201 14.291 29.8876 13.625C32.7506 12.9637 35.7101 13.1566 38.6741 13.0831C41.5095 13.0142 44.5241 12.6009 46.9459 11.0623C49.7124 9.30332 52.5753 8.33426 56.0081 8.79812C59.2249 9.22984 62.2625 11.0623 63.6503 13.9695C65.2817 17.4002 63.6641 21.3132 65.562 24.799L65.5483 24.8128Z" stroke="url(#paint20_linear_3979_163)" stroke-miterlimit="10"/>
<path d="M64.5868 23.9125C65.4415 25.3409 66.8569 26.3237 67.9001 27.6051C70.4046 30.6959 70.4184 35.5274 67.8817 38.802C66.0298 41.1902 64.3938 42.5588 65.1337 45.6038C65.7081 47.9644 67.1327 50.5363 66.0206 53.0439C64.7339 55.9511 62.0639 57.8708 58.6725 57.6642C56.4896 57.5356 54.4539 56.5895 52.8409 55.2622C51.7701 54.3804 50.874 53.3241 49.7987 52.4331C48.705 51.5284 47.3723 50.7706 45.8925 50.6512C45.07 50.5869 44.2428 50.72 43.434 50.8762C39.9828 51.5375 34.6659 53.7374 33.2964 49.1723C32.9472 48.015 32.7358 46.7795 32.0281 45.7829C31.1825 44.5934 29.7626 43.9596 28.3839 43.606C27.0053 43.2523 25.5899 43.1146 24.248 42.6599C22.7959 42.1685 21.886 41.4382 21.4218 40.5427C20.6636 39.073 21.1323 37.1762 22.3731 35.3208C23.2508 34.0027 24.2802 32.7305 24.7351 31.2241C26.0173 26.9575 22.226 23.2007 23.7793 18.856C24.7627 16.128 27.6119 14.4424 30.4427 13.8729C33.2735 13.3035 36.1824 13.6112 39.0821 13.5974C41.8578 13.5882 44.831 13.2116 47.1333 11.572C49.6884 9.75331 52.3308 8.62351 55.6395 8.93122C58.7138 9.22974 61.6457 10.8969 62.9141 13.6617C64.4168 16.9363 62.6383 20.638 64.5868 23.8988V23.9125Z" stroke="url(#paint21_linear_3979_163)" stroke-miterlimit="10"/>
<path d="M22.3455 40.0057C22.8051 40.8507 23.7333 41.5351 25.2223 41.9484C26.5871 42.3296 28.0209 42.3617 29.4087 42.6327C30.7965 42.9037 32.2211 43.4778 33.0299 44.6351C33.71 45.6042 33.8617 46.835 34.1604 47.9832C35.3552 52.5713 40.6675 50.105 43.99 49.338C44.7759 49.1589 45.5755 49.0028 46.3751 49.0625C47.818 49.1681 49.091 49.958 50.1295 50.8995C51.1635 51.841 52.0275 52.9433 53.066 53.8802C54.6285 55.2855 56.6367 56.3051 58.8011 56.4796C62.1788 56.7506 64.8074 54.8263 66.0068 51.8824C67.0408 49.3472 65.414 46.7569 64.7247 44.3963C63.824 41.3238 65.4691 40.0057 67.3349 37.6405C69.8762 34.4118 69.7842 29.5803 67.1235 26.5859C66.016 25.3413 64.5408 24.3998 63.6309 23.0174C61.6273 19.9724 63.5666 16.4912 62.1972 13.3727C61.0437 10.7503 58.2175 9.23472 55.2856 9.07857C52.1056 8.91323 49.6884 10.2176 47.3355 12.0914C45.1481 13.8366 42.2208 14.1673 39.5003 14.1213C36.6649 14.0708 33.8065 13.6529 31.0079 14.1305C28.2139 14.6036 25.3785 16.2202 24.4732 18.9115C23.0256 23.2194 27.1248 26.8706 25.8334 31.0316C25.3785 32.4967 24.3078 33.7183 23.3887 34.9813C22.0882 36.7724 21.5827 38.6187 22.3455 40.0195V40.0057Z" stroke="url(#paint22_linear_3979_163)" stroke-miterlimit="10"/>
</g>
<defs>
<linearGradient id="paint0_linear_3979_163" x1="1.77807" y1="0.999985" x2="98.3655" y2="21.4049" gradientUnits="userSpaceOnUse">
<stop stop-color="#8258C8"/>
<stop offset="0.315" stop-color="#6766C8"/>
<stop offset="1" stop-color="#2C84C8"/>
</linearGradient>
<linearGradient id="paint1_linear_3979_163" x1="2.77253" y1="1.4951" x2="97.0903" y2="21.4366" gradientUnits="userSpaceOnUse">
<stop stop-color="#8258C8"/>
<stop offset="0.315" stop-color="#6766C8"/>
<stop offset="1" stop-color="#2C84C8"/>
</linearGradient>
<linearGradient id="paint2_linear_3979_163" x1="3.76044" y1="1.98729" x2="95.8453" y2="21.4692" gradientUnits="userSpaceOnUse">
<stop stop-color="#8258C8"/>
<stop offset="0.315" stop-color="#6766C8"/>
<stop offset="1" stop-color="#2C84C8"/>
</linearGradient>
<linearGradient id="paint3_linear_3979_163" x1="4.72463" y1="2.45897" x2="94.66" y2="21.5033" gradientUnits="userSpaceOnUse">
<stop stop-color="#8258C8"/>
<stop offset="0.315" stop-color="#6766C8"/>
<stop offset="1" stop-color="#2C84C8"/>
</linearGradient>
<linearGradient id="paint4_linear_3979_163" x1="5.69126" y1="2.94139" x2="93.5377" y2="21.5646" gradientUnits="userSpaceOnUse">
<stop stop-color="#8258C8"/>
<stop offset="0.315" stop-color="#6766C8"/>
<stop offset="1" stop-color="#2C84C8"/>
</linearGradient>
<linearGradient id="paint5_linear_3979_163" x1="6.63399" y1="3.38866" x2="92.4538" y2="21.6032" gradientUnits="userSpaceOnUse">
<stop stop-color="#8258C8"/>
<stop offset="0.315" stop-color="#6766C8"/>
<stop offset="1" stop-color="#2C84C8"/>
</linearGradient>
<linearGradient id="paint6_linear_3979_163" x1="7.59345" y1="3.85839" x2="91.4047" y2="21.6675" gradientUnits="userSpaceOnUse">
<stop stop-color="#8258C8"/>
<stop offset="0.315" stop-color="#6766C8"/>
<stop offset="1" stop-color="#2C84C8"/>
</linearGradient>
<linearGradient id="paint7_linear_3979_163" x1="8.54148" y1="4.28807" x2="90.3807" y2="21.6926" gradientUnits="userSpaceOnUse">
<stop stop-color="#8258C8"/>
<stop offset="0.315" stop-color="#6766C8"/>
<stop offset="1" stop-color="#2C84C8"/>
</linearGradient>
<linearGradient id="paint8_linear_3979_163" x1="9.47518" y1="4.72362" x2="89.3811" y2="21.7364" gradientUnits="userSpaceOnUse">
<stop stop-color="#8258C8"/>
<stop offset="0.315" stop-color="#6766C8"/>
<stop offset="1" stop-color="#2C84C8"/>
</linearGradient>
<linearGradient id="paint9_linear_3979_163" x1="10.4188" y1="5.13768" x2="88.4132" y2="21.757" gradientUnits="userSpaceOnUse">
<stop stop-color="#8258C8"/>
<stop offset="0.315" stop-color="#6766C8"/>
<stop offset="1" stop-color="#2C84C8"/>
</linearGradient>
<linearGradient id="paint10_linear_3979_163" x1="11.3509" y1="5.55077" x2="87.4548" y2="21.7801" gradientUnits="userSpaceOnUse">
<stop stop-color="#8258C8"/>
<stop offset="0.315" stop-color="#6766C8"/>
<stop offset="1" stop-color="#2C84C8"/>
</linearGradient>
<linearGradient id="paint11_linear_3979_163" x1="12.2753" y1="5.93261" x2="86.5179" y2="21.7747" gradientUnits="userSpaceOnUse">
<stop stop-color="#8258C8"/>
<stop offset="0.315" stop-color="#6766C8"/>
<stop offset="1" stop-color="#2C84C8"/>
</linearGradient>
<linearGradient id="paint12_linear_3979_163" x1="13.2047" y1="6.32225" x2="85.5901" y2="21.777" gradientUnits="userSpaceOnUse">
<stop stop-color="#8258C8"/>
<stop offset="0.315" stop-color="#6766C8"/>
<stop offset="1" stop-color="#2C84C8"/>
</linearGradient>
<linearGradient id="paint13_linear_3979_163" x1="14.1303" y1="6.69432" x2="84.6753" y2="21.7586" gradientUnits="userSpaceOnUse">
<stop stop-color="#8258C8"/>
<stop offset="0.315" stop-color="#6766C8"/>
<stop offset="1" stop-color="#2C84C8"/>
</linearGradient>
<linearGradient id="paint14_linear_3979_163" x1="15.0638" y1="7.03515" x2="83.7823" y2="21.7067" gradientUnits="userSpaceOnUse">
<stop stop-color="#8258C8"/>
<stop offset="0.315" stop-color="#6766C8"/>
<stop offset="1" stop-color="#2C84C8"/>
</linearGradient>
<linearGradient id="paint15_linear_3979_163" x1="15.9896" y1="7.36718" x2="82.8889" y2="21.6449" gradientUnits="userSpaceOnUse">
<stop stop-color="#8258C8"/>
<stop offset="0.315" stop-color="#6766C8"/>
<stop offset="1" stop-color="#2C84C8"/>
</linearGradient>
<linearGradient id="paint16_linear_3979_163" x1="16.9154" y1="7.66991" x2="82.0056" y2="21.5469" gradientUnits="userSpaceOnUse">
<stop stop-color="#8258C8"/>
<stop offset="0.315" stop-color="#6766C8"/>
<stop offset="1" stop-color="#2C84C8"/>
</linearGradient>
<linearGradient id="paint17_linear_3979_163" x1="17.8355" y1="7.96581" x2="81.1348" y2="21.4485" gradientUnits="userSpaceOnUse">
<stop stop-color="#8258C8"/>
<stop offset="0.315" stop-color="#6766C8"/>
<stop offset="1" stop-color="#2C84C8"/>
</linearGradient>
<linearGradient id="paint18_linear_3979_163" x1="18.7507" y1="8.23632" x2="80.2691" y2="21.3222" gradientUnits="userSpaceOnUse">
<stop stop-color="#8258C8"/>
<stop offset="0.315" stop-color="#6766C8"/>
<stop offset="1" stop-color="#2C84C8"/>
</linearGradient>
<linearGradient id="paint19_linear_3979_163" x1="19.6671" y1="8.47069" x2="79.4202" y2="21.1533" gradientUnits="userSpaceOnUse">
<stop stop-color="#8258C8"/>
<stop offset="0.315" stop-color="#6766C8"/>
<stop offset="1" stop-color="#2C84C8"/>
</linearGradient>
<linearGradient id="paint20_linear_3979_163" x1="20.6037" y1="8.68261" x2="78.5718" y2="20.9476" gradientUnits="userSpaceOnUse">
<stop stop-color="#8258C8"/>
<stop offset="0.315" stop-color="#6766C8"/>
<stop offset="1" stop-color="#2C84C8"/>
</linearGradient>
<linearGradient id="paint21_linear_3979_163" x1="21.5085" y1="8.88085" x2="77.7302" y2="20.7412" gradientUnits="userSpaceOnUse">
<stop stop-color="#8258C8"/>
<stop offset="0.315" stop-color="#6766C8"/>
<stop offset="1" stop-color="#2C84C8"/>
</linearGradient>
<linearGradient id="paint22_linear_3979_163" x1="22.4259" y1="9.06444" x2="76.8978" y2="20.513" gradientUnits="userSpaceOnUse">
<stop stop-color="#8258C8"/>
<stop offset="0.315" stop-color="#6766C8"/>
<stop offset="1" stop-color="#2C84C8"/>
</linearGradient>
</defs>
</svg>
