<svg xmlns="http://www.w3.org/2000/svg" width="24" height="25" fill="none" viewBox="0 0 24 25"><path stroke="url(#a)" stroke-width="2" d="M1.2 10.004c0-3.771 0-5.657 1.172-6.829S5.429 2.004 9.2 2.004h5.6c3.771 0 5.657 0 6.829 1.171S22.8 6.233 22.8 10.004v5.6c0 3.771 0 5.657-1.171 6.828s-3.058 1.172-6.829 1.172H9.2c-3.771 0-5.657 0-6.828-1.172S1.2 19.375 1.2 15.604z"/><path fill="url(#b)" fill-rule="evenodd" d="m20.8 15.39-.532-.532-.044-.044c-.596-.596-1.11-1.11-1.576-1.47-.498-.385-1.051-.683-1.735-.709a3 3 0 0 0-.225 0c-.684.026-1.237.324-1.736.71-.466.36-.98.873-1.576 1.47l-.044.043c-.472.472-.75.748-.968.911l-.012.01-.008-.014c-.14-.232-.298-.592-.56-1.205l-.137-.319-.032-.073c-.5-1.168-.92-2.147-1.352-2.85-.453-.736-1.043-1.378-1.97-1.556s-1.714.198-2.407.713c-.663.492-1.416 1.245-2.314 2.144l-.056.056-.316.315v2.829l1.73-1.73c.97-.97 1.618-1.615 2.148-2.008.514-.382.722-.378.837-.355.115.022.31.095.644.64.346.562.71 1.402 1.25 2.663l.136.319.026.06c.228.533.44 1.026.663 1.394.24.397.608.844 1.234.995q.09.022.183.035c.638.093 1.146-.186 1.516-.465.344-.259.724-.639 1.134-1.049l.045-.045c.653-.653 1.077-1.074 1.43-1.346.33-.256.487-.29.587-.293h.075c.1.003.256.037.587.293.353.272.776.693 1.43 1.346l1.924 1.924c.02-.703.021-1.549.021-2.594zm-8.575.47h-.003zm.215.04.002.003z" clip-rule="evenodd"/><circle cx="17.4" cy="7.405" r="1.8" fill="url(#c)"/><defs><linearGradient id="a" x1="1.401" x2="26.321" y1="2.004" y2="7.269" gradientUnits="userSpaceOnUse"><stop stop-color="#8258c8"/><stop offset=".315" stop-color="#6766c8"/><stop offset="1" stop-color="#2c84c8"/></linearGradient><linearGradient id="b" x1="3.364" x2="21.155" y1="9.717" y2="17.518" gradientUnits="userSpaceOnUse"><stop stop-color="#8258c8"/><stop offset=".315" stop-color="#6766c8"/><stop offset="1" stop-color="#2c84c8"/></linearGradient><linearGradient id="c" x1="15.634" x2="19.787" y1="5.605" y2="6.483" gradientUnits="userSpaceOnUse"><stop stop-color="#8258c8"/><stop offset=".315" stop-color="#6766c8"/><stop offset="1" stop-color="#2c84c8"/></linearGradient></defs></svg>