<svg width="28" height="28" viewBox="0 0 28 28" fill="none" xmlns="http://www.w3.org/2000/svg">
<g clip-path="url(#clip0_4029_604)">
<path d="M21.6756 2.49792L14.3664 0.0607575C14.1271 -0.0189504 13.8684 -0.0189504 13.6291 0.0607575L6.31989 2.49792C5.15778 2.88395 4.14687 3.62639 3.43081 4.61975C2.71474 5.61312 2.32993 6.80688 2.33106 8.03142V14.0013C2.33106 22.8248 13.0644 27.6979 13.5241 27.9009C13.6732 27.9672 13.8345 28.0014 13.9977 28.0014C14.1609 28.0014 14.3223 27.9672 14.4714 27.9009C14.9311 27.6979 25.6644 22.8248 25.6644 14.0013V8.03142C25.6655 6.80688 25.2807 5.61312 24.5646 4.61975C23.8486 3.62639 22.8377 2.88395 21.6756 2.49792ZM23.3311 14.0013C23.3311 20.3654 15.9589 24.5398 13.9977 25.5384C12.0342 24.5433 4.66439 20.3818 4.66439 14.0013V8.03142C4.66446 7.29675 4.89571 6.58072 5.32538 5.98479C5.75506 5.38886 6.36136 4.94325 7.05839 4.71109L13.9977 2.39759L20.9371 4.71109C21.6341 4.94325 22.2404 5.38886 22.6701 5.98479C23.0997 6.58072 23.331 7.29675 23.3311 8.03142V14.0013Z" fill="url(#paint0_linear_4029_604)"/>
<path d="M17.4987 11.666H15.1654V9.33268C15.1654 9.02326 15.0424 8.72652 14.8236 8.50772C14.6049 8.28893 14.3081 8.16602 13.9987 8.16602C13.6893 8.16602 13.3925 8.28893 13.1737 8.50772C12.9549 8.72652 12.832 9.02326 12.832 9.33268V11.666H10.4987C10.1893 11.666 9.89253 11.7889 9.67374 12.0077C9.45495 12.2265 9.33203 12.5233 9.33203 12.8327C9.33203 13.1421 9.45495 13.4388 9.67374 13.6576C9.89253 13.8764 10.1893 13.9993 10.4987 13.9993H12.832V16.3327C12.832 16.6421 12.9549 16.9388 13.1737 17.1576C13.3925 17.3764 13.6893 17.4993 13.9987 17.4993C14.3081 17.4993 14.6049 17.3764 14.8236 17.1576C15.0424 16.9388 15.1654 16.6421 15.1654 16.3327V13.9993H17.4987C17.8081 13.9993 18.1048 13.8764 18.3236 13.6576C18.5424 13.4388 18.6653 13.1421 18.6653 12.8327C18.6653 12.5233 18.5424 12.2265 18.3236 12.0077C18.1048 11.7889 17.8081 11.666 17.4987 11.666Z" fill="url(#paint1_linear_4029_604)"/>
</g>
<defs>
<linearGradient id="paint0_linear_4029_604" x1="2.54791" y1="0.000971452" x2="29.8236" y2="4.80303" gradientUnits="userSpaceOnUse">
<stop stop-color="#8258C8"/>
<stop offset="0.315" stop-color="#6766C8"/>
<stop offset="1" stop-color="#2C84C8"/>
</linearGradient>
<linearGradient id="paint1_linear_4029_604" x1="9.41877" y1="8.16601" x2="20.1866" y2="10.4409" gradientUnits="userSpaceOnUse">
<stop stop-color="#8258C8"/>
<stop offset="0.315" stop-color="#6766C8"/>
<stop offset="1" stop-color="#2C84C8"/>
</linearGradient>
<clipPath id="clip0_4029_604">
<rect width="28" height="28" fill="white" transform="translate(-0.00195312)"/>
</clipPath>
</defs>
</svg>
