<svg width="26" height="26" viewBox="0 0 26 26" fill="none" xmlns="http://www.w3.org/2000/svg">
<g clip-path="url(#clip0_4084_671)">
<path d="M20.1297 2.31859L13.3427 0.0555109C13.1204 -0.0185036 12.8802 -0.0185036 12.658 0.0555109L5.87091 2.31859C4.79181 2.67705 3.85311 3.36646 3.18819 4.28886C2.52327 5.21127 2.16595 6.31976 2.16699 7.45684V13.0003C2.16699 21.1935 12.1337 25.7186 12.5605 25.9071C12.699 25.9686 12.8488 26.0004 13.0003 26.0004C13.1518 26.0004 13.3017 25.9686 13.4402 25.9071C13.867 25.7186 23.8337 21.1935 23.8337 13.0003V7.45684C23.8347 6.31976 23.4774 5.21127 22.8125 4.28886C22.1475 3.36646 21.2088 2.67705 20.1297 2.31859ZM21.667 13.0003C21.667 18.9098 14.8214 22.786 13.0003 23.7133C11.1771 22.7893 4.33366 18.925 4.33366 13.0003V7.45684C4.33372 6.77464 4.54846 6.10976 4.94744 5.5564C5.34642 5.00304 5.90942 4.58925 6.55666 4.37368L13.0003 2.22543L19.444 4.37368C20.0912 4.58925 20.6542 5.00304 21.0532 5.5564C21.4522 6.10976 21.6669 6.77464 21.667 7.45684V13.0003Z" fill="url(#paint0_linear_4084_671)"/>
<path d="M16.2503 10.833H14.0836V8.66634C14.0836 8.37902 13.9695 8.10347 13.7663 7.90031C13.5632 7.69714 13.2876 7.58301 13.0003 7.58301C12.713 7.58301 12.4375 7.69714 12.2343 7.90031C12.0311 8.10347 11.917 8.37902 11.917 8.66634V10.833H9.75032C9.46301 10.833 9.18746 10.9471 8.98429 11.1503C8.78113 11.3535 8.66699 11.629 8.66699 11.9163C8.66699 12.2037 8.78113 12.4792 8.98429 12.6824C9.18746 12.8855 9.46301 12.9997 9.75032 12.9997H11.917V15.1663C11.917 15.4536 12.0311 15.7292 12.2343 15.9324C12.4375 16.1355 12.713 16.2497 13.0003 16.2497C13.2876 16.2497 13.5632 16.1355 13.7663 15.9324C13.9695 15.7292 14.0836 15.4536 14.0836 15.1663V12.9997H16.2503C16.5376 12.9997 16.8132 12.8855 17.0163 12.6824C17.2195 12.4792 17.3336 12.2037 17.3336 11.9163C17.3336 11.629 17.2195 11.3535 17.0163 11.1503C16.8132 10.9471 16.5376 10.833 16.2503 10.833Z" fill="url(#paint1_linear_4084_671)"/>
</g>
<defs>
<linearGradient id="paint0_linear_4084_671" x1="2.36836" y1="-4.74527e-06" x2="27.6958" y2="4.45905" gradientUnits="userSpaceOnUse">
<stop stop-color="#8258C8"/>
<stop offset="0.315" stop-color="#6766C8"/>
<stop offset="1" stop-color="#2C84C8"/>
</linearGradient>
<linearGradient id="paint1_linear_4084_671" x1="8.74754" y1="7.58301" x2="18.7462" y2="9.69543" gradientUnits="userSpaceOnUse">
<stop stop-color="#8258C8"/>
<stop offset="0.315" stop-color="#6766C8"/>
<stop offset="1" stop-color="#2C84C8"/>
</linearGradient>
<clipPath id="clip0_4084_671">
<rect width="26" height="26" fill="white"/>
</clipPath>
</defs>
</svg>
