<svg width="26" height="27" viewBox="0 0 26 27" fill="none" xmlns="http://www.w3.org/2000/svg">
<g clip-path="url(#clip0_4016_563)">
<path d="M7.58236 0H4.33236C3.18309 0 2.08089 0.474106 1.26823 1.31802C0.45557 2.16193 -0.000976562 3.30653 -0.000976562 4.5L-0.000976562 7.875C-0.000976562 9.06847 0.45557 10.2131 1.26823 11.057C2.08089 11.9009 3.18309 12.375 4.33236 12.375H7.58236C8.73163 12.375 9.83383 11.9009 10.6465 11.057C11.4591 10.2131 11.9157 9.06847 11.9157 7.875V4.5C11.9157 3.30653 11.4591 2.16193 10.6465 1.31802C9.83383 0.474106 8.73163 0 7.58236 0V0ZM9.74902 7.875C9.74902 8.47174 9.52075 9.04403 9.11442 9.46599C8.70809 9.88795 8.15699 10.125 7.58236 10.125H4.33236C3.75772 10.125 3.20662 9.88795 2.80029 9.46599C2.39396 9.04403 2.16569 8.47174 2.16569 7.875V4.5C2.16569 3.90326 2.39396 3.33097 2.80029 2.90901C3.20662 2.48705 3.75772 2.25 4.33236 2.25H7.58236C8.15699 2.25 8.70809 2.48705 9.11442 2.90901C9.52075 3.33097 9.74902 3.90326 9.74902 4.5V7.875Z" fill="url(#paint0_linear_4016_563)"/>
<path d="M21.6654 0H18.4154C17.2661 0 16.1639 0.474106 15.3512 1.31802C14.5386 2.16193 14.082 3.30653 14.082 4.5V7.87501C14.082 9.06848 14.5386 10.2131 15.3512 11.057C16.1639 11.9009 17.2661 12.375 18.4154 12.375H21.6654C22.8146 12.375 23.9168 11.9009 24.7295 11.057C25.5421 10.2131 25.9987 9.06848 25.9987 7.87501V4.5C25.9987 3.30653 25.5421 2.16193 24.7295 1.31802C23.9168 0.474106 22.8146 0 21.6654 0V0ZM23.832 7.87501C23.832 8.47174 23.6037 9.04404 23.1974 9.466C22.7911 9.88795 22.24 10.125 21.6654 10.125H18.4154C17.8407 10.125 17.2896 9.88795 16.8833 9.466C16.477 9.04404 16.2487 8.47174 16.2487 7.87501V4.5C16.2487 3.90327 16.477 3.33097 16.8833 2.90901C17.2896 2.48705 17.8407 2.25 18.4154 2.25H21.6654C22.24 2.25 22.7911 2.48705 23.1974 2.90901C23.6037 3.33097 23.832 3.90327 23.832 4.5V7.87501Z" fill="url(#paint1_linear_4016_563)"/>
<path d="M7.58236 14.625H4.33236C3.18309 14.625 2.08089 15.0991 1.26823 15.943C0.45557 16.7869 -0.000976562 17.9315 -0.000976562 19.125L-0.000976562 22.5C-0.000976562 23.6935 0.45557 24.8381 1.26823 25.682C2.08089 26.5259 3.18309 27 4.33236 27H7.58236C8.73163 27 9.83383 26.5259 10.6465 25.682C11.4591 24.8381 11.9157 23.6935 11.9157 22.5V19.125C11.9157 17.9315 11.4591 16.7869 10.6465 15.943C9.83383 15.0991 8.73163 14.625 7.58236 14.625ZM9.74902 22.5C9.74902 23.0967 9.52075 23.669 9.11442 24.091C8.70809 24.513 8.15699 24.75 7.58236 24.75H4.33236C3.75772 24.75 3.20662 24.513 2.80029 24.091C2.39396 23.669 2.16569 23.0967 2.16569 22.5V19.125C2.16569 18.5283 2.39396 17.956 2.80029 17.534C3.20662 17.1121 3.75772 16.875 4.33236 16.875H7.58236C8.15699 16.875 8.70809 17.1121 9.11442 17.534C9.52075 17.956 9.74902 18.5283 9.74902 19.125V22.5Z" fill="url(#paint2_linear_4016_563)"/>
<path d="M21.6654 14.625H18.4154C17.2661 14.625 16.1639 15.0991 15.3512 15.943C14.5386 16.7869 14.082 17.9315 14.082 19.125V22.5C14.082 23.6935 14.5386 24.8381 15.3512 25.682C16.1639 26.5259 17.2661 27 18.4154 27H21.6654C22.8146 27 23.9168 26.5259 24.7295 25.682C25.5421 24.8381 25.9987 23.6935 25.9987 22.5V19.125C25.9987 17.9315 25.5421 16.7869 24.7295 15.943C23.9168 15.0991 22.8146 14.625 21.6654 14.625ZM23.832 22.5C23.832 23.0967 23.6037 23.669 23.1974 24.091C22.7911 24.513 22.24 24.75 21.6654 24.75H18.4154C17.8407 24.75 17.2896 24.513 16.8833 24.091C16.477 23.669 16.2487 23.0967 16.2487 22.5V19.125C16.2487 18.5283 16.477 17.956 16.8833 17.534C17.2896 17.1121 17.8407 16.875 18.4154 16.875H21.6654C22.24 16.875 22.7911 17.1121 23.1974 17.534C23.6037 17.956 23.832 18.5283 23.832 19.125V22.5Z" fill="url(#paint3_linear_4016_563)"/>
</g>
<defs>
<linearGradient id="paint0_linear_4016_563" x1="0.109774" y1="-2.25853e-06" x2="13.9008" y2="2.80573" gradientUnits="userSpaceOnUse">
<stop stop-color="#8258C8"/>
<stop offset="0.315" stop-color="#6766C8"/>
<stop offset="1" stop-color="#2C84C8"/>
</linearGradient>
<linearGradient id="paint1_linear_4016_563" x1="14.1928" y1="-2.25853e-06" x2="27.9838" y2="2.80572" gradientUnits="userSpaceOnUse">
<stop stop-color="#8258C8"/>
<stop offset="0.315" stop-color="#6766C8"/>
<stop offset="1" stop-color="#2C84C8"/>
</linearGradient>
<linearGradient id="paint2_linear_4016_563" x1="0.109774" y1="14.625" x2="13.9008" y2="17.4307" gradientUnits="userSpaceOnUse">
<stop stop-color="#8258C8"/>
<stop offset="0.315" stop-color="#6766C8"/>
<stop offset="1" stop-color="#2C84C8"/>
</linearGradient>
<linearGradient id="paint3_linear_4016_563" x1="14.1928" y1="14.625" x2="27.9838" y2="17.4307" gradientUnits="userSpaceOnUse">
<stop stop-color="#8258C8"/>
<stop offset="0.315" stop-color="#6766C8"/>
<stop offset="1" stop-color="#2C84C8"/>
</linearGradient>
<clipPath id="clip0_4016_563">
<rect width="26" height="27" fill="white" transform="translate(-0.000976562)"/>
</clipPath>
</defs>
</svg>
