<svg xmlns="http://www.w3.org/2000/svg" width="24" height="25" fill="none" viewBox="0 0 24 25"><path stroke="url(#a)" stroke-width="2" d="M17.128 3.053c.424.045.763.24 1.032.445.284.217.59.525.902.838l1.407 1.407c.313.314.62.618.838.903.234.307.455.705.455 1.218 0 .514-.22.912-.455 1.219-.217.284-.525.589-.838.902l-10.9 10.9c-.157.158-.361.373-.625.522-.263.15-.553.214-.768.268L3.874 22.75c-.148.037-.37.095-.563.114-.207.02-.66.027-1.028-.341-.368-.37-.362-.821-.342-1.028.02-.194.078-.416.115-.564L3.13 16.63c.054-.216.117-.506.266-.77.15-.263.366-.467.523-.624l10.9-10.9c.313-.313.617-.621.902-.838.307-.234.705-.455 1.218-.455z"/><path fill="url(#b)" d="m13.412 5.745 4.235-2.823 4.236 4.235-2.824 4.236z"/><defs><linearGradient id="a" x1="2.994" x2="24.168" y1="3.629" y2="8.102" gradientUnits="userSpaceOnUse"><stop stop-color="#8258c8"/><stop offset=".315" stop-color="#6766c8"/><stop offset="1" stop-color="#2c84c8"/></linearGradient><linearGradient id="b" x1="13.491" x2="23.263" y1="2.922" y2="4.987" gradientUnits="userSpaceOnUse"><stop stop-color="#8258c8"/><stop offset=".315" stop-color="#6766c8"/><stop offset="1" stop-color="#2c84c8"/></linearGradient></defs></svg>