<svg xmlns="http://www.w3.org/2000/svg" width="25" height="25" fill="none" viewBox="0 0 25 25"><path fill="url(#a)" fill-rule="evenodd" d="M22.298 2.487c-.379.068-.916.244-1.776.53L8.7 6.959c-2.384.795-4.071 1.36-5.174 1.896-1.187.577-1.202.89-1.202.95s.015.373 1.202.95c1.103.537 2.79 1.102 5.174 1.896l.218.073.16.053c.77.255 1.456.482 1.961.988.506.505.733 1.191.989 1.962l.052.16.073.218c.795 2.383 1.36 4.07 1.896 5.173.577 1.187.89 1.203.95 1.203s.373-.016.95-1.203c.537-1.103 1.102-2.79 1.896-5.173l3.94-11.821c.287-.86.464-1.398.531-1.777l.004-.023zm.259-.023-.01-.001zm-.215-.207-.002-.01zM21.948.518c.55-.098 1.305-.127 1.885.453s.551 1.335.453 1.886c-.096.541-.323 1.22-.578 1.986l-.024.072-3.94 11.821-.027.081c-.762 2.285-1.367 4.1-1.968 5.335-.567 1.166-1.367 2.328-2.749 2.328-1.381 0-2.181-1.162-2.749-2.328-.601-1.236-1.206-3.05-1.967-5.335l-.027-.08-.073-.22c-.342-1.026-.43-1.211-.558-1.339s-.313-.216-1.34-.558l-.218-.072-.08-.027c-2.286-.762-4.1-1.367-5.336-1.968C1.486 11.985.325 11.185.325 9.804s1.16-2.181 2.327-2.749c1.236-.601 3.05-1.206 5.335-1.967l.081-.027L19.89 1.12l.072-.025c.766-.255 1.445-.482 1.987-.578" clip-rule="evenodd"/><defs><linearGradient id="a" x1=".548" x2="28.256" y1=".463" y2="6.317" gradientUnits="userSpaceOnUse"><stop stop-color="#8258c8"/><stop offset=".315" stop-color="#6766c8"/><stop offset="1" stop-color="#2c84c8"/></linearGradient></defs></svg>