<svg width="28" height="28" viewBox="0 0 28 28" fill="none" xmlns="http://www.w3.org/2000/svg">
<g clip-path="url(#clip0_4029_599)">
<path d="M22.1647 1.16699H5.83138C4.28485 1.16884 2.8022 1.78402 1.70864 2.87758C0.615076 3.97114 -0.000100625 5.4538 -0.00195312 7.00033L-0.00195312 21.0003C-0.000100625 22.5469 0.615076 24.0295 1.70864 25.1231C2.8022 26.2166 4.28485 26.8318 5.83138 26.8337H22.1647C23.7112 26.8318 25.1939 26.2166 26.2875 25.1231C27.381 24.0295 27.9962 22.5469 27.998 21.0003V7.00033C27.9962 5.4538 27.381 3.97114 26.2875 2.87758C25.1939 1.78402 23.7112 1.16884 22.1647 1.16699ZM5.83138 3.50033H22.1647C23.093 3.50033 23.9832 3.86907 24.6396 4.52545C25.296 5.18183 25.6647 6.07207 25.6647 7.00033V8.16699H2.33138V7.00033C2.33138 6.07207 2.70013 5.18183 3.35651 4.52545C4.01288 3.86907 4.90312 3.50033 5.83138 3.50033ZM22.1647 24.5003H5.83138C4.90312 24.5003 4.01288 24.1316 3.35651 23.4752C2.70013 22.8188 2.33138 21.9286 2.33138 21.0003V10.5003H25.6647V21.0003C25.6647 21.9286 25.296 22.8188 24.6396 23.4752C23.9832 24.1316 23.093 24.5003 22.1647 24.5003ZM22.1647 15.167C22.1647 15.4764 22.0418 15.7732 21.823 15.992C21.6042 16.2107 21.3075 16.3337 20.998 16.3337H6.99805C6.68863 16.3337 6.39188 16.2107 6.17309 15.992C5.9543 15.7732 5.83138 15.4764 5.83138 15.167C5.83138 14.8576 5.9543 14.5608 6.17309 14.342C6.39188 14.1232 6.68863 14.0003 6.99805 14.0003H20.998C21.3075 14.0003 21.6042 14.1232 21.823 14.342C22.0418 14.5608 22.1647 14.8576 22.1647 15.167ZM17.498 19.8337C17.498 20.1431 17.3751 20.4398 17.1563 20.6586C16.9375 20.8774 16.6408 21.0003 16.3314 21.0003H6.99805C6.68863 21.0003 6.39188 20.8774 6.17309 20.6586C5.9543 20.4398 5.83138 20.1431 5.83138 19.8337C5.83138 19.5242 5.9543 19.2275 6.17309 19.0087C6.39188 18.7899 6.68863 18.667 6.99805 18.667H16.3314C16.6408 18.667 16.9375 18.7899 17.1563 19.0087C17.3751 19.2275 17.498 19.5242 17.498 19.8337ZM3.49805 5.83366C3.49805 5.60291 3.56647 5.37735 3.69467 5.18549C3.82286 4.99364 4.00507 4.8441 4.21825 4.7558C4.43143 4.6675 4.66601 4.64439 4.89232 4.68941C5.11863 4.73443 5.32651 4.84554 5.48967 5.0087C5.65283 5.17186 5.76395 5.37974 5.80896 5.60605C5.85398 5.83237 5.83087 6.06694 5.74257 6.28012C5.65427 6.4933 5.50474 6.67551 5.31288 6.80371C5.12102 6.9319 4.89546 7.00033 4.66471 7.00033C4.35529 7.00033 4.05855 6.87741 3.83976 6.65862C3.62096 6.43982 3.49805 6.14308 3.49805 5.83366ZM6.99805 5.83366C6.99805 5.60291 7.06647 5.37735 7.19467 5.18549C7.32286 4.99364 7.50507 4.8441 7.71825 4.7558C7.93143 4.6675 8.16601 4.64439 8.39232 4.68941C8.61863 4.73443 8.82651 4.84554 8.98967 5.0087C9.15283 5.17186 9.26395 5.37974 9.30896 5.60605C9.35398 5.83237 9.33088 6.06694 9.24257 6.28012C9.15427 6.4933 9.00474 6.67551 8.81288 6.80371C8.62102 6.9319 8.39546 7.00033 8.16471 7.00033C7.85529 7.00033 7.55855 6.87741 7.33976 6.65862C7.12096 6.43982 6.99805 6.14308 6.99805 5.83366ZM10.498 5.83366C10.498 5.60291 10.5665 5.37735 10.6947 5.18549C10.8229 4.99364 11.0051 4.8441 11.2182 4.7558C11.4314 4.6675 11.666 4.64439 11.8923 4.68941C12.1186 4.73443 12.3265 4.84554 12.4897 5.0087C12.6528 5.17186 12.7639 5.37974 12.809 5.60605C12.854 5.83237 12.8309 6.06694 12.7426 6.28012C12.6543 6.4933 12.5047 6.67551 12.3129 6.80371C12.121 6.9319 11.8955 7.00033 11.6647 7.00033C11.3553 7.00033 11.0585 6.87741 10.8398 6.65862C10.621 6.43982 10.498 6.14308 10.498 5.83366Z" fill="url(#paint0_linear_4029_599)"/>
</g>
<defs>
<linearGradient id="paint0_linear_4029_599" x1="0.258271" y1="1.16699" x2="32.3015" y2="8.55223" gradientUnits="userSpaceOnUse">
<stop stop-color="#8258C8"/>
<stop offset="0.315" stop-color="#6766C8"/>
<stop offset="1" stop-color="#2C84C8"/>
</linearGradient>
<clipPath id="clip0_4029_599">
<rect width="28" height="28" fill="white" transform="translate(-0.00195312)"/>
</clipPath>
</defs>
</svg>
