<svg width="80" height="72" viewBox="0 0 80 72" fill="none" xmlns="http://www.w3.org/2000/svg">
<g clip-path="url(#clip0_3973_118)">
<g opacity="0.9">
<path d="M79.7594 46.6951C80.4898 36.3978 63.2794 26.7415 41.319 25.1272C19.3585 23.5129 0.963969 30.5519 0.233594 40.8492C-0.496781 51.1465 16.7136 60.8028 38.674 62.4171C60.6345 64.0313 79.029 56.9924 79.7594 46.6951Z" stroke="url(#paint0_linear_3973_118)" stroke-width="0.8" stroke-miterlimit="10"/>
<path d="M78.2978 44.5459C78.5844 34.4783 61.4082 25.8033 39.9337 25.1698C18.4591 24.5362 0.818225 32.184 0.531627 42.2515C0.245029 52.3191 17.4213 60.9941 38.8958 61.6276C60.3703 62.2612 78.0112 54.6134 78.2978 44.5459Z" stroke="url(#paint1_linear_3973_118)" stroke-width="0.8" stroke-miterlimit="10"/>
<path d="M39.1324 60.8477C60.1175 60.5009 77.0021 52.2435 76.8452 42.4043C76.6883 32.5651 59.5493 24.87 38.5643 25.2168C17.5792 25.5636 0.694569 33.821 0.851461 43.6602C1.00835 53.4994 18.1473 61.1945 39.1324 60.8477Z" stroke="url(#paint2_linear_3973_118)" stroke-width="0.8" stroke-miterlimit="10"/>
<path d="M39.3599 60.0613C59.8579 58.7338 75.9879 49.8666 75.3873 40.2558C74.7867 30.645 57.683 23.93 37.1851 25.2575C16.6872 26.585 0.557173 35.4522 1.15774 45.063C1.75832 54.6738 18.862 61.3888 39.3599 60.0613Z" stroke="url(#paint3_linear_3973_118)" stroke-width="0.8" stroke-miterlimit="10"/>
<path d="M39.5819 59.2782C59.595 56.9713 74.973 47.4963 73.9296 38.1153C72.8862 28.7342 55.8165 22.9995 35.8034 25.3064C15.7903 27.6133 0.412246 37.0882 1.45564 46.4693C2.49904 55.8503 19.5687 61.5851 39.5819 59.2782Z" stroke="url(#paint4_linear_3973_118)" stroke-width="0.8" stroke-miterlimit="10"/>
<path d="M39.7993 58.5004C59.324 55.2134 73.9464 45.1276 72.4594 35.9731C70.9723 26.8187 53.9389 22.0622 34.4142 25.3492C14.8894 28.6361 0.267029 38.7219 1.75409 47.8764C3.24116 57.0308 20.2746 61.7874 39.7993 58.5004Z" stroke="url(#paint5_linear_3973_118)" stroke-width="0.8" stroke-miterlimit="10"/>
<path d="M40.0288 57.714C59.0674 53.4456 72.9362 42.7512 71.0058 33.8274C69.0753 24.9037 52.0765 21.1298 33.0379 25.3982C13.9993 29.6667 0.130398 40.3611 2.06089 49.2849C3.99137 58.2086 20.9902 61.9825 40.0288 57.714Z" stroke="url(#paint6_linear_3973_118)" stroke-width="0.8" stroke-miterlimit="10"/>
<path d="M40.252 56.9338C58.802 51.6861 71.9152 40.3818 69.5412 31.6848C67.1672 22.9879 50.205 20.1918 31.6551 25.4395C13.1051 30.6873 -0.00812297 41.9916 2.36586 50.6886C4.73984 59.3855 21.7021 62.1816 40.252 56.9338Z" stroke="url(#paint7_linear_3973_118)" stroke-width="0.8" stroke-miterlimit="10"/>
<path d="M40.4825 56.1417C58.5436 49.911 70.9004 37.9967 68.0821 29.5302C65.2639 21.0638 48.3379 19.2513 30.2768 25.482C12.2156 31.7127 -0.141152 43.6271 2.67708 52.0935C5.49532 60.56 22.4214 62.3724 40.4825 56.1417Z" stroke="url(#paint8_linear_3973_118)" stroke-width="0.8" stroke-miterlimit="10"/>
<path d="M40.7087 55.3607C58.2841 48.15 69.8879 35.626 66.6265 27.3876C63.3651 19.1492 46.4736 18.3161 28.8982 25.5268C11.3228 32.7376 -0.280925 45.2616 2.98047 53.5C6.24186 61.7384 23.1334 62.5715 40.7087 55.3607Z" stroke="url(#paint9_linear_3973_118)" stroke-width="0.8" stroke-miterlimit="10"/>
<path d="M40.9338 54.584C58.0219 46.3944 68.871 33.2605 65.166 25.2486C61.461 17.2368 44.6049 17.381 27.5168 25.5707C10.4288 33.7604 -0.420332 46.8943 3.28467 54.9061C6.98967 62.9179 23.8458 62.7737 40.9338 54.584Z" stroke="url(#paint10_linear_3973_118)" stroke-width="0.8" stroke-miterlimit="10"/>
<path d="M41.1633 53.7955C57.7631 44.6239 67.8563 30.8796 63.707 23.0967C59.5578 15.3138 42.7374 16.4396 26.1376 25.6112C9.53785 34.7827 -0.555342 48.527 3.59387 56.3099C7.74309 64.0928 24.5635 62.967 41.1633 53.7955Z" stroke="url(#paint11_linear_3973_118)" stroke-width="0.8" stroke-miterlimit="10"/>
<path d="M41.386 53.0122C57.4993 42.8613 66.8398 28.5094 62.2485 20.9563C57.6573 13.4032 40.873 15.5092 24.7597 25.6602C8.64639 35.8111 -0.69409 50.163 3.89714 57.7161C8.48837 65.2691 25.2727 63.1632 41.386 53.0122Z" stroke="url(#paint12_linear_3973_118)" stroke-width="0.8" stroke-miterlimit="10"/>
<path d="M41.6151 52.2222C57.2406 41.088 65.8256 26.1251 60.7902 18.8015C55.7548 11.4779 39.0059 14.567 23.3804 25.7011C7.75487 36.8353 -0.830139 51.7983 4.20523 59.1218C9.2406 66.4454 25.9895 63.3563 41.6151 52.2222Z" stroke="url(#paint13_linear_3973_118)" stroke-width="0.8" stroke-miterlimit="10"/>
<path d="M41.8351 51.4331C56.9737 39.3185 64.8038 23.745 59.3243 16.6486C53.8447 9.55213 37.1304 13.6201 21.9918 25.7346C6.85328 37.8492 -0.976884 53.4227 4.50268 60.5191C9.98224 67.6156 26.6965 63.5476 41.8351 51.4331Z" stroke="url(#paint14_linear_3973_118)" stroke-width="0.8" stroke-miterlimit="10"/>
<path d="M42.0542 50.654C56.7066 37.5587 63.7843 21.3762 57.8626 14.5093C51.9409 7.64244 35.2622 12.6916 20.6098 25.7869C5.95728 38.8822 -1.12041 55.0647 4.8013 61.9316C10.723 68.7985 27.4017 63.7493 42.0542 50.654Z" stroke="url(#paint15_linear_3973_118)" stroke-width="0.8" stroke-miterlimit="10"/>
<path d="M42.2806 49.8692C56.4437 35.7939 62.7656 19.0029 56.4008 12.3654C50.036 5.72793 33.3948 11.7575 19.2316 25.8328C5.06844 39.9081 -1.25341 56.6991 5.11138 63.3366C11.4762 69.9741 28.1174 63.9445 42.2806 49.8692Z" stroke="url(#paint16_linear_3973_118)" stroke-width="0.8" stroke-miterlimit="10"/>
<path d="M42.5073 49.0856C56.1836 34.0292 61.7507 16.6275 54.9419 10.2178C48.133 3.80799 31.5264 10.8174 17.8501 25.8738C4.17377 40.9302 -1.39339 58.3319 5.4155 64.7416C12.2244 71.1514 28.8309 64.1419 42.5073 49.0856Z" stroke="url(#paint17_linear_3973_118)" stroke-width="0.8" stroke-miterlimit="10"/>
<path d="M42.729 48.2995C55.9188 32.2632 60.7333 14.2528 53.4827 8.0723C46.232 1.89176 29.6617 9.88146 16.472 25.9178C3.28225 41.9541 -1.53232 59.9644 5.71835 66.145C12.969 72.3255 29.5393 64.3358 42.729 48.2995Z" stroke="url(#paint18_linear_3973_118)" stroke-width="0.8" stroke-miterlimit="10"/>
<path d="M42.9546 47.5124C55.6562 30.4956 59.7156 11.8759 52.0215 5.92405C44.3274 -0.027796 27.7935 8.94211 15.092 25.9589C2.3904 42.9757 -1.66898 61.5954 6.02509 67.5473C13.7192 73.4991 30.2531 64.5292 42.9546 47.5124Z" stroke="url(#paint19_linear_3973_118)" stroke-width="0.8" stroke-miterlimit="10"/>
<path d="M43.1807 46.7264C55.394 28.7299 58.6983 9.50132 50.5609 3.77804C42.4236 -1.94525 25.9261 8.0041 13.7128 26.0005C1.49949 43.997 -1.80476 63.2256 6.33257 68.9489C14.4699 74.6721 30.9674 64.7228 43.1807 46.7264Z" stroke="url(#paint20_linear_3973_118)" stroke-width="0.8" stroke-miterlimit="10"/>
<path d="M43.4077 45.9564C55.137 26.9802 57.6893 7.14089 49.1084 1.64407C40.5275 -3.85275 24.0628 7.07445 12.3335 26.0507C0.604187 45.0269 -1.9481 64.8662 6.63281 70.363C15.2137 75.8599 31.6784 64.9327 43.4077 45.9564Z" stroke="url(#paint21_linear_3973_118)" stroke-width="0.8" stroke-miterlimit="10"/>
</g>
</g>
<defs>
<linearGradient id="paint0_linear_3973_118" x1="-1.0643" y1="59.1476" x2="6.61075" y2="14.9862" gradientUnits="userSpaceOnUse">
<stop stop-color="#8258C8"/>
<stop offset="0.315" stop-color="#6766C8"/>
<stop offset="1" stop-color="#2C84C8"/>
</linearGradient>
<linearGradient id="paint1_linear_3973_118" x1="0.0223267" y1="60.1416" x2="5.61446" y2="16.7626" gradientUnits="userSpaceOnUse">
<stop stop-color="#8258C8"/>
<stop offset="0.315" stop-color="#6766C8"/>
<stop offset="1" stop-color="#2C84C8"/>
</linearGradient>
<linearGradient id="paint2_linear_3973_118" x1="1.27365" y1="25.833" x2="77.9372" y2="58.9089" gradientUnits="userSpaceOnUse">
<stop stop-color="#8258C8"/>
<stop offset="0.315" stop-color="#6766C8"/>
<stop offset="1" stop-color="#2C84C8"/>
</linearGradient>
<linearGradient id="paint3_linear_3973_118" x1="0.760182" y1="27.6164" x2="77.1699" y2="56.431" gradientUnits="userSpaceOnUse">
<stop stop-color="#8258C8"/>
<stop offset="0.315" stop-color="#6766C8"/>
<stop offset="1" stop-color="#2C84C8"/>
</linearGradient>
<linearGradient id="paint4_linear_3973_118" x1="0.239959" y1="29.4058" x2="76.403" y2="53.9856" gradientUnits="userSpaceOnUse">
<stop stop-color="#8258C8"/>
<stop offset="0.315" stop-color="#6766C8"/>
<stop offset="1" stop-color="#2C84C8"/>
</linearGradient>
<linearGradient id="paint5_linear_3973_118" x1="-0.281362" y1="31.1901" x2="75.6428" y2="51.5258" gradientUnits="userSpaceOnUse">
<stop stop-color="#8258C8"/>
<stop offset="0.315" stop-color="#6766C8"/>
<stop offset="1" stop-color="#2C84C8"/>
</linearGradient>
<linearGradient id="paint6_linear_3973_118" x1="-0.793816" y1="32.9833" x2="74.9009" y2="49.0984" gradientUnits="userSpaceOnUse">
<stop stop-color="#8258C8"/>
<stop offset="0.315" stop-color="#6766C8"/>
<stop offset="1" stop-color="#2C84C8"/>
</linearGradient>
<linearGradient id="paint7_linear_3973_118" x1="-1.30831" y1="34.7648" x2="74.1679" y2="46.6577" gradientUnits="userSpaceOnUse">
<stop stop-color="#8258C8"/>
<stop offset="0.315" stop-color="#6766C8"/>
<stop offset="1" stop-color="#2C84C8"/>
</linearGradient>
<linearGradient id="paint8_linear_3973_118" x1="-1.81793" y1="36.554" x2="73.452" y2="44.2293" gradientUnits="userSpaceOnUse">
<stop stop-color="#8258C8"/>
<stop offset="0.315" stop-color="#6766C8"/>
<stop offset="1" stop-color="#2C84C8"/>
</linearGradient>
<linearGradient id="paint9_linear_3973_118" x1="-2.3333" y1="38.3403" x2="72.755" y2="41.8154" gradientUnits="userSpaceOnUse">
<stop stop-color="#8258C8"/>
<stop offset="0.315" stop-color="#6766C8"/>
<stop offset="1" stop-color="#2C84C8"/>
</linearGradient>
<linearGradient id="paint10_linear_3973_118" x1="-2.84872" y1="40.1238" x2="72.0707" y2="39.3949" gradientUnits="userSpaceOnUse">
<stop stop-color="#8258C8"/>
<stop offset="0.315" stop-color="#6766C8"/>
<stop offset="1" stop-color="#2C84C8"/>
</linearGradient>
<linearGradient id="paint11_linear_3973_118" x1="-3.36027" y1="41.9091" x2="71.4056" y2="36.9699" gradientUnits="userSpaceOnUse">
<stop stop-color="#8258C8"/>
<stop offset="0.315" stop-color="#6766C8"/>
<stop offset="1" stop-color="#2C84C8"/>
</linearGradient>
<linearGradient id="paint12_linear_3973_118" x1="-3.87372" y1="43.6984" x2="70.7552" y2="34.5641" gradientUnits="userSpaceOnUse">
<stop stop-color="#8258C8"/>
<stop offset="0.315" stop-color="#6766C8"/>
<stop offset="1" stop-color="#2C84C8"/>
</linearGradient>
<linearGradient id="paint13_linear_3973_118" x1="-4.38623" y1="45.4866" x2="70.1251" y2="32.1324" gradientUnits="userSpaceOnUse">
<stop stop-color="#8258C8"/>
<stop offset="0.315" stop-color="#6766C8"/>
<stop offset="1" stop-color="#2C84C8"/>
</linearGradient>
<linearGradient id="paint14_linear_3973_118" x1="-4.90945" y1="47.2622" x2="69.499" y2="29.683" gradientUnits="userSpaceOnUse">
<stop stop-color="#8258C8"/>
<stop offset="0.315" stop-color="#6766C8"/>
<stop offset="1" stop-color="#2C84C8"/>
</linearGradient>
<linearGradient id="paint15_linear_3973_118" x1="-5.42776" y1="49.0573" x2="68.8916" y2="27.2552" gradientUnits="userSpaceOnUse">
<stop stop-color="#8258C8"/>
<stop offset="0.315" stop-color="#6766C8"/>
<stop offset="1" stop-color="#2C84C8"/>
</linearGradient>
<linearGradient id="paint16_linear_3973_118" x1="-5.93642" y1="50.8446" x2="68.2929" y2="24.798" gradientUnits="userSpaceOnUse">
<stop stop-color="#8258C8"/>
<stop offset="0.315" stop-color="#6766C8"/>
<stop offset="1" stop-color="#2C84C8"/>
</linearGradient>
<linearGradient id="paint17_linear_3973_118" x1="-6.45281" y1="52.629" x2="67.7051" y2="22.3227" gradientUnits="userSpaceOnUse">
<stop stop-color="#8258C8"/>
<stop offset="0.315" stop-color="#6766C8"/>
<stop offset="1" stop-color="#2C84C8"/>
</linearGradient>
<linearGradient id="paint18_linear_3973_118" x1="-6.96625" y1="54.4144" x2="67.1247" y2="19.8484" gradientUnits="userSpaceOnUse">
<stop stop-color="#8258C8"/>
<stop offset="0.315" stop-color="#6766C8"/>
<stop offset="1" stop-color="#2C84C8"/>
</linearGradient>
<linearGradient id="paint19_linear_3973_118" x1="-7.47878" y1="56.1978" x2="66.5442" y2="17.348" gradientUnits="userSpaceOnUse">
<stop stop-color="#8258C8"/>
<stop offset="0.315" stop-color="#6766C8"/>
<stop offset="1" stop-color="#2C84C8"/>
</linearGradient>
<linearGradient id="paint20_linear_3973_118" x1="-7.99033" y1="57.9803" x2="65.9645" y2="14.8359" gradientUnits="userSpaceOnUse">
<stop stop-color="#8258C8"/>
<stop offset="0.315" stop-color="#6766C8"/>
<stop offset="1" stop-color="#2C84C8"/>
</linearGradient>
<linearGradient id="paint21_linear_3973_118" x1="-8.50955" y1="59.7715" x2="65.3921" y2="12.3265" gradientUnits="userSpaceOnUse">
<stop stop-color="#8258C8"/>
<stop offset="0.315" stop-color="#6766C8"/>
<stop offset="1" stop-color="#2C84C8"/>
</linearGradient>
<clipPath id="clip0_3973_118">
<rect width="80" height="72" fill="white"/>
</clipPath>
</defs>
</svg>
