<svg width="203" height="37" viewBox="0 0 203 37" fill="none" xmlns="http://www.w3.org/2000/svg">
<path d="M3.00391 31.5322C2.90625 31.7438 2.80046 31.9635 2.68652 32.1914C19.2067 12.2533 27.6621 2.19466 28.0527 2.01562C30.0384 1.2181 31.4382 0.819336 32.252 0.819336H32.5693C37.8753 0.819336 41.391 3.53743 43.1162 8.97363C43.1162 10.2432 43.222 11.7487 43.4336 13.4902C43.4336 13.7018 43.3278 13.8076 43.1162 13.8076L43.4336 15.3213V16.2002C43.4336 16.8187 43.3278 17.1279 43.1162 17.1279L43.4336 18.6416V34.3154C43.4336 35.3571 43.1243 35.9512 42.5059 36.0977H34.083C33.4808 35.9186 33.1797 35.3245 33.1797 34.3154V29.4814C33.1797 29.1722 32.8704 28.863 32.252 28.5537H18.7021L11.7441 36.0977H1.19727C0.806641 36.0977 0.611328 35.8047 0.611328 35.2188C0.611328 34.9746 1.2054 34.1689 2.39355 32.8018V32.5088C2.11686 32.818 1.81576 33.1191 1.49023 33.4121L3.00391 31.5322ZM23.8291 22.2305L24.415 22.5234H32.5693C33.1553 22.5234 33.4482 20.2204 33.4482 15.6143V13.4902C33.4482 12.2858 33.0495 11.6836 32.252 11.6836C30.9661 12.4323 28.1585 15.8584 23.8291 21.9619V22.2305ZM46.6562 33.8516C47.1934 33.6725 47.4619 33.1354 47.4619 32.2402V15.6875C47.4619 15.5085 47.5514 15.4189 47.7305 15.4189L47.4619 14.8818V14.3447C47.4619 11.7568 47.5514 8.81901 47.7305 5.53125L47.4619 4.18848C47.6898 2.05632 48.4873 0.990234 49.8545 0.990234H55.7383C57.3496 1.2181 58.1553 2.01562 58.1553 3.38281C57.9762 4.37565 57.8867 5.18132 57.8867 5.7998C57.8867 6.72754 57.9762 7.52507 58.1553 8.19238C57.9762 9.75488 57.8867 11.0977 57.8867 12.2207V16.2246L58.1553 17.8115C57.9762 18.1208 57.8867 18.4788 57.8867 18.8857C57.8867 20.139 57.9762 20.8551 58.1553 21.0342C57.9762 22.9873 57.8867 24.6719 57.8867 26.0879V33.8516C57.8867 35.2676 57.1706 35.9756 55.7383 35.9756H49.0488L46.9248 34.3887C46.8434 34.5352 46.7539 34.6654 46.6562 34.7793V33.8516ZM72.7305 0.892578L74.0977 1.13672L98.0967 0.916992C99.7243 0.900716 100.538 1.88542 100.538 3.87109C100.538 4.50586 100.449 5.31152 100.27 6.28809C100.449 6.59733 100.538 6.9554 100.538 7.3623C100.538 8.48535 100.09 9.29915 99.1953 9.80371L94.6055 9.85254C93.7428 9.86882 92.8395 9.96647 91.8955 10.1455C91.1794 9.98275 90.5527 9.90137 90.0156 9.90137C89.2018 9.90137 88.6647 9.99902 88.4043 10.1943L77.3203 9.75488C77.1413 9.75488 76.8727 9.8444 76.5146 10.0234C74.6755 9.86068 73.235 9.78743 72.1934 9.80371H70.8506C69.0602 9.81999 66.9036 9.93392 64.3809 10.1455C62.7533 9.9502 61.9395 9.23405 61.9395 7.99707C64.5273 3.29329 68.1243 0.92513 72.7305 0.892578ZM63.2822 13.9297C68.9788 14.0599 73.2106 14.1087 75.9775 14.0762L88.1113 13.9541C88.5182 13.9541 88.8844 14.0436 89.21 14.2227C89.5192 14.0436 89.8773 13.9541 90.2842 13.9541L92.1641 13.9297C92.7663 13.9297 93.222 14.0111 93.5312 14.1738L95.1426 13.9053L97.291 13.8809C99.0977 14.2227 100.001 15.1097 100.001 16.542V20.0576C100.001 21.6852 99.1872 22.7757 97.5596 23.3291L87.5742 22.8652C86.6139 23.0605 85.8083 23.1582 85.1572 23.1582C85.027 23.1745 84.4899 23.0931 83.5459 22.9141C83.139 22.9141 82.7728 23.0117 82.4473 23.207C80.6081 23.0443 79.1676 22.9629 78.126 22.9629L73.2676 23.0117C72.9909 23.0117 72.6328 23.3779 72.1934 24.1104V24.916C72.9746 26.3483 73.9674 27.0563 75.1719 27.04L78.6875 27.0156C79.6315 26.9993 80.4372 27.0807 81.1045 27.2598C82.0811 27.0645 82.8949 26.9668 83.5459 26.9668C85.32 26.9505 89.096 27.0075 94.874 27.1377L95.9482 26.8447C99.1872 26.8122 100.807 27.5202 100.807 28.9688V31.6543C100.807 32.3053 100.896 33.1191 101.075 34.0957C100.978 34.6165 100.53 35.3408 99.7324 36.2686C96.7539 36.1058 94.4997 36.0326 92.9697 36.0488L81.6416 36.1465C72.4294 36.2441 67.3919 35.4873 66.5293 33.876C63.1113 31.874 61.4023 28.2038 61.4023 22.8652V16.9082C61.4023 15.3945 62.029 14.4017 63.2822 13.9297ZM105.689 0.892578C107.219 1.02279 108.326 1.08789 109.01 1.08789H136.5C137.216 1.08789 138.128 1.15299 139.234 1.2832C139.267 1.15299 139.918 1.08789 141.188 1.08789H141.578C145.208 1.08789 147.356 2.64225 148.023 5.75098C148.154 6.49967 148.219 7.54134 148.219 8.87598V12.9775C148.219 13.2705 148.284 13.5309 148.414 13.7588C148.414 16.2165 147.307 18.2998 145.094 20.0088V20.2041C147.958 22.4827 149.391 24.9486 149.391 27.6016C149.781 28.3828 150.497 30.8568 151.539 35.0234C151.36 35.5605 151.035 35.9512 150.562 36.1953H149.586C149.065 36.1953 148.805 36.1302 148.805 36L147.438 36.1953H143.141C141.741 36.1953 140.699 33.5911 140.016 28.3828C139.625 27.7155 139.299 26.4867 139.039 24.6963C138.469 23.3942 137.428 22.7432 135.914 22.7432H115.626C114.975 23.0036 114.649 23.4593 114.649 24.1104V26.8203C114.649 27.2923 114.584 27.8783 114.454 28.5781L114.649 28.9688C114.519 30.3034 114.454 31.3451 114.454 32.0938V33.4609C114.454 33.5911 114.389 33.6562 114.259 33.6562L114.454 34.0469V34.2422C114.454 35.235 114.194 35.821 113.673 36H105.299C104.648 35.6094 104.322 35.0885 104.322 34.4375L104.518 34.0469L104.322 32.2891C104.452 30.7266 104.583 29.8802 104.713 29.75C104.583 28.6432 104.518 27.7318 104.518 27.0156V26.625C104.518 24.6882 104.583 22.9385 104.713 21.376C104.583 20.3669 104.518 19.2601 104.518 18.0557C104.518 17.9743 104.583 17.1279 104.713 15.5166L104.518 15.126C104.697 14.5889 105.022 14.1982 105.494 13.9541H110.963C111.386 13.9541 111.712 14.0192 111.939 14.1494C112.184 14.1494 112.306 14.0843 112.306 13.9541C116.424 14.0843 119.483 14.1494 121.485 14.1494H134.938C137.151 14.1494 138.258 13.3682 138.258 11.8057V11.6104C138.258 10.5036 137.346 9.72233 135.523 9.2666C133.587 9.39681 132.162 9.46191 131.251 9.46191H122.071C117.953 9.46191 112.428 9.39681 105.494 9.2666C104.973 8.72949 104.713 8.20866 104.713 7.7041V2.45508C104.713 1.82031 105.038 1.29948 105.689 0.892578ZM168.629 0.916992H182.301C191.415 0.916992 195.973 1.31576 195.973 2.11328C197.486 2.47135 199.195 4.12337 201.1 7.06934C201.897 9.44564 202.296 11.1546 202.296 12.1963C202.166 18.0068 202.101 22.0352 202.101 24.2812C202.101 27.1133 201.173 29.8883 199.317 32.6064C196.681 35.113 194.044 36.3662 191.407 36.3662C184.506 36.236 179.029 36.1709 174.977 36.1709H165.65C160.735 36.1709 157.309 33.7946 155.372 29.042C154.965 27.4144 154.762 26.2913 154.762 25.6729V24.2812C154.762 23.8906 154.827 23.6953 154.957 23.6953L154.762 22.6943V12.6113C154.762 7.64714 156.609 4.21289 160.304 2.30859C162.094 1.38086 164.869 0.916992 168.629 0.916992ZM164.869 14.9795V21.9131C164.869 24.5986 166.318 26.3809 169.215 27.2598C170.566 27.5202 172.682 27.6504 175.562 27.6504H184.669C188.152 27.6504 190.398 26.7959 191.407 25.0869C192.205 23.7848 192.604 21.6689 192.604 18.7393L192.408 17.3477L192.604 15.5654C192.604 12.5055 191.017 10.4629 187.843 9.4375C186.931 9.30729 186.207 9.24219 185.67 9.24219H171.998C168.515 9.24219 166.269 10.4303 165.26 12.8066C164.999 13.3275 164.869 14.0518 164.869 14.9795Z" fill="white"/>
</svg>
