<svg width="110" height="20" viewBox="0 0 110 20" fill="none" xmlns="http://www.w3.org/2000/svg">
<path d="M2.16211 16.5874C2.10938 16.7017 2.05225 16.8203 1.99072 16.9434C10.9116 6.17676 15.4775 0.745117 15.6885 0.648438C16.7607 0.217773 17.5166 0.00244141 17.9561 0.00244141H18.1274C20.9927 0.00244141 22.8911 1.47021 23.8228 4.40576C23.8228 5.09131 23.8799 5.9043 23.9941 6.84473C23.9941 6.95898 23.937 7.01611 23.8228 7.01611L23.9941 7.8335V8.30811C23.9941 8.64209 23.937 8.80908 23.8228 8.80908L23.9941 9.62646V18.0903C23.9941 18.6528 23.8271 18.9736 23.4932 19.0527H18.9448C18.6196 18.9561 18.457 18.6353 18.457 18.0903V15.48C18.457 15.313 18.29 15.146 17.9561 14.979H10.6392L6.88184 19.0527H1.18652C0.975586 19.0527 0.870117 18.8945 0.870117 18.5781C0.870117 18.4463 1.19092 18.0112 1.83252 17.2729V17.1147C1.68311 17.2817 1.52051 17.4443 1.34473 17.6025L2.16211 16.5874ZM13.4077 11.5645L13.7241 11.7227H18.1274C18.4438 11.7227 18.6021 10.479 18.6021 7.9917V6.84473C18.6021 6.19434 18.3867 5.86914 17.9561 5.86914C17.2617 6.27344 15.7456 8.12354 13.4077 11.4194V11.5645ZM26.3804 0.0288086H26.8154C27.1846 0.0288086 27.5054 0.0639648 27.7778 0.134277C28.1646 0.0639648 28.5557 0.0288086 28.9512 0.0288086L29.584 0.134277C29.874 0.0639648 30.1245 0.0288086 30.3354 0.0288086C30.9771 0.0991211 31.2979 0.239746 31.2979 0.450684C31.2275 9.31006 31.1924 15.3042 31.1924 18.4331C31.1924 18.6792 30.9814 18.9604 30.5596 19.2769L29.2676 19.1714H26.2749C25.9146 18.978 25.7344 18.6572 25.7344 18.209L25.853 17.6816V0.885742C25.853 0.499023 26.0288 0.213379 26.3804 0.0288086ZM39.1553 0.0419922L39.8936 0.173828L52.853 0.0551758C53.7319 0.0463867 54.1714 0.578125 54.1714 1.65039C54.1714 1.99316 54.123 2.42822 54.0264 2.95557C54.123 3.12256 54.1714 3.31592 54.1714 3.53564C54.1714 4.14209 53.9297 4.58154 53.4463 4.854L50.9678 4.88037C50.502 4.88916 50.0142 4.94189 49.5044 5.03857C49.1177 4.95068 48.7793 4.90674 48.4893 4.90674C48.0498 4.90674 47.7598 4.95947 47.6191 5.06494L41.6338 4.82764C41.5371 4.82764 41.3921 4.87598 41.1987 4.97266C40.2056 4.88477 39.4277 4.84521 38.8652 4.854H38.1401C37.1733 4.86279 36.0088 4.92432 34.6465 5.03857C33.7676 4.93311 33.3281 4.54639 33.3281 3.87842C34.7256 1.33838 36.668 0.0595703 39.1553 0.0419922ZM34.0532 7.08203C37.1294 7.15234 39.4146 7.17871 40.9087 7.16113L47.4609 7.09521C47.6807 7.09521 47.8784 7.14355 48.0542 7.24023C48.2212 7.14355 48.4146 7.09521 48.6343 7.09521L49.6494 7.08203C49.9746 7.08203 50.2207 7.12598 50.3877 7.21387L51.2578 7.06885L52.418 7.05566C53.3936 7.24023 53.8813 7.71924 53.8813 8.49268V10.3911C53.8813 11.27 53.4419 11.8589 52.563 12.1577L47.1709 11.9072C46.6523 12.0127 46.2173 12.0654 45.8657 12.0654C45.7954 12.0742 45.5054 12.0303 44.9956 11.9336C44.7759 11.9336 44.5781 11.9863 44.4023 12.0918C43.4092 12.0039 42.6313 11.96 42.0688 11.96L39.4453 11.9863C39.2959 11.9863 39.1025 12.1841 38.8652 12.5796V13.0146C39.2871 13.7881 39.8232 14.1704 40.4736 14.1616L42.3721 14.1484C42.8818 14.1396 43.3169 14.1836 43.6772 14.2803C44.2046 14.1748 44.644 14.1221 44.9956 14.1221C45.9536 14.1133 47.9927 14.144 51.1128 14.2144L51.6929 14.0562C53.4419 14.0386 54.3164 14.4209 54.3164 15.2031V16.6533C54.3164 17.0049 54.3647 17.4443 54.4614 17.9717C54.4087 18.2529 54.167 18.644 53.7363 19.145C52.1279 19.0571 50.9106 19.0176 50.0845 19.0264L43.9673 19.0791C38.9927 19.1318 36.2725 18.7231 35.8066 17.853C33.9609 16.772 33.0381 14.79 33.0381 11.9072V8.69043C33.0381 7.87305 33.3765 7.33691 34.0532 7.08203ZM56.9531 0.0419922C57.7793 0.112305 58.377 0.147461 58.7461 0.147461H73.5908C73.9775 0.147461 74.4697 0.182617 75.0674 0.25293C75.085 0.182617 75.4365 0.147461 76.1221 0.147461H76.333C78.293 0.147461 79.4531 0.986816 79.8135 2.66553C79.8838 3.06982 79.9189 3.63232 79.9189 4.35303V6.56787C79.9189 6.72607 79.9541 6.8667 80.0244 6.98975C80.0244 8.31689 79.4268 9.44189 78.2314 10.3647V10.4702C79.7783 11.7007 80.5518 13.0322 80.5518 14.4648C80.7627 14.8867 81.1494 16.2227 81.7119 18.4727C81.6152 18.7627 81.4395 18.9736 81.1846 19.1055H80.6572C80.376 19.1055 80.2354 19.0703 80.2354 19L79.4971 19.1055H77.1768C76.4209 19.1055 75.8584 17.6992 75.4893 14.8867C75.2783 14.5264 75.1025 13.8628 74.9619 12.896C74.6543 12.1929 74.0918 11.8413 73.2744 11.8413H62.3188C61.9673 11.9819 61.7915 12.228 61.7915 12.5796V14.043C61.7915 14.2979 61.7563 14.6143 61.686 14.9922L61.7915 15.2031C61.7212 15.9238 61.686 16.4863 61.686 16.8906V17.6289C61.686 17.6992 61.6509 17.7344 61.5806 17.7344L61.686 17.9453V18.0508C61.686 18.5869 61.5454 18.9033 61.2642 19H56.7422C56.3906 18.7891 56.2148 18.5078 56.2148 18.1562L56.3203 17.9453L56.2148 16.9961C56.2852 16.1523 56.3555 15.6953 56.4258 15.625C56.3555 15.0273 56.3203 14.5352 56.3203 14.1484V13.9375C56.3203 12.8916 56.3555 11.9468 56.4258 11.103C56.3555 10.5581 56.3203 9.96045 56.3203 9.31006C56.3203 9.26611 56.3555 8.80908 56.4258 7.93896L56.3203 7.72803C56.417 7.43799 56.5928 7.22705 56.8477 7.09521H59.8008C60.0293 7.09521 60.2051 7.13037 60.3281 7.20068C60.46 7.20068 60.5259 7.16553 60.5259 7.09521C62.7495 7.16553 64.4019 7.20068 65.4829 7.20068H72.7471C73.9424 7.20068 74.54 6.77881 74.54 5.93506V5.82959C74.54 5.23193 74.0479 4.81006 73.0635 4.56396C72.0176 4.63428 71.2485 4.66943 70.7563 4.66943H65.7993C63.5757 4.66943 60.5918 4.63428 56.8477 4.56396C56.5664 4.27393 56.4258 3.99268 56.4258 3.72021V0.885742C56.4258 0.542969 56.6016 0.261719 56.9531 0.0419922ZM90.9404 0.0551758H98.3232C103.245 0.0551758 105.706 0.270508 105.706 0.701172C106.523 0.894531 107.446 1.78662 108.475 3.37744C108.905 4.66064 109.121 5.5835 109.121 6.146C109.05 9.28369 109.015 11.459 109.015 12.6719C109.015 14.2012 108.514 15.6997 107.512 17.1675C106.088 18.521 104.665 19.1978 103.241 19.1978C99.5142 19.1274 96.5566 19.0923 94.3682 19.0923H89.332C86.6777 19.0923 84.8276 17.8091 83.7817 15.2427C83.562 14.3638 83.4521 13.7573 83.4521 13.4233V12.6719C83.4521 12.4609 83.4873 12.3555 83.5576 12.3555L83.4521 11.8149V6.37012C83.4521 3.68945 84.4497 1.83496 86.4448 0.806641C87.4116 0.305664 88.9102 0.0551758 90.9404 0.0551758ZM88.9102 7.64893V11.3931C88.9102 12.8433 89.6924 13.8057 91.2568 14.2803C91.9863 14.4209 93.1289 14.4912 94.6846 14.4912H99.6021C101.483 14.4912 102.696 14.0298 103.241 13.1069C103.671 12.4038 103.887 11.2612 103.887 9.6792L103.781 8.92773L103.887 7.96533C103.887 6.31299 103.03 5.20996 101.316 4.65625C100.824 4.58594 100.433 4.55078 100.143 4.55078H92.7598C90.8789 4.55078 89.666 5.19238 89.1211 6.47559C88.9805 6.75684 88.9102 7.14795 88.9102 7.64893Z" fill="#1F1F1F"/>
</svg>
