<svg xmlns="http://www.w3.org/2000/svg" width="81" height="15" fill="none" viewBox="0 0 81 15"><path fill="#fff" d="M.957 12.285q-.058.128-.127.264Q10.742.586 10.977.479q1.191-.48 1.68-.479h.126q3.184 0 4.219 3.262 0 .762.127 1.806 0 .127-.127.127l.127.606v.351q0 .372-.127.371l.127.606v6.27q0 .625-.371.712h-3.37q-.36-.107-.36-.713v-1.933q0-.186-.372-.371h-5.42L4.453 14.11H.234Q0 14.111 0 13.76q0-.147.713-.967v-.117a5 5 0 0 1-.361.361zm8.33-3.72.234.117h3.262q.352 0 .352-2.764v-.85q0-.722-.479-.722-.771.45-3.369 4.111zm9.131 4.648q.322-.108.322-.645v-6.62q0-.108.108-.108l-.108-.215V5.41q0-1.553.108-3.525l-.108-.537q.137-1.28.957-1.28h2.354q.966.137.967.957a5.7 5.7 0 0 0-.108.967q0 .556.108.957a15 15 0 0 0-.108 1.612v1.601l.108.635a.84.84 0 0 0-.108.43q0 .75.108.859a23 23 0 0 0-.108 2.021v3.106q0 .85-.86.85h-2.675l-.85-.635a1 1 0 0 1-.107.156zM28.848.029l.547.098 9.6-.088q.975-.01.976 1.182 0 .381-.108.966a.84.84 0 0 1 .108.43q0 .675-.537.977l-1.836.02a6.5 6.5 0 0 0-1.084.116 3.5 3.5 0 0 0-.752-.097q-.488 0-.645.117l-4.433-.176q-.108 0-.323.108a18 18 0 0 0-1.728-.088h-.537a36 36 0 0 0-2.588.136q-.977-.117-.977-.859Q26.084.05 28.848.03m-3.78 5.215q3.419.078 5.078.059L35 5.253q.245 0 .44.108a.84.84 0 0 1 .43-.107l.751-.01q.361 0 .547.098l.645-.108.859-.01q1.084.206 1.084 1.065v1.406q0 .977-.977 1.309l-3.994-.186a5 5 0 0 1-.967.118q-.078.01-.644-.098-.245 0-.44.117a21 21 0 0 0-1.728-.098l-1.944.02q-.165 0-.43.44v.322q.47.86 1.192.85l1.406-.01q.567-.01.967.097.585-.117.977-.117 1.065-.01 4.531.068l.43-.117q1.943-.02 1.943.85v1.074q0 .39.107.976-.058.313-.537.87-1.787-.098-2.705-.088l-4.53.039q-5.528.058-6.046-.908-2.05-1.202-2.05-4.405V6.436q0-.909.751-1.192M42.031.03a18 18 0 0 0 1.328.078h10.996q.43 0 1.094.079.02-.08.782-.079h.156q2.177 0 2.578 1.866.078.45.078 1.25v1.64q0 .176.078.313 0 1.474-1.328 2.5v.078q1.719 1.367 1.719 2.959.233.468.86 2.969a.78.78 0 0 1-.392.468h-.39q-.313 0-.313-.078l-.547.078h-1.718q-.84 0-1.25-3.125-.235-.4-.39-1.474-.343-.781-1.25-.781h-8.116q-.39.156-.39.546V10.4q0 .284-.079.704l.078.156q-.078.8-.078 1.25v.547q0 .078-.078.078l.078.156v.078q0 .596-.312.703h-3.35q-.39-.234-.39-.625l.078-.156-.079-.703q.078-.938.157-1.016a10 10 0 0 1-.078-1.093v-.157q0-1.161.078-2.1a10 10 0 0 1-.078-1.327q0-.05.078-1.016l-.078-.156a.78.78 0 0 1 .39-.47h2.188q.254 0 .39.079.147 0 .147-.078 2.47.078 3.672.078h5.38q1.329 0 1.329-.937v-.079q0-.663-1.094-.937a28 28 0 0 1-1.71.078h-3.671q-2.47 0-6.63-.078-.314-.322-.313-.625v-2.1q0-.38.39-.625m25.176.01h5.469q5.469 0 5.468.479.91.215 2.051 1.982.48 1.426.479 2.05a255 255 0 0 0-.078 4.835q0 1.7-1.114 3.33-1.581 1.503-3.164 1.504-4.14-.078-6.572-.078h-3.73q-2.95 0-4.112-2.852-.244-.976-.244-1.348v-.556q0-.235.078-.235l-.078-.4V4.717q0-2.98 2.217-4.121 1.074-.557 3.33-.557m-1.504 5.625v2.774q0 1.611 1.738 2.138.81.156 2.54.156h3.642q2.09 0 2.695-1.025.48-.78.479-2.539l-.078-.557.078-.713q0-1.836-1.904-2.45a6.5 6.5 0 0 0-.87-.079h-5.468q-2.09 0-2.696 1.426-.156.312-.156.87"/></svg>