<svg width="51" height="48" viewBox="0 0 51 48" fill="none" xmlns="http://www.w3.org/2000/svg">
<path d="M36.8056 4.5022C36.8681 4.49941 36.9307 4.50137 36.9929 4.50806L45.1617 5.47193C45.8102 5.54381 46.274 6.10453 46.1966 6.7229L45.1986 14.5188C45.1219 15.1414 44.5266 15.5842 43.875 15.5032C43.226 15.4256 42.7672 14.8591 42.8523 14.2405L43.5095 9.13989L26.9292 21.5061L26.9385 39.6702L30.7588 36.0344C31.366 35.5094 32.0009 35.6486 32.4171 36.0344C32.8714 36.4727 32.8714 37.1782 32.4171 37.6165L26.5914 43.1741C26.132 43.6074 25.3926 43.6074 24.9331 43.1741L19.1044 37.6165C18.6419 37.1768 18.6419 36.4624 19.1044 36.0227C19.5656 35.5796 20.3169 35.5796 20.7781 36.0227L24.583 39.6526L24.5707 21.5383C19.0856 17.3746 13.5482 13.2639 8.01502 9.14282L8.67221 14.2405C8.75733 14.8591 8.2985 15.4256 7.64957 15.5032C7.00243 15.5771 6.4151 15.1363 6.33826 14.5188L5.3279 6.7229C5.25044 6.10555 5.71256 5.54529 6.35976 5.47193L14.5317 4.50806C15.1799 4.43416 15.7677 4.87673 15.843 5.49536C15.9208 6.10869 15.4657 6.66716 14.8234 6.74634L9.4676 7.37036C14.8946 11.4116 20.3352 15.4479 25.7316 19.5403L42.0539 7.37036L36.7011 6.74634C36.0576 6.66862 35.6007 6.1097 35.6785 5.49536C35.7462 4.94454 36.2246 4.52298 36.8056 4.5022Z" fill="#F0F2F4"/>
</svg>
