<svg width="24" height="24" viewBox="0 0 24 24" fill="none" xmlns="http://www.w3.org/2000/svg">
<g clip-path="url(#clip0_4370_14357)">
<path d="M7.51527 5.00795C7.45972 4.87117 7.36473 4.75402 7.24239 4.67139C7.12005 4.58877 6.9759 4.5444 6.82827 4.54395C6.67791 4.54438 6.53116 4.59013 6.40718 4.67522C6.2832 4.76031 6.18775 4.88079 6.13327 5.02095L4.15627 10.2079C4.127 10.2847 4.11314 10.3665 4.11549 10.4486C4.11784 10.5307 4.13636 10.6115 4.16998 10.6865C4.2036 10.7614 4.25167 10.829 4.31143 10.8854C4.37119 10.9417 4.44148 10.9858 4.51827 11.0149C4.58926 11.0417 4.66443 11.0555 4.74027 11.0559C4.86661 11.056 4.99001 11.0178 5.09424 10.9464C5.19847 10.875 5.27866 10.7738 5.32427 10.6559L5.66327 9.76695H7.97427L8.30927 10.6539C8.33823 10.7308 8.38203 10.8011 8.43818 10.861C8.49434 10.9209 8.56174 10.9692 8.63653 11.003C8.71133 11.0369 8.79206 11.0557 8.87412 11.0583C8.95618 11.0609 9.03795 11.0474 9.11477 11.0184C9.1916 10.9895 9.26196 10.9457 9.32186 10.8895C9.38175 10.8334 9.43 10.766 9.46385 10.6912C9.49769 10.6164 9.51648 10.5357 9.51912 10.4536C9.52177 10.3715 9.50823 10.2898 9.47927 10.2129L7.51527 5.00795ZM6.13927 8.51395L6.82327 6.71395L7.50227 8.51395H6.13927Z" fill="white"/>
<path d="M11.2324 4.54395C11.0667 4.54421 10.9079 4.61014 10.7908 4.7273C10.6736 4.84445 10.6077 5.00327 10.6074 5.16895V10.4309C10.6074 10.5967 10.6733 10.7557 10.7905 10.8729C10.9077 10.9901 11.0667 11.0559 11.2324 11.0559C11.3982 11.0559 11.5572 10.9901 11.6744 10.8729C11.7916 10.7557 11.8574 10.5967 11.8574 10.4309V5.16895C11.8574 5.00319 11.7916 4.84421 11.6744 4.727C11.5572 4.60979 11.3982 4.54395 11.2324 4.54395Z" fill="white"/>
<path d="M19 0H5C3.67441 0.00158786 2.40356 0.528882 1.46622 1.46622C0.528882 2.40356 0.00158786 3.67441 0 5L0 19C0.00158786 20.3256 0.528882 21.5964 1.46622 22.5338C2.40356 23.4711 3.67441 23.9984 5 24H16.343C16.9999 24.0019 17.6507 23.8735 18.2576 23.6222C18.8646 23.3709 19.4157 23.0017 19.879 22.536L22.535 19.878C23.0008 19.4149 23.37 18.864 23.6215 18.2572C23.873 17.6504 24.0016 16.9998 24 16.343V5C23.9984 3.67441 23.4711 2.40356 22.5338 1.46622C21.5964 0.528882 20.3256 0.00158786 19 0V0ZM2 19V5C2 4.20435 2.31607 3.44129 2.87868 2.87868C3.44129 2.31607 4.20435 2 5 2H19C19.7957 2 20.5587 2.31607 21.1213 2.87868C21.6839 3.44129 22 4.20435 22 5V15H18C17.2044 15 16.4413 15.3161 15.8787 15.8787C15.3161 16.4413 15 17.2044 15 18V22H5C4.20435 22 3.44129 21.6839 2.87868 21.1213C2.31607 20.5587 2 19.7957 2 19ZM18.465 21.122C18.063 21.523 17.5547 21.8006 17 21.922V18C17 17.7348 17.1054 17.4804 17.2929 17.2929C17.4804 17.1054 17.7348 17 18 17H21.925C21.8013 17.5535 21.524 18.0609 21.125 18.464L18.465 21.122Z" fill="white"/>
</g>
<defs>
<clipPath id="clip0_4370_14357">
<rect width="24" height="24" fill="white"/>
</clipPath>
</defs>
</svg>
