<svg width="26" height="27" viewBox="0 0 26 27" fill="none" xmlns="http://www.w3.org/2000/svg">
<path d="M23.3787 4.18445L22.5472 4.74002V4.74002L23.3787 4.18445ZM23.3787 18.9809L22.5472 18.4253L22.5472 18.4253L23.3787 18.9809ZM21.8152 20.5443L21.2597 19.7129V19.7129L21.8152 20.5443ZM15.8337 21.4974L15.8293 20.4974C15.2787 20.4998 14.8337 20.9468 14.8337 21.4974H15.8337ZM15.8337 21.4993L16.7281 21.9466C16.7975 21.8077 16.8337 21.6546 16.8337 21.4993H15.8337ZM10.167 21.4993H9.16699C9.16699 21.6546 9.20314 21.8077 9.27256 21.9466L10.167 21.4993ZM10.167 21.4974H11.167C11.167 20.9468 10.7219 20.4998 10.1714 20.4974L10.167 21.4974ZM4.18543 20.5443L4.741 19.7129L4.741 19.7129L4.18543 20.5443ZM2.622 18.9809L3.45347 18.4253L3.45347 18.4253L2.622 18.9809ZM2.622 4.18445L3.45347 4.74002L2.622 4.18445ZM4.18543 2.62102L3.62986 1.78955L3.62986 1.78955L4.18543 2.62102ZM21.8152 2.62102L21.2597 3.45249L21.8152 2.62102ZM25.3337 11.5827C25.3337 9.61384 25.3349 8.06194 25.2091 6.8261C25.0817 5.57354 24.8157 4.53521 24.2101 3.62888L22.5472 4.74002C22.8966 5.26296 23.1081 5.93409 23.2194 7.02851C23.3324 8.13964 23.3337 9.57222 23.3337 11.5827H25.3337ZM24.2101 19.5365C24.8157 18.6302 25.0817 17.5918 25.2091 16.3393C25.3349 15.1034 25.3337 13.5515 25.3337 11.5827H23.3337C23.3337 13.5932 23.3324 15.0257 23.2194 16.1369C23.1081 17.2313 22.8966 17.9024 22.5472 18.4253L24.2101 19.5365ZM22.3708 21.3758C23.0987 20.8894 23.7237 20.2644 24.2101 19.5365L22.5472 18.4253C22.2067 18.9349 21.7692 19.3724 21.2597 19.7129L22.3708 21.3758ZM15.838 22.4974C17.3616 22.4908 18.6075 22.462 19.6394 22.3193C20.6874 22.1745 21.5792 21.9047 22.3708 21.3758L21.2597 19.7129C20.8027 20.0182 20.232 20.2184 19.3656 20.3382C18.483 20.4601 17.3624 20.4907 15.8293 20.4974L15.838 22.4974ZM16.8337 21.4993V21.4974H14.8337V21.4993H16.8337ZM14.7892 25.8244L16.7281 21.9466L14.9392 21.0521L13.0003 24.9299L14.7892 25.8244ZM11.2115 25.8244C11.9485 27.2985 14.0521 27.2985 14.7892 25.8244L13.0003 24.9299L11.2115 25.8244ZM9.27256 21.9466L11.2115 25.8244L13.0003 24.9299L11.0614 21.0521L9.27256 21.9466ZM9.16699 21.4974V21.4993H11.167V21.4974H9.16699ZM3.62986 21.3758C4.42146 21.9047 5.31323 22.1745 6.36122 22.3193C7.39314 22.462 8.63902 22.4908 10.1626 22.4974L10.1714 20.4974C8.63822 20.4907 7.51761 20.4601 6.63508 20.3382C5.76861 20.2184 5.19797 20.0182 4.741 19.7129L3.62986 21.3758ZM1.79053 19.5365C2.27692 20.2644 2.90192 20.8894 3.62986 21.3758L4.741 19.7129C4.23144 19.3724 3.79394 18.9349 3.45347 18.4253L1.79053 19.5365ZM0.666992 11.5827C0.666992 13.5515 0.665783 15.1034 0.791502 16.3393C0.918921 17.5918 1.18494 18.6302 1.79053 19.5365L3.45347 18.4253C3.10405 17.9024 2.89257 17.2313 2.78123 16.1369C2.6682 15.0257 2.66699 13.5932 2.66699 11.5827H0.666992ZM1.79053 3.62888C1.18494 4.53521 0.918921 5.57354 0.791502 6.8261C0.665783 8.06194 0.666992 9.61384 0.666992 11.5827H2.66699C2.66699 9.57222 2.6682 8.13964 2.78123 7.02851C2.89257 5.93409 3.10405 5.26296 3.45347 4.74002L1.79053 3.62888ZM3.62986 1.78955C2.90192 2.27594 2.27692 2.90095 1.79053 3.62888L3.45347 4.74002C3.79394 4.23047 4.23144 3.79296 4.741 3.45249L3.62986 1.78955ZM11.5837 0.666016C9.61482 0.666016 8.06291 0.664807 6.82707 0.790526C5.57452 0.917945 4.53619 1.18396 3.62986 1.78955L4.741 3.45249C5.26393 3.10308 5.93506 2.89159 7.02948 2.78026C8.14061 2.66722 9.57319 2.66602 11.5837 2.66602V0.666016ZM14.417 0.666016H11.5837V2.66602H14.417V0.666016ZM22.3708 1.78955C21.4645 1.18396 20.4261 0.917945 19.1736 0.790526C17.9377 0.664807 16.3858 0.666016 14.417 0.666016V2.66602C16.4275 2.66602 17.86 2.66722 18.9712 2.78026C20.0656 2.89159 20.7367 3.10308 21.2597 3.45249L22.3708 1.78955ZM24.2101 3.62888C23.7237 2.90095 23.0987 2.27594 22.3708 1.78955L21.2597 3.45249C21.7692 3.79296 22.2067 4.23047 22.5472 4.74002L24.2101 3.62888Z" fill="white"/>
<circle cx="18.6667" cy="11.5827" r="1.41667" fill="white" stroke="white" stroke-linecap="round"/>
<circle cx="12.9997" cy="11.5827" r="1.41667" fill="white" stroke="white" stroke-linecap="round"/>
<circle cx="7.33366" cy="11.5827" r="1.41667" fill="white" stroke="white" stroke-linecap="round"/>
</svg>
