<svg width="55" height="47" viewBox="0 0 55 47" fill="none" xmlns="http://www.w3.org/2000/svg">
<path d="M54.8716 13.1725C54.8733 13.1697 54.8755 13.1674 54.8772 13.1646C54.8807 13.1589 54.8834 13.153 54.8869 13.1472C54.8953 13.1331 54.9033 13.1189 54.9108 13.1042C54.9158 13.0944 54.9205 13.0845 54.925 13.0746C54.9314 13.0607 54.9375 13.0467 54.9432 13.0325C54.9477 13.0212 54.9518 13.0098 54.9557 12.9984C54.9601 12.9854 54.9644 12.9724 54.9681 12.959C54.9719 12.9459 54.9753 12.9328 54.9783 12.9195C54.9811 12.9076 54.9836 12.8955 54.9859 12.8834C54.9886 12.8685 54.9909 12.8538 54.9927 12.8389C54.9941 12.8278 54.9955 12.8166 54.9963 12.8053C54.9977 12.7893 54.9984 12.7733 54.9988 12.7572C54.999 12.7503 54.9999 12.7437 54.9999 12.7368C54.9999 12.7327 54.9994 12.7286 54.9993 12.7245C54.999 12.7093 54.9981 12.6941 54.997 12.679C54.9961 12.6667 54.9954 12.6544 54.9939 12.6423C54.9924 12.6298 54.9902 12.6174 54.9882 12.605C54.9858 12.5908 54.9835 12.5765 54.9805 12.5626C54.9783 12.5525 54.9754 12.5425 54.9728 12.5325C54.9687 12.517 54.9647 12.5015 54.9599 12.4864C54.9568 12.4772 54.9532 12.4681 54.9498 12.459C54.9442 12.4438 54.9389 12.4287 54.9324 12.414C54.928 12.4038 54.9228 12.394 54.9179 12.384C54.9115 12.371 54.9055 12.358 54.8985 12.3454C54.8918 12.3334 54.8844 12.3218 54.8771 12.3101C54.8708 12.3001 54.8649 12.29 54.8583 12.2804C54.8494 12.2676 54.8397 12.2552 54.8302 12.2428C54.8239 12.2348 54.818 12.2266 54.8114 12.2187C54.8014 12.2068 54.7907 12.1955 54.7799 12.1841C54.7726 12.1763 54.7655 12.1684 54.7578 12.1608C54.7478 12.151 54.7372 12.1418 54.7266 12.1324C54.7169 12.1238 54.7072 12.1152 54.6971 12.1071C54.6879 12.0997 54.6782 12.0928 54.6686 12.0858C54.656 12.0766 54.6434 12.0676 54.6303 12.0591C54.6269 12.057 54.6239 12.0544 54.6205 12.0523L47.732 7.74705C47.7273 7.74415 47.7225 7.74189 47.7177 7.73909C47.7081 7.73338 47.6988 7.72757 47.689 7.7223C47.683 7.71907 47.6769 7.71605 47.6709 7.71304C47.6612 7.70809 47.6514 7.70357 47.6415 7.69905C47.6337 7.69539 47.6259 7.69162 47.6178 7.68818C47.6122 7.68581 47.6066 7.68376 47.601 7.68161C47.5879 7.67645 47.5748 7.67171 47.5616 7.6673C47.5567 7.66568 47.5522 7.66353 47.5472 7.66202C47.5457 7.66159 47.5442 7.66127 47.5428 7.66084C47.5381 7.65944 47.5334 7.65826 47.5286 7.65686C47.5132 7.65234 47.4978 7.64857 47.4823 7.64502C47.4764 7.64373 47.4706 7.6419 47.4647 7.64071C47.4608 7.63996 47.4569 7.63964 47.4531 7.63888C47.4373 7.63598 47.4216 7.63361 47.4058 7.63156C47.3945 7.63016 47.3832 7.62877 47.3718 7.6278C47.3579 7.62661 47.3441 7.62597 47.3302 7.62554C47.317 7.62511 47.3038 7.62478 47.2906 7.625C47.2786 7.62521 47.2666 7.62586 47.2546 7.62661C47.2498 7.62694 47.2451 7.62694 47.2404 7.62726C47.2373 7.62747 47.2341 7.62737 47.231 7.62769C47.2244 7.62833 47.218 7.62952 47.2115 7.63027C47.2004 7.63156 47.1894 7.63329 47.1783 7.63501C47.1746 7.63555 47.171 7.63598 47.1674 7.63662C47.1624 7.63748 47.1575 7.63781 47.1527 7.63878C47.1466 7.63996 47.1408 7.64168 47.1349 7.64297C47.1238 7.64534 47.1128 7.64825 47.1017 7.65105C47.088 7.6546 47.0743 7.65826 47.0608 7.66256C47.049 7.66633 47.0374 7.67053 47.0258 7.67483C47.0171 7.67795 47.0084 7.68064 47 7.68409C46.9965 7.68549 46.993 7.68742 46.9895 7.68893C46.9769 7.69421 46.9646 7.70013 46.9524 7.70605C46.944 7.71014 46.9353 7.7139 46.9271 7.71821C46.9262 7.71864 46.9252 7.71896 46.9244 7.7195L34.5934 14.296L27.2636 5.33739C27.2633 5.33695 27.2629 5.33663 27.2626 5.3362C27.2603 5.3334 27.2579 5.33071 27.2556 5.32791C27.2499 5.32113 27.2436 5.315 27.2377 5.30843C27.2263 5.29573 27.2149 5.28292 27.2026 5.27098C27.1955 5.26398 27.1877 5.25763 27.1802 5.25096C27.1685 5.2403 27.157 5.22954 27.1446 5.21953C27.1329 5.21016 27.1204 5.20166 27.1082 5.19284C27.1073 5.19219 27.1064 5.19144 27.1054 5.19079C27.0973 5.18509 27.0896 5.17884 27.0813 5.17335C27.0689 5.16517 27.0557 5.15807 27.0428 5.15054C27.033 5.14483 27.0234 5.1387 27.0134 5.13342C27.0013 5.12707 26.9886 5.1218 26.9762 5.11609C26.9646 5.11082 26.9533 5.10501 26.9416 5.10027C26.9304 5.09575 26.9188 5.0922 26.9073 5.08822C26.8936 5.08337 26.88 5.07831 26.8662 5.07422C26.8644 5.07369 26.8627 5.07293 26.861 5.0725C26.8487 5.06895 26.8364 5.0668 26.8242 5.06389C26.8131 5.06131 26.8021 5.0583 26.7908 5.05614C26.7861 5.05528 26.7815 5.05421 26.7767 5.05334L2.67121 0.748383C2.66325 0.746984 2.65539 0.746553 2.64743 0.745369C2.6329 0.743217 2.61847 0.741172 2.60394 0.739773C2.5906 0.738481 2.57747 0.737835 2.56423 0.737297C2.55163 0.736759 2.53904 0.736328 2.52645 0.736328C2.51203 0.736328 2.49771 0.736866 2.4834 0.737727C2.47177 0.738373 2.46004 0.739234 2.44842 0.740311C2.43399 0.74171 2.41968 0.743647 2.40547 0.745907C2.39363 0.747737 2.3819 0.749782 2.37017 0.752042C2.3566 0.754733 2.34326 0.757855 2.32991 0.761299C2.31753 0.76442 2.30516 0.767865 2.29289 0.771632C2.28051 0.775399 2.26845 0.779489 2.25629 0.783902C2.24348 0.78853 2.23089 0.793373 2.2183 0.798647C2.20667 0.803491 2.19537 0.808764 2.18396 0.814146C2.17169 0.819958 2.15953 0.825986 2.14748 0.832444C2.13574 0.838794 2.12433 0.845467 2.11303 0.852356C2.10216 0.858921 2.09129 0.865595 2.08064 0.872698C2.06815 0.881094 2.0561 0.889919 2.04415 0.89896C2.03791 0.903696 2.03123 0.907786 2.0251 0.912737C2.02219 0.914997 2.01982 0.917581 2.01692 0.919949C2.00486 0.929851 1.99335 0.940399 1.98183 0.951054C1.97354 0.958696 1.96504 0.966231 1.95707 0.974195C1.94674 0.984528 1.93716 0.995507 1.92737 1.00638C1.9193 1.01542 1.91101 1.02424 1.90347 1.0335C1.89486 1.04405 1.8869 1.05524 1.87883 1.06633C1.87129 1.07655 1.86354 1.08667 1.85655 1.09711C1.84923 1.1082 1.84266 1.11971 1.83588 1.13123C1.82921 1.14242 1.82232 1.1534 1.81629 1.16481C1.81026 1.17622 1.80499 1.18817 1.7995 1.1999C1.7938 1.21206 1.78788 1.22412 1.78282 1.23649C1.77808 1.2479 1.77421 1.25974 1.77001 1.27147C1.76527 1.28482 1.76032 1.29817 1.75634 1.31173C1.753 1.32292 1.75031 1.33455 1.74741 1.34606C1.74375 1.3607 1.74009 1.37523 1.73729 1.38998C1.73654 1.39375 1.73535 1.3974 1.73471 1.40117C1.7332 1.40935 1.73277 1.41742 1.73159 1.4256C1.72954 1.43981 1.7275 1.45402 1.7262 1.46833C1.72491 1.48168 1.72427 1.49492 1.72373 1.50816C1.72319 1.52086 1.72276 1.53356 1.72276 1.54626C1.72276 1.56047 1.72341 1.57457 1.72416 1.58867C1.7248 1.60061 1.72567 1.61245 1.72685 1.6244C1.72825 1.63861 1.73019 1.6526 1.73234 1.66659C1.73417 1.67865 1.73632 1.6907 1.73869 1.70265C1.74138 1.716 1.74439 1.72913 1.74784 1.74226C1.75107 1.75485 1.75451 1.76734 1.75828 1.77982C1.76205 1.79198 1.76614 1.80404 1.77044 1.81599C1.77507 1.82879 1.77991 1.8416 1.78519 1.8542C1.79003 1.86571 1.7952 1.87712 1.80058 1.88842C1.80639 1.90069 1.81242 1.91285 1.81887 1.92491C1.82512 1.93664 1.8319 1.94794 1.83868 1.95935C1.84524 1.97033 1.85192 1.9812 1.85913 1.99186C1.86742 2.00423 1.87624 2.01618 1.88518 2.02802C1.88991 2.03437 1.894 2.04104 1.89906 2.04729L7.04947 8.4853H0.807241C0.799922 8.4853 0.792926 8.48616 0.785714 8.48638C0.770861 8.48681 0.756008 8.48745 0.741155 8.48864C0.728131 8.48971 0.715215 8.49122 0.702407 8.49284C0.689814 8.49445 0.677221 8.49639 0.664736 8.49854C0.650528 8.50102 0.636536 8.50403 0.622652 8.50726C0.611458 8.50984 0.600372 8.51275 0.589286 8.51587C0.574971 8.51985 0.560978 8.52416 0.546986 8.529C0.536115 8.53266 0.525352 8.53664 0.514589 8.54084C0.50135 8.54601 0.488327 8.55139 0.475519 8.5572C0.46411 8.56237 0.452808 8.56786 0.441615 8.57356C0.430098 8.57948 0.418689 8.58551 0.407495 8.59196C0.395548 8.59875 0.383816 8.60596 0.372192 8.61338C0.362182 8.61984 0.352387 8.62641 0.342701 8.63319C0.330861 8.64148 0.319344 8.65019 0.307935 8.65923C0.298679 8.66655 0.289746 8.67398 0.28092 8.68162C0.270264 8.69088 0.259716 8.70035 0.249491 8.71014C0.240127 8.71908 0.231194 8.72823 0.22226 8.73759C0.213434 8.74685 0.204824 8.75632 0.196429 8.76611C0.186634 8.77752 0.17727 8.78925 0.168121 8.8012C0.163708 8.80691 0.158973 8.81196 0.154667 8.81778C0.152192 8.82122 0.150254 8.82477 0.147886 8.82822C0.13863 8.84135 0.130127 8.8548 0.121624 8.86836C0.11592 8.87762 0.11 8.88688 0.104726 8.89624C0.0972994 8.90948 0.0905186 8.92304 0.0837378 8.93671C0.0785714 8.94715 0.0732975 8.95759 0.0685617 8.96814C0.0629648 8.98084 0.0581213 8.99386 0.0531703 9.00689C0.0486497 9.01883 0.0439139 9.03078 0.0399315 9.04294C0.0360568 9.05489 0.0328278 9.06716 0.0294912 9.07943C0.0257241 9.09299 0.0219569 9.10655 0.0190509 9.12022C0.0165753 9.13153 0.0148532 9.14304 0.0128082 9.15445C0.0102251 9.16941 0.00764188 9.18437 0.00591977 9.19944C0.00462818 9.21031 0.00398239 9.22129 0.00322896 9.23238C0.00204501 9.2482 0.00107632 9.26413 0.000861057 9.27995C0.000538161 9.28415 0 9.28824 0 9.29254C0 9.29986 0.000861057 9.30686 0.00107632 9.31407C0.00150685 9.32892 0.00204501 9.34377 0.0033366 9.35863C0.00441292 9.37165 0.00591977 9.38446 0.00753425 9.39738C0.00914873 9.41008 0.0110861 9.42267 0.0133464 9.43515C0.0158219 9.44925 0.0188356 9.46325 0.0220646 9.47713C0.0247554 9.48843 0.0275538 9.49963 0.0306751 9.51071C0.0346575 9.52492 0.0389628 9.5388 0.0436986 9.55269C0.0474658 9.56378 0.0514481 9.57465 0.0557534 9.58552C0.0608121 9.59854 0.0661937 9.61146 0.0718982 9.62416C0.0771722 9.63578 0.0827691 9.6473 0.0884736 9.65871C0.0942857 9.67001 0.100205 9.6812 0.106448 9.69218C0.113337 9.70434 0.120763 9.71629 0.128297 9.72813C0.13454 9.73792 0.140998 9.74761 0.147671 9.75708C0.156067 9.76903 0.164892 9.78076 0.174041 9.79228C0.181252 9.80132 0.188571 9.81025 0.196106 9.81897C0.205362 9.82973 0.214941 9.84028 0.224951 9.85062C0.233777 9.85987 0.242926 9.8688 0.25229 9.87763C0.261654 9.88646 0.271018 9.89517 0.28092 9.90368C0.292329 9.91347 0.304061 9.92273 0.3159 9.93188C0.321605 9.93629 0.326663 9.94102 0.332583 9.94533L18.878 23.4329L15.5102 45.3238C15.5098 45.3264 15.5095 45.329 15.509 45.3316L15.5086 45.3342C15.5081 45.3376 15.5081 45.3408 15.5076 45.3441C15.5044 45.3671 15.5018 45.39 15.5005 45.4128C15.5 45.4218 15.5003 45.4307 15.5001 45.4396C15.4998 45.4567 15.4993 45.4738 15.5 45.4908C15.5005 45.5042 15.502 45.5172 15.5032 45.5303C15.5044 45.5428 15.5052 45.5553 15.5069 45.5677C15.509 45.5831 15.5122 45.5982 15.5152 45.6134C15.5172 45.6235 15.5188 45.6338 15.5213 45.6438C15.525 45.6593 15.5296 45.6743 15.5341 45.6895C15.537 45.6993 15.5397 45.7091 15.543 45.7188C15.5479 45.7328 15.5535 45.7465 15.5591 45.7602C15.5634 45.7709 15.5675 45.7817 15.5723 45.7921C15.5777 45.8038 15.5837 45.8152 15.5896 45.8266C15.5959 45.8387 15.6019 45.8508 15.6087 45.8625C15.6142 45.872 15.6203 45.881 15.6261 45.8903C15.6343 45.9032 15.6425 45.9161 15.6515 45.9286C15.6572 45.9364 15.6634 45.944 15.6693 45.9516C15.6793 45.9645 15.6893 45.9773 15.7002 45.9897C15.7066 45.997 15.7136 46.0039 15.7203 46.0111C15.7313 46.0227 15.7422 46.0344 15.7539 46.0453C15.7626 46.0535 15.772 46.0612 15.7811 46.069C15.7915 46.078 15.8017 46.087 15.8126 46.0954C15.8258 46.1057 15.8398 46.1151 15.8538 46.1246C15.8614 46.1297 15.8686 46.1352 15.8764 46.1401C15.8959 46.1523 15.9161 46.1635 15.9368 46.1742C15.9397 46.1757 15.9423 46.1774 15.9452 46.1789C15.9455 46.179 15.9458 46.1791 15.9461 46.1794C15.9734 46.1929 16.0014 46.205 16.0304 46.2155C16.0376 46.2181 16.0449 46.2199 16.0521 46.2223C16.0719 46.2289 16.092 46.2351 16.1125 46.2402C16.1261 46.2435 16.1396 46.2459 16.1532 46.2486C16.1633 46.2505 16.1731 46.2532 16.1835 46.2548C16.1869 46.2553 16.1902 46.2551 16.1937 46.2556C16.231 46.2608 16.2684 46.2644 16.3056 46.2644C16.306 46.2644 16.3065 46.2643 16.3068 46.2643H16.3072C16.3406 46.2643 16.3734 46.2615 16.406 46.2574C16.4125 46.2565 16.4188 46.2558 16.4253 46.2548C16.4919 46.2449 16.5563 46.2267 16.6172 46.2012C16.6231 46.1987 16.6289 46.1964 16.6348 46.1938C16.6642 46.1806 16.693 46.166 16.7206 46.1494C16.7257 46.1464 16.7304 46.143 16.7354 46.1399C16.7586 46.1252 16.781 46.1094 16.8027 46.0926C16.8091 46.0877 16.8156 46.0828 16.8218 46.0776C16.8458 46.0577 16.8686 46.0363 16.8903 46.0136C16.8957 46.0079 16.9008 46.002 16.9061 45.9962C16.9278 45.9721 16.9485 45.9469 16.9673 45.9202C16.9679 45.9193 16.9686 45.9186 16.9692 45.9178C16.9895 45.8885 17.0075 45.8575 17.024 45.8255C17.0252 45.8229 17.0271 45.8206 17.0284 45.818L22.9246 34.0255L42.4599 25.532C42.4652 25.5297 42.4699 25.5268 42.4751 25.5244C42.4907 25.5172 42.5061 25.5097 42.5212 25.5015C42.5226 25.5008 42.5242 25.5001 42.5257 25.4994C42.5281 25.4981 42.5306 25.4971 42.5331 25.4957C42.5387 25.4926 42.5438 25.4888 42.5494 25.4856C42.5616 25.4784 42.5737 25.4708 42.5854 25.463C42.5931 25.4578 42.601 25.453 42.6085 25.4476C42.6114 25.4455 42.6141 25.4432 42.617 25.441C42.6259 25.4346 42.6345 25.4278 42.643 25.4209C42.645 25.4193 42.6474 25.4182 42.6494 25.4165C42.6515 25.4148 42.6533 25.4128 42.6554 25.4111C42.6629 25.4049 42.6701 25.3985 42.6773 25.3919C42.6844 25.3855 42.6913 25.3788 42.6982 25.3722C42.6986 25.3718 42.6991 25.3715 42.6995 25.3711C42.7025 25.3682 42.7057 25.3657 42.7087 25.3627C42.711 25.3604 42.713 25.358 42.7153 25.3558C42.7207 25.3502 42.726 25.3446 42.7312 25.3389C42.7379 25.3316 42.7443 25.324 42.7507 25.3165C42.757 25.3093 42.7634 25.3022 42.7693 25.2947C42.7728 25.2904 42.776 25.2861 42.7794 25.2818C42.782 25.2784 42.7847 25.2749 42.7873 25.2715C42.7901 25.2676 42.7926 25.2635 42.7954 25.2597C42.7962 25.2585 42.797 25.2572 42.7979 25.256C42.8041 25.2472 42.8106 25.2385 42.8164 25.2294C42.8182 25.2265 42.82 25.2237 42.8219 25.2208C42.8281 25.2108 42.8338 25.2005 42.8396 25.1902C42.8451 25.1805 42.8508 25.1711 42.8559 25.1613C42.8561 25.1609 42.8564 25.1604 42.8566 25.1599C42.8574 25.1584 42.8581 25.1569 42.8589 25.1554C42.8647 25.1438 42.8699 25.1318 42.8751 25.12C42.8794 25.1103 42.8841 25.1007 42.8879 25.0908C42.8886 25.0892 42.8893 25.0876 42.89 25.0859C42.8949 25.0732 42.899 25.0602 42.9033 25.0472C42.904 25.0454 42.9046 25.0435 42.9053 25.0417C42.906 25.0393 42.9073 25.0372 42.9081 25.0348L42.9113 25.0245C42.9114 25.0243 42.9114 25.024 42.9115 25.0238L46.5367 13.5442H54.1907C54.1913 13.5442 54.1918 13.5443 54.1922 13.5443C54.1941 13.5443 54.1959 13.544 54.1977 13.544C54.2275 13.5438 54.2568 13.5419 54.2858 13.5385C54.2939 13.5376 54.302 13.536 54.3101 13.5349C54.3335 13.5314 54.3566 13.5272 54.3793 13.5218C54.3877 13.5199 54.396 13.5176 54.4043 13.5154C54.4275 13.5091 54.4502 13.5018 54.4725 13.4935C54.4795 13.4909 54.4866 13.4886 54.4936 13.4858C54.5225 13.4742 54.5509 13.4613 54.5781 13.4466C54.5787 13.4463 54.5794 13.4457 54.58 13.4454C54.6057 13.4313 54.6304 13.4156 54.6544 13.3988C54.6634 13.3925 54.6722 13.3857 54.6809 13.379C54.6969 13.3668 54.7124 13.3541 54.7274 13.3409C54.736 13.3333 54.7446 13.3257 54.7529 13.3177C54.7728 13.2985 54.7917 13.2785 54.8095 13.2574C54.8115 13.255 54.8137 13.253 54.8157 13.2506C54.836 13.2256 54.8543 13.1994 54.8716 13.1725ZM45.9389 10.0746L41.8177 23.1253L35.6358 15.5696L45.9389 10.0746ZM4.50074 2.71504L25.5214 6.46871L19.5155 21.4834L4.50074 2.71504ZM40.318 23.8419L20.9082 22.3489L26.8805 7.41824L40.318 23.8419ZM22.8857 32.2819L20.8053 23.9602L38.8356 25.3472L22.8857 32.2819ZM21.4781 33.3082L17.8871 40.4902L19.9391 27.152L21.4781 33.3082ZM15.369 18.8848L3.28967 10.0998H8.34106L15.369 18.8848ZM47.7602 9.66839L51.3781 11.9295H47.0462L47.7602 9.66839Z" fill="#222222"/>
</svg>
