<svg width="73" height="65" viewBox="0 0 73 65" fill="none" xmlns="http://www.w3.org/2000/svg">
<g clip-path="url(#clip0_6126_431)">
<g opacity="0.9">
<path d="M72.7799 42.1562C73.4464 32.86 57.7419 24.1426 37.703 22.6853C17.6641 21.2279 0.879073 27.5825 0.212605 36.8787C-0.453862 46.1749 15.2506 54.8923 35.2895 56.3497C55.3284 57.807 72.1135 51.4524 72.7799 42.1562Z" stroke="url(#paint0_linear_6126_431)" stroke-width="0.8" stroke-miterlimit="10"/>
<path d="M71.4469 40.2152C71.7084 31.1264 56.0351 23.2948 36.4396 22.7229C16.8441 22.1509 0.746765 29.0551 0.485244 38.1439C0.223723 47.2327 15.897 55.0643 35.4925 55.6362C55.0881 56.2082 71.1854 49.3039 71.4469 40.2152Z" stroke="url(#paint1_linear_6126_431)" stroke-width="0.8" stroke-miterlimit="10"/>
<path d="M35.7101 54.9319C54.859 54.6189 70.2662 47.1643 70.123 38.2817C69.9799 29.3991 54.3406 22.4521 35.1917 22.7652C16.0428 23.0782 0.635588 30.5328 0.778752 39.4154C0.921916 48.298 16.5612 55.245 35.7101 54.9319Z" stroke="url(#paint2_linear_6126_431)" stroke-width="0.8" stroke-miterlimit="10"/>
<path d="M35.9143 54.2218C54.6186 53.0234 69.3373 45.0183 68.7892 36.3418C68.2412 27.6654 52.6341 21.6033 33.9297 22.8017C15.2254 24.0002 0.50676 32.0053 1.05478 40.6817C1.6028 49.3581 17.2099 55.4203 35.9143 54.2218Z" stroke="url(#paint3_linear_6126_431)" stroke-width="0.8" stroke-miterlimit="10"/>
<path d="M36.1176 53.5152C54.3796 51.4326 68.4121 42.8788 67.46 34.4098C66.5079 25.9408 50.9318 20.7637 32.6698 22.8463C14.4078 24.9289 0.375344 33.4827 1.32744 41.9517C2.27954 50.4207 17.8556 55.5979 36.1176 53.5152Z" stroke="url(#paint4_linear_6126_431)" stroke-width="0.8" stroke-miterlimit="10"/>
<path d="M36.3178 52.814C54.1341 49.8466 67.477 40.7413 66.1201 32.4769C64.7631 24.2125 49.2201 19.9184 31.4038 22.8858C13.5875 25.8532 0.244555 34.9584 1.6015 43.2229C2.95845 51.4873 18.5014 55.7814 36.3178 52.814Z" stroke="url(#paint5_linear_6126_431)" stroke-width="0.8" stroke-miterlimit="10"/>
<path d="M36.5267 52.1029C53.8994 48.2495 66.5548 38.5948 64.7932 30.5386C63.0316 22.4825 47.5202 19.0755 30.1475 22.9289C12.7748 26.7824 0.11944 36.4371 1.88101 44.4932C3.64258 52.5494 19.154 55.9564 36.5267 52.1029Z" stroke="url(#paint6_linear_6126_431)" stroke-width="0.8" stroke-miterlimit="10"/>
<path d="M36.7318 51.3992C53.6586 46.6617 65.6244 36.4563 63.4582 28.605C61.2919 20.7536 45.8139 18.2293 28.887 22.9669C11.9602 27.7044 -0.00561795 37.9097 2.16064 45.7611C4.3269 53.6125 19.8049 56.1367 36.7318 51.3992Z" stroke="url(#paint7_linear_6126_431)" stroke-width="0.8" stroke-miterlimit="10"/>
<path d="M36.9389 50.6835C53.4197 45.0586 64.6953 34.3026 62.1236 26.6592C59.552 19.0159 44.107 17.3797 27.6262 23.0046C11.1455 28.6295 -0.130119 39.3856 2.44152 47.0289C5.01316 54.6722 20.4582 56.3085 36.9389 50.6835Z" stroke="url(#paint8_linear_6126_431)" stroke-width="0.8" stroke-miterlimit="10"/>
<path d="M37.1476 49.9786C53.1852 43.4689 63.7736 32.1625 60.7976 24.725C57.8216 17.2876 42.408 16.5355 26.3705 23.0452C10.333 29.5549 -0.255429 40.8613 2.72059 48.2987C5.69661 55.7362 21.1101 56.4883 37.1476 49.9786Z" stroke="url(#paint9_linear_6126_431)" stroke-width="0.8" stroke-miterlimit="10"/>
<path d="M37.3533 49.2782C52.9462 41.8848 62.846 30.0278 59.4652 22.7949C56.0844 15.562 40.7032 15.6922 25.1103 23.0856C9.51746 30.4791 -0.382357 42.3361 2.99846 49.5689C6.37927 56.8018 21.7605 56.6717 37.3533 49.2782Z" stroke="url(#paint10_linear_6126_431)" stroke-width="0.8" stroke-miterlimit="10"/>
<path d="M37.5614 48.5654C52.7087 40.2855 61.9187 27.8774 58.1325 20.8512C54.3464 13.825 38.9978 14.8413 23.8505 23.1212C8.70315 31.4011 -0.506884 43.8091 3.27927 50.8354C7.06543 57.8616 22.414 56.8453 37.5614 48.5654Z" stroke="url(#paint11_linear_6126_431)" stroke-width="0.8" stroke-miterlimit="10"/>
<path d="M37.7631 47.8587C52.4665 38.6946 60.9897 25.738 56.8002 18.9193C52.6107 12.1006 37.295 14.0018 22.5916 23.1658C7.8882 32.3299 -0.634994 45.2865 3.5545 52.1052C7.744 58.9239 23.0597 57.0227 37.7631 47.8587Z" stroke="url(#paint12_linear_6126_431)" stroke-width="0.8" stroke-miterlimit="10"/>
<path d="M37.9736 47.1458C52.2319 37.0941 60.0657 23.5859 55.4709 16.9743C50.8762 10.3627 35.5927 13.1515 21.3345 23.2032C7.07619 33.2548 -0.757623 46.7631 3.83715 53.3746C8.43192 59.9862 23.7153 57.1974 37.9736 47.1458Z" stroke="url(#paint13_linear_6126_431)" stroke-width="0.8" stroke-miterlimit="10"/>
<path d="M38.174 46.4334C51.9879 35.4967 59.133 21.4372 54.1329 15.0307C49.1328 8.62424 33.881 12.2967 20.067 23.2334C6.2531 34.1702 -0.891931 48.2296 4.10817 54.6361C9.10827 61.0426 24.3601 57.3702 38.174 46.4334Z" stroke="url(#paint14_linear_6126_431)" stroke-width="0.8" stroke-miterlimit="10"/>
<path d="M38.3749 45.7311C51.7453 33.9089 58.2037 19.2997 52.8001 13.1004C47.3966 6.90119 32.1773 11.4595 18.8069 23.2816C5.4365 35.1038 -1.0219 49.713 4.38166 55.9122C9.78522 62.1115 25.0045 57.5532 38.3749 45.7311Z" stroke="url(#paint15_linear_6126_431)" stroke-width="0.8" stroke-miterlimit="10"/>
<path d="M38.5794 45.0208C51.5033 32.314 57.272 17.1554 51.4642 11.1632C45.6563 5.17108 30.4712 10.6144 17.5473 23.3213C4.62338 36.0282 -1.14531 51.1867 4.66256 57.1789C10.4704 63.171 25.6555 57.7277 38.5794 45.0208Z" stroke="url(#paint16_linear_6126_431)" stroke-width="0.8" stroke-miterlimit="10"/>
<path d="M38.7894 44.3133C51.2691 30.7208 56.3491 15.0109 50.136 9.22432C43.9229 3.43773 28.7694 9.76571 16.2898 23.3582C3.81011 36.9508 -1.26992 52.6607 4.9432 58.4473C11.1563 64.2339 26.3098 57.9059 38.7894 44.3133Z" stroke="url(#paint17_linear_6126_431)" stroke-width="0.8" stroke-miterlimit="10"/>
<path d="M38.9922 43.6047C51.0279 29.1274 55.4212 12.8681 48.8049 7.28845C42.1887 1.7088 27.0683 8.92172 15.0327 23.399C2.99705 37.8762 -1.39624 54.1355 5.22 59.7152C11.8362 65.2948 26.9566 58.0819 38.9922 43.6047Z" stroke="url(#paint18_linear_6126_431)" stroke-width="0.8" stroke-miterlimit="10"/>
<path d="M39.1957 42.892C50.7859 27.5296 54.4901 10.7201 47.4692 5.34695C40.4484 -0.0262423 25.3612 8.07159 13.771 23.434C2.18085 38.7963 -1.52333 55.6058 5.4975 60.979C12.5183 66.3522 27.6055 58.2544 39.1957 42.892Z" stroke="url(#paint19_linear_6126_431)" stroke-width="0.8" stroke-miterlimit="10"/>
<path d="M39.4026 42.185C50.5473 25.9383 53.5624 8.57908 46.1371 3.41223C38.7118 -1.75462 23.6578 7.22743 12.5132 23.4742C1.36851 39.721 -1.64661 57.0802 5.7787 62.247C13.204 67.4139 28.2579 58.4318 39.4026 42.185Z" stroke="url(#paint20_linear_6126_431)" stroke-width="0.8" stroke-miterlimit="10"/>
<path d="M39.6097 41.4886C50.3127 24.3573 52.6417 6.4468 44.8116 1.48439C36.9815 -3.47802 21.9575 6.38682 11.2545 23.5181C0.551491 40.6494 -1.77747 58.5599 6.05261 63.5223C13.8827 68.4848 28.9067 58.6199 39.6097 41.4886Z" stroke="url(#paint21_linear_6126_431)" stroke-width="0.8" stroke-miterlimit="10"/>
</g>
</g>
<defs>
<linearGradient id="paint0_linear_6126_431" x1="-0.971724" y1="53.3981" x2="5.88758" y2="13.5053" gradientUnits="userSpaceOnUse">
<stop stop-color="#8258C8"/>
<stop offset="0.315" stop-color="#6766C8"/>
<stop offset="1" stop-color="#2C84C8"/>
</linearGradient>
<linearGradient id="paint1_linear_6126_431" x1="0.0205074" y1="54.2947" x2="5.0169" y2="15.1195" gradientUnits="userSpaceOnUse">
<stop stop-color="#8258C8"/>
<stop offset="0.315" stop-color="#6766C8"/>
<stop offset="1" stop-color="#2C84C8"/>
</linearGradient>
<linearGradient id="paint2_linear_6126_431" x1="1.164" y1="23.3215" x2="70.8826" y2="53.7249" gradientUnits="userSpaceOnUse">
<stop stop-color="#8258C8"/>
<stop offset="0.315" stop-color="#6766C8"/>
<stop offset="1" stop-color="#2C84C8"/>
</linearGradient>
<linearGradient id="paint3_linear_6126_431" x1="0.692005" y1="24.9313" x2="70.2284" y2="51.4363" gradientUnits="userSpaceOnUse">
<stop stop-color="#8258C8"/>
<stop offset="0.315" stop-color="#6766C8"/>
<stop offset="1" stop-color="#2C84C8"/>
</linearGradient>
<linearGradient id="paint4_linear_6126_431" x1="0.218133" y1="26.5471" x2="69.5753" y2="49.1715" gradientUnits="userSpaceOnUse">
<stop stop-color="#8258C8"/>
<stop offset="0.315" stop-color="#6766C8"/>
<stop offset="1" stop-color="#2C84C8"/>
</linearGradient>
<linearGradient id="paint5_linear_6126_431" x1="-0.255851" y1="28.1589" x2="68.9247" y2="46.8879" gradientUnits="userSpaceOnUse">
<stop stop-color="#8258C8"/>
<stop offset="0.315" stop-color="#6766C8"/>
<stop offset="1" stop-color="#2C84C8"/>
</linearGradient>
<linearGradient id="paint6_linear_6126_431" x1="-0.723906" y1="29.7766" x2="68.2828" y2="44.626" gradientUnits="userSpaceOnUse">
<stop stop-color="#8258C8"/>
<stop offset="0.315" stop-color="#6766C8"/>
<stop offset="1" stop-color="#2C84C8"/>
</linearGradient>
<linearGradient id="paint7_linear_6126_431" x1="-1.19204" y1="31.3855" x2="67.6439" y2="42.3489" gradientUnits="userSpaceOnUse">
<stop stop-color="#8258C8"/>
<stop offset="0.315" stop-color="#6766C8"/>
<stop offset="1" stop-color="#2C84C8"/>
</linearGradient>
<linearGradient id="paint8_linear_6126_431" x1="-1.66018" y1="33.0001" x2="67.0084" y2="40.0777" gradientUnits="userSpaceOnUse">
<stop stop-color="#8258C8"/>
<stop offset="0.315" stop-color="#6766C8"/>
<stop offset="1" stop-color="#2C84C8"/>
</linearGradient>
<linearGradient id="paint9_linear_6126_431" x1="-2.12822" y1="34.6129" x2="66.3866" y2="37.818" gradientUnits="userSpaceOnUse">
<stop stop-color="#8258C8"/>
<stop offset="0.315" stop-color="#6766C8"/>
<stop offset="1" stop-color="#2C84C8"/>
</linearGradient>
<linearGradient id="paint10_linear_6126_431" x1="-2.59826" y1="36.2238" x2="65.7656" y2="35.5515" gradientUnits="userSpaceOnUse">
<stop stop-color="#8258C8"/>
<stop offset="0.315" stop-color="#6766C8"/>
<stop offset="1" stop-color="#2C84C8"/>
</linearGradient>
<linearGradient id="paint11_linear_6126_431" x1="-3.06638" y1="37.8346" x2="65.151" y2="33.2795" gradientUnits="userSpaceOnUse">
<stop stop-color="#8258C8"/>
<stop offset="0.315" stop-color="#6766C8"/>
<stop offset="1" stop-color="#2C84C8"/>
</linearGradient>
<linearGradient id="paint12_linear_6126_431" x1="-3.5364" y1="39.4504" x2="64.5408" y2="31.0283" gradientUnits="userSpaceOnUse">
<stop stop-color="#8258C8"/>
<stop offset="0.315" stop-color="#6766C8"/>
<stop offset="1" stop-color="#2C84C8"/>
</linearGradient>
<linearGradient id="paint13_linear_6126_431" x1="-4.00255" y1="41.065" x2="63.9433" y2="28.7564" gradientUnits="userSpaceOnUse">
<stop stop-color="#8258C8"/>
<stop offset="0.315" stop-color="#6766C8"/>
<stop offset="1" stop-color="#2C84C8"/>
</linearGradient>
<linearGradient id="paint14_linear_6126_431" x1="-4.4804" y1="42.668" x2="63.3397" y2="26.4729" gradientUnits="userSpaceOnUse">
<stop stop-color="#8258C8"/>
<stop offset="0.315" stop-color="#6766C8"/>
<stop offset="1" stop-color="#2C84C8"/>
</linearGradient>
<linearGradient id="paint15_linear_6126_431" x1="-4.95236" y1="44.2896" x2="62.7479" y2="24.2154" gradientUnits="userSpaceOnUse">
<stop stop-color="#8258C8"/>
<stop offset="0.315" stop-color="#6766C8"/>
<stop offset="1" stop-color="#2C84C8"/>
</linearGradient>
<linearGradient id="paint16_linear_6126_431" x1="-5.41856" y1="45.9014" x2="62.1552" y2="21.9348" gradientUnits="userSpaceOnUse">
<stop stop-color="#8258C8"/>
<stop offset="0.315" stop-color="#6766C8"/>
<stop offset="1" stop-color="#2C84C8"/>
</linearGradient>
<linearGradient id="paint17_linear_6126_431" x1="-5.88664" y1="47.5123" x2="61.5733" y2="19.6463" gradientUnits="userSpaceOnUse">
<stop stop-color="#8258C8"/>
<stop offset="0.315" stop-color="#6766C8"/>
<stop offset="1" stop-color="#2C84C8"/>
</linearGradient>
<linearGradient id="paint18_linear_6126_431" x1="-6.3547" y1="49.1251" x2="60.9926" y2="17.3668" gradientUnits="userSpaceOnUse">
<stop stop-color="#8258C8"/>
<stop offset="0.315" stop-color="#6766C8"/>
<stop offset="1" stop-color="#2C84C8"/>
</linearGradient>
<linearGradient id="paint19_linear_6126_431" x1="-6.82477" y1="50.733" x2="60.4067" y2="15.0676" gradientUnits="userSpaceOnUse">
<stop stop-color="#8258C8"/>
<stop offset="0.315" stop-color="#6766C8"/>
<stop offset="1" stop-color="#2C84C8"/>
</linearGradient>
<linearGradient id="paint20_linear_6126_431" x1="-7.29094" y1="52.3448" x2="59.8238" y2="12.7692" gradientUnits="userSpaceOnUse">
<stop stop-color="#8258C8"/>
<stop offset="0.315" stop-color="#6766C8"/>
<stop offset="1" stop-color="#2C84C8"/>
</linearGradient>
<linearGradient id="paint21_linear_6126_431" x1="-7.76479" y1="53.9605" x2="59.2469" y2="10.4756" gradientUnits="userSpaceOnUse">
<stop stop-color="#8258C8"/>
<stop offset="0.315" stop-color="#6766C8"/>
<stop offset="1" stop-color="#2C84C8"/>
</linearGradient>
<clipPath id="clip0_6126_431">
<rect width="73" height="65" fill="white"/>
</clipPath>
</defs>
</svg>
