<svg width="48" height="48" viewBox="0 0 48 48" fill="none" xmlns="http://www.w3.org/2000/svg">
<path d="M34.5369 4.5022C34.5965 4.49941 34.6563 4.50137 34.7156 4.50806L42.5086 5.47193C43.1272 5.54381 43.5697 6.10453 43.4959 6.7229L42.5437 14.5188C42.4706 15.1414 41.9027 15.5842 41.281 15.5032C40.6619 15.4256 40.2242 14.8591 40.3054 14.2405L40.9324 9.13989L25.115 21.5061L25.1238 39.6702L28.7683 36.0344C29.3476 35.5094 29.9533 35.6486 30.3504 36.0344C30.7838 36.4727 30.7838 37.1782 30.3504 37.6165L24.7927 43.1741C24.3544 43.6074 23.649 43.6074 23.2107 43.1741L17.6502 37.6165C17.209 37.1768 17.209 36.4624 17.6502 36.0227C18.0901 35.5796 18.8069 35.5796 19.2468 36.0227L22.8767 39.6526L22.865 21.5383C17.6322 17.3746 12.3496 13.2639 7.07106 9.14282L7.69801 14.2405C7.77921 14.8591 7.3415 15.4256 6.72243 15.5032C6.10506 15.5771 5.54476 15.1363 5.47145 14.5188L4.50758 6.7229C4.43369 6.10555 4.87454 5.54529 5.49196 5.47193L13.2879 4.50806C13.9062 4.43416 14.467 4.87673 14.5388 5.49536C14.6131 6.10869 14.1789 6.66716 13.5662 6.74634L8.4568 7.37036C13.6341 11.4116 18.8244 15.4479 23.9724 19.5403L39.5437 7.37036L34.4373 6.74634C33.8234 6.66862 33.3875 6.1097 33.4617 5.49536C33.5263 4.94454 33.9827 4.52298 34.5369 4.5022Z" fill="#F0F2F4"/>
</svg>
