<svg width="63" height="63" viewBox="0 0 63 63" fill="none" xmlns="http://www.w3.org/2000/svg">
<g opacity="0.9">
<path d="M31.4999 62C48.3445 62 61.9997 48.3447 61.9997 31.5C61.9997 14.6553 48.3445 1 31.4999 1C14.6553 1 1 14.6553 1 31.5C1 48.3447 14.6553 62 31.4999 62Z" stroke="url(#paint0_linear_6126_174)" stroke-miterlimit="10"/>
<path d="M61.3073 30.8441C61.3307 32.3775 61.2744 33.8688 61.0961 35.3366C60.6503 38.9709 59.4866 42.4598 57.7177 45.5642C56.554 47.5994 55.1885 49.4705 53.7057 51.2103C52.2042 52.9688 50.5197 54.5444 48.6005 55.9091C46.3576 57.4988 43.8566 58.7649 41.168 59.609C39.338 60.1811 37.4423 60.5657 35.5044 60.7579C34.2703 60.8798 33.0175 60.9127 31.7412 60.8892C30.0144 60.8517 28.3111 60.6876 26.65 60.4062C25.6881 60.2421 24.7403 60.0451 23.8159 59.8013C19.3629 58.6336 15.2525 56.5374 11.9303 53.4893C10.8839 52.528 9.90326 51.4963 8.97888 50.4084C7.88089 49.1094 6.87204 47.7401 5.98051 46.3004C5.09367 44.8702 4.32883 43.3648 3.68598 41.7939C3.15106 40.4855 2.71468 39.1256 2.3956 37.7282C1.92168 35.6508 1.70115 33.4796 1.74338 31.2521C1.77153 29.4982 1.95922 27.7819 2.25484 26.1031C3.08068 21.4465 4.77459 17.1697 7.43043 13.4792C9.27449 10.9234 11.5596 8.70533 14.1404 6.8999C16.6977 5.11323 19.5506 3.72986 22.6006 2.79666C25.4629 1.91974 28.5129 1.42735 31.652 1.38045C36.8276 1.30073 41.6982 2.58564 45.9729 4.89283C50.2945 7.23285 53.9732 10.6327 56.6197 14.7641C59.5993 19.4113 61.2181 24.9448 61.3073 30.8582V30.8441Z" stroke="url(#paint1_linear_6126_174)" stroke-miterlimit="10"/>
<path d="M60.607 30.1874C60.6539 31.6927 60.6586 33.1464 60.5272 34.586C60.1941 38.15 59.0914 41.6389 57.3177 44.7105C56.1446 46.7316 54.7979 48.5652 53.4043 50.3237C52.006 52.087 50.4529 53.672 48.5901 55.0601C46.4128 56.6779 43.94 57.9487 41.2607 58.7413C39.4448 59.2805 37.5679 59.6135 35.6675 59.7448C34.4569 59.8245 33.2322 59.8198 31.9841 59.7635C30.3042 59.6885 28.6385 59.5103 27.0055 59.2383C26.0624 59.0836 25.1333 58.896 24.223 58.6709C19.8639 57.5877 15.7769 55.665 12.5627 52.6122C11.5585 51.6555 10.6154 50.6332 9.71446 49.5594C8.63993 48.2838 7.62639 46.9567 6.73017 45.5781C5.83863 44.204 5.0644 42.7691 4.3981 41.2638C3.83972 40.0023 3.38926 38.6846 3.07018 37.32C2.59157 35.2941 2.40388 33.1605 2.48834 30.9752C2.55403 29.2636 2.76049 27.5847 3.0608 25.9341C3.89603 21.3572 5.36002 17.1508 7.94547 13.4883C9.73323 10.9654 12.009 8.78954 14.5616 7.05915C17.0954 5.33813 19.9061 4.03916 22.9139 3.14817C25.7339 2.31814 28.7417 1.82106 31.8057 1.72728C36.8171 1.57253 41.5422 2.76364 45.7184 4.96767C49.9367 7.19983 53.5357 10.4918 56.0977 14.5153C58.9835 19.05 60.4334 24.4428 60.6117 30.178L60.607 30.1874Z" stroke="url(#paint2_linear_6126_174)" stroke-miterlimit="10"/>
<path d="M59.9074 29.5308C59.9778 31.0127 60.0434 32.4289 59.959 33.8404C59.7431 37.3387 58.6921 40.8276 56.9184 43.8617C55.7359 45.8688 54.4033 47.6648 53.1082 49.4421C51.8132 51.21 50.3867 52.8044 48.5802 54.2112C46.4687 55.8572 44.0193 57.1327 41.3541 57.8784C39.5475 58.3848 37.6941 58.6615 35.8312 58.7365C34.6441 58.7787 33.4523 58.7271 32.2229 58.6474C30.59 58.5396 28.957 58.3426 27.357 58.0847C26.4326 57.9346 25.5176 57.7658 24.6261 57.5548C20.3655 56.5606 16.2926 54.8115 13.191 51.7493C12.2244 50.7973 11.3234 49.7797 10.4413 48.7293C9.3949 47.4725 8.37668 46.1923 7.47576 44.8746C6.57484 43.5616 5.79592 42.1922 5.11085 40.7479C4.53369 39.5287 4.06447 38.2578 3.74539 36.9307C3.26209 34.9518 3.10724 32.8603 3.22924 30.7219C3.32308 29.0478 3.56239 27.4112 3.8627 25.7886C4.70262 21.2868 5.94607 17.1601 8.45175 13.5258C10.1832 11.031 12.4496 8.90672 14.974 7.24198C17.4844 5.5913 20.2575 4.37205 23.2184 3.52796C25.9962 2.74013 28.957 2.24774 31.9507 2.10237C36.7932 1.8679 41.3728 2.96992 45.4598 5.07078C49.575 7.19509 53.0942 10.3839 55.5717 14.2996C58.3636 18.7217 59.6446 23.9738 59.9121 29.5308H59.9074Z" stroke="url(#paint3_linear_6126_174)" stroke-miterlimit="10"/>
<path d="M59.2087 28.8743C59.3073 30.3327 59.4293 31.7067 59.3917 33.0948C59.2885 36.5228 58.2984 40.0164 56.5201 43.0129C55.3282 45.0059 54.0144 46.7598 52.8085 48.5558C51.6166 50.3284 50.3216 51.9275 48.5666 53.3625C46.5208 55.0319 44.0996 56.3168 41.4438 57.0108C39.6513 57.4845 37.8166 57.7096 35.9913 57.7236C34.8229 57.733 33.6639 57.6345 32.4627 57.5267C30.8767 57.3813 29.2813 57.175 27.7047 56.9217C26.7991 56.7764 25.9029 56.6216 25.0254 56.434C20.8587 55.5243 16.8046 53.9533 13.8156 50.8818C12.8912 49.9345 12.0325 48.9263 11.1691 47.8899C10.1462 46.6566 9.12798 45.4233 8.22237 44.1618C7.31676 42.9051 6.52845 41.6061 5.81992 40.2274C5.2193 39.055 4.736 37.8264 4.41692 36.5368C3.92893 34.6095 3.80223 32.5555 3.96646 30.4593C4.09316 28.8274 4.35592 27.2236 4.66092 25.6339C5.50553 21.2118 6.52845 17.1601 8.95436 13.5493C10.6295 11.0826 12.8865 9.00991 15.3875 7.41551C17.8697 5.83517 20.61 4.69095 23.5239 3.89844C26.2595 3.15282 29.1781 2.66512 32.0967 2.47286C36.7749 2.16336 41.2044 3.17627 45.1976 5.16928C49.2048 7.19042 52.6536 10.2667 55.042 14.0745C57.7401 18.3841 58.8568 23.4955 59.2087 28.8743Z" stroke="url(#paint4_linear_6126_174)" stroke-miterlimit="10"/>
<path d="M58.5137 28.2121C58.6357 29.6471 58.8187 30.9836 58.8281 32.3435C58.8374 35.7012 57.9084 39.1948 56.1253 42.1585C54.9241 44.1374 53.629 45.8538 52.5122 47.6686C51.4236 49.4412 50.2552 51.0543 48.5566 52.5127C46.5765 54.2103 44.1834 55.4999 41.537 56.147C39.7586 56.5878 37.9427 56.7613 36.1549 56.7145C35.01 56.6863 33.8792 56.5409 32.7014 56.405C31.1623 56.2268 29.6045 56.0017 28.056 55.7578C27.1692 55.6171 26.287 55.4811 25.4284 55.3076C21.3601 54.487 17.3248 53.0895 14.4437 50.0086C13.5616 49.066 12.7404 48.0672 11.9005 47.0496C10.901 45.8397 9.88281 44.6486 8.96782 43.4481C8.05752 42.2523 7.25983 41.019 6.52783 39.7059C5.90376 38.5805 5.40637 37.394 5.0873 36.142C4.5993 34.2662 4.50076 32.2497 4.70722 30.2005C4.86676 28.6061 5.15768 27.0445 5.46268 25.4829C6.31199 21.1358 7.10498 17.1592 9.4652 13.5812C11.0793 11.138 13.327 9.11682 15.8045 7.59276C18.2632 6.07808 20.966 5.01827 23.833 4.26796C26.5264 3.56455 29.398 3.08154 32.2463 2.83769C36.7555 2.45315 41.0443 3.3629 44.9436 5.26212C48.8523 7.16602 52.2166 10.1438 54.5205 13.8484C57.1248 18.0455 58.0773 23.0163 58.5137 28.2168V28.2121Z" stroke="url(#paint5_linear_6126_174)" stroke-miterlimit="10"/>
<path d="M57.817 27.5559C57.9625 28.9674 58.2112 30.2617 58.2628 31.5982C58.3941 34.8854 57.512 38.3838 55.7242 41.31C54.5136 43.2748 53.2326 44.9489 52.2144 46.7825C51.229 48.5551 50.192 50.1823 48.5497 51.6595C46.6353 53.3852 44.2704 54.6748 41.638 55.2751C39.869 55.6783 38.0765 55.805 36.3263 55.6971C35.2049 55.6314 34.1069 55.4439 32.9526 55.2797C31.4604 55.064 29.9401 54.8249 28.4198 54.5951C27.5471 54.4591 26.6884 54.3372 25.8438 54.1824C21.8694 53.4462 17.8528 52.2269 15.0797 49.1366C14.2397 48.1987 13.4561 47.2046 12.635 46.2057C11.659 45.0146 10.6407 43.8704 9.72106 42.7262C8.80607 41.5913 7.9943 40.4237 7.24823 39.1716C6.60069 38.0883 6.09392 36.9488 5.76546 35.7342C5.27747 33.9054 5.20239 31.9358 5.45108 29.924C5.64346 28.3718 5.95785 26.8478 6.26754 25.3143C7.12153 21.047 7.6893 17.1454 9.97444 13.5908C11.5276 11.1757 13.7705 9.20617 16.2199 7.75244C18.6552 6.3081 21.3204 5.32801 24.1405 4.6246C26.7963 3.96339 29.621 3.48507 32.3942 3.19433C36.7346 2.73476 40.8825 3.55072 44.6833 5.34677C48.4887 7.14751 51.778 10.0127 53.9928 13.6095C56.5032 17.694 57.2915 22.5241 57.8123 27.5465L57.817 27.5559Z" stroke="url(#paint6_linear_6126_174)" stroke-miterlimit="10"/>
<path d="M57.1151 26.9006C57.2887 28.2887 57.5937 29.5455 57.6923 30.8538C57.9363 34.0755 57.1151 37.5691 55.3227 40.4624C54.1074 42.4086 52.8358 44.0405 51.9114 45.9022C51.0292 47.6748 50.1189 49.3161 48.5329 50.8167C46.6842 52.5658 44.3427 53.8648 41.7244 54.4135C39.9648 54.7839 38.1958 54.8543 36.4878 54.6901C35.3898 54.587 34.32 54.3572 33.1892 54.1602C31.7439 53.9117 30.2565 53.6538 28.769 53.4334C27.915 53.3068 27.0704 53.1989 26.2446 53.0582C22.3688 52.4064 18.3662 51.37 15.7057 48.2656C14.9033 47.3324 14.1619 46.3477 13.3643 45.3676C12.4117 44.1999 11.3935 43.1026 10.4691 42.0146C9.54474 40.9361 8.72828 39.8387 7.95875 38.6523C7.28775 37.616 6.76691 36.5186 6.43845 35.3416C5.94576 33.5643 5.90353 31.6323 6.18976 29.6674C6.41029 28.1527 6.75752 26.6709 7.06252 25.1655C7.92121 20.9732 8.26375 17.1513 10.4785 13.6249C11.9753 11.238 14.2089 9.3153 16.6301 7.93192C19.0419 6.55792 21.6696 5.65755 24.4427 5.00103C27.0563 4.38671 29.8342 3.90839 32.5369 3.56607C36.7131 3.03616 40.7109 3.75364 44.4225 5.44652C48.1247 7.1394 51.3342 9.89679 53.4645 13.3904C55.8811 17.3623 56.5098 22.0518 57.1104 26.8959L57.1151 26.9006Z" stroke="url(#paint7_linear_6126_174)" stroke-miterlimit="10"/>
<path d="M56.4165 26.2434C56.6135 27.608 56.9795 28.8226 57.125 30.1028C57.4863 33.2541 56.7215 36.7524 54.9243 39.6083C53.6996 41.5403 52.4468 43.13 51.6163 45.0152C50.8373 46.7831 50.0537 48.4385 48.524 49.9672C46.7363 51.7445 44.4277 53.0482 41.8188 53.5499C40.0732 53.8876 38.323 53.9063 36.6526 53.6812C35.578 53.5359 34.541 53.2686 33.4336 53.0435C32.0353 52.7621 30.5854 52.4901 29.1261 52.2744C28.2909 52.1525 27.4651 52.0587 26.658 51.9368C22.8807 51.3647 18.8923 50.5112 16.3443 47.3974C15.5842 46.4689 14.885 45.4935 14.1014 44.5275C13.1724 43.3786 12.1541 42.3281 11.2204 41.3012C10.2913 40.2836 9.46076 39.2519 8.67245 38.1311C7.97799 37.1416 7.44307 36.0865 7.11461 34.947C6.61723 33.2213 6.60316 31.3268 6.93162 29.4041C7.185 27.9316 7.55569 26.4873 7.86538 25.0101C8.72876 20.8975 8.85076 17.1459 10.9858 13.6476C12.4263 11.2889 14.6504 9.41778 17.0482 8.10005C19.4319 6.7917 22.0267 5.97105 24.7529 5.36143C27.3243 4.78932 30.0552 4.31568 32.6876 3.92177C36.6948 3.32153 40.5518 3.94053 44.1649 5.53024C47.7639 7.11527 50.8936 9.76479 52.9395 13.1506C55.2622 17.0099 55.7361 21.5587 56.4118 26.2247L56.4165 26.2434Z" stroke="url(#paint8_linear_6126_174)" stroke-miterlimit="10"/>
<path d="M55.7169 25.5875C55.9421 26.9287 56.3645 28.1058 56.5568 29.3578C57.0308 32.4388 56.3316 35.9418 54.5251 38.7601C53.291 40.6828 52.0522 42.2209 51.3156 44.1295C50.6352 45.8974 49.9876 47.5669 48.5143 49.1144C46.7922 50.9198 44.5117 52.2281 41.9122 52.6783C40.1761 52.9785 38.4446 52.9456 36.8164 52.669C35.7606 52.4861 34.7565 52.1766 33.6726 51.9233C32.3212 51.6091 30.9088 51.3184 29.4777 51.1121C28.6612 50.9948 27.8494 50.9198 27.0611 50.8166C23.3777 50.3289 19.408 49.6583 16.9727 46.5305C16.2548 45.6067 15.5932 44.636 14.833 43.6934C13.9274 42.5679 12.9092 41.5597 11.9707 40.5937C11.037 39.6324 10.1924 38.671 9.38998 37.6159C8.67206 36.6686 8.12306 35.6604 7.7946 34.5584C7.29252 32.8796 7.3066 31.0273 7.68198 29.1515C7.96821 27.7165 8.36706 26.3144 8.67675 24.8654C9.54951 20.8278 9.44159 17.156 11.5062 13.6858C12.8904 11.3551 15.1005 9.53565 17.4748 8.28826C19.835 7.05025 22.3923 6.30932 25.0716 5.74659C27.6007 5.21669 30.2847 4.75243 32.8467 4.30694C36.685 3.63635 40.3966 4.15688 43.9158 5.64342C47.4116 7.12059 50.4662 9.66226 52.4229 12.9449C54.6518 16.687 54.9708 21.1045 55.7216 25.5875H55.7169Z" stroke="url(#paint9_linear_6126_174)" stroke-miterlimit="10"/>
<path d="M55.0185 24.9257C55.2719 26.2434 55.7505 27.3782 55.9899 28.6068C56.5764 31.6175 55.9382 35.1251 54.127 37.906C52.8836 39.8099 51.6542 41.3058 51.0207 43.2425C50.4389 45.0058 49.9227 46.6939 48.5057 48.2649C46.8493 50.0938 44.597 51.4115 42.0068 51.8148C40.2848 52.0821 38.5721 51.9977 36.9814 51.66C35.9491 51.4396 34.9778 51.0879 33.9173 50.8019C32.6176 50.4549 31.2334 50.1454 29.835 49.9531C29.0374 49.8405 28.2444 49.7796 27.4701 49.6952C23.8852 49.2919 19.9296 48.8042 17.607 45.667C16.9313 44.7478 16.3072 43.7865 15.5705 42.858C14.6884 41.756 13.6701 40.79 12.727 39.8849C11.7885 38.9845 10.9298 38.0889 10.1087 37.0947C9.36261 36.1943 8.80423 35.2283 8.47577 34.1638C7.969 32.5366 8.01592 30.7265 8.42884 28.8882C8.74323 27.4955 9.17022 26.1308 9.48461 24.7099C10.3621 20.7521 10.0336 17.1553 12.0184 13.7132C13.3464 11.4107 15.547 9.63813 17.8932 8.46109C20.2299 7.29342 22.7497 6.63221 25.3774 6.11169C27.8643 5.62868 30.5014 5.16911 32.9977 4.66735C36.667 3.93111 40.2332 4.34847 43.6632 5.73185C47.0557 7.10116 50.0306 9.53497 51.9029 12.7097C54.0332 16.3393 54.2068 20.6161 55.0279 24.921L55.0185 24.9257Z" stroke="url(#paint10_linear_6126_174)" stroke-miterlimit="10"/>
<path d="M54.3181 24.2689C54.5997 25.5632 55.1346 26.6558 55.4208 27.861C56.12 30.8013 55.5381 34.3136 53.7269 37.0569C52.4741 38.9468 51.2588 40.3958 50.7191 42.3607C50.2358 44.1192 49.8558 45.8262 48.4903 47.4206C46.8996 49.2776 44.6755 50.6 42.0947 50.9517C40.3867 51.1862 38.6928 51.0455 37.1397 50.6516C36.1308 50.3937 35.1877 49.9997 34.1507 49.6856C32.8978 49.3057 31.5511 48.9774 30.181 48.7946C29.4021 48.6914 28.6279 48.6445 27.8677 48.5742C24.3813 48.2553 20.4398 47.9505 18.2297 44.7992C17.5916 43.8894 17.0098 42.9328 16.2918 42.023C15.4378 40.9398 14.4102 40.0253 13.4624 39.1766C12.5145 38.3325 11.6465 37.5071 10.8066 36.5786C10.037 35.7251 9.46456 34.8013 9.1314 33.7743C8.62464 32.1987 8.69502 30.4261 9.15017 28.6347C9.4974 27.2795 9.95255 25.9571 10.2669 24.569C11.1491 20.6862 10.6001 17.1691 12.5052 13.7505C13.7768 11.4761 15.9681 9.75513 18.2861 8.64842C20.5947 7.54641 23.0816 6.96961 25.6623 6.49598C28.107 6.05517 30.6972 5.60499 33.1231 5.05164C36.6235 4.24975 40.0489 4.56394 43.3804 5.84415C46.665 7.1056 49.5695 9.43156 51.3526 12.5031C53.389 16.0202 53.4125 20.161 54.304 24.283L54.3181 24.2689Z" stroke="url(#paint11_linear_6126_174)" stroke-miterlimit="10"/>
<path d="M53.6221 23.6132C53.9318 24.884 54.523 25.9391 54.8562 27.1162C55.6679 29.9861 55.1471 33.4985 53.3265 36.209C52.0643 38.0847 50.8583 39.4869 50.4173 41.4752C50.0325 43.229 49.7838 44.9547 48.4747 46.5679C46.9497 48.4484 44.7537 49.7802 42.1823 50.085C40.4837 50.2866 38.8132 50.0944 37.2976 49.6395C36.3123 49.344 35.3973 48.9079 34.3837 48.5656C33.1778 48.1576 31.8687 47.8106 30.5267 47.6324C29.7665 47.5339 29.0064 47.5011 28.265 47.4495C24.8725 47.2104 20.945 47.0931 18.8523 43.9278C18.2563 43.0227 17.7167 42.0708 17.0176 41.1845C16.187 40.1246 15.1594 39.2524 14.2069 38.4646C13.2544 37.6815 12.3722 36.9218 11.5182 36.0589C10.7205 35.2476 10.1387 34.3707 9.80553 33.3813C9.29407 31.8525 9.39261 30.1221 9.89469 28.373C10.2701 27.0599 10.7581 25.7703 11.0725 24.4151C11.9593 20.612 11.1851 17.1699 13.0197 13.7795C14.2351 11.5332 16.4123 9.86381 18.7115 8.82275C20.9966 7.79108 23.446 7.28931 25.9798 6.86726C28.3823 6.46866 30.9302 6.02786 33.281 5.41823C36.6126 4.55538 39.8925 4.76171 43.1348 5.94345C46.3162 7.10174 49.141 9.31514 50.8396 12.2789C52.7822 15.6834 52.6602 19.6835 53.6174 23.6273L53.6221 23.6132Z" stroke="url(#paint12_linear_6126_174)" stroke-miterlimit="10"/>
<path d="M52.9255 22.9563C53.2634 24.2036 53.9109 25.2166 54.291 26.3655C55.2201 29.1697 54.7555 32.6821 52.9302 35.3504C51.6586 37.2121 50.4621 38.5673 50.1243 40.5838C49.8333 42.3329 49.7254 44.0727 48.4726 45.714C47.0133 47.6226 44.8454 48.9591 42.2881 49.2123C40.6036 49.3811 38.9519 49.1326 37.4739 48.6215C36.5119 48.2885 35.6298 47.8102 34.6397 47.435C33.4807 46.9942 32.2091 46.6285 30.8953 46.4643C30.1492 46.3705 29.4125 46.3565 28.6852 46.319C25.3912 46.1642 21.4732 46.2345 19.4977 43.0504C18.9393 42.1501 18.4419 41.2075 17.7616 40.3352C16.9545 39.2942 15.9269 38.4689 14.9696 37.742C14.0124 37.0151 13.1115 36.3305 12.2434 35.5239C11.4176 34.7595 10.8264 33.9201 10.4932 32.9729C9.97706 31.4957 10.1037 29.8028 10.6481 28.1005C11.0563 26.825 11.5677 25.5776 11.8868 24.2505C12.7784 20.5224 11.7836 17.1601 13.5385 13.7931C14.6975 11.575 16.8653 9.95249 19.1364 8.98178C21.3981 8.01576 23.8099 7.5984 26.2968 7.21855C28.657 6.86216 31.158 6.43542 33.4385 5.76483C36.6011 4.84102 39.7355 4.93949 42.8841 6.01806C45.9622 7.06849 48.7072 9.17404 50.326 12.0346C52.1748 15.3266 51.9073 19.186 52.9302 22.9516L52.9255 22.9563Z" stroke="url(#paint13_linear_6126_174)" stroke-miterlimit="10"/>
<path d="M52.2255 22.2991C52.5962 23.5231 53.2953 24.4985 53.7223 25.6192C54.764 28.3532 54.3558 31.8656 52.5305 34.501C51.2495 36.3486 50.0576 37.657 49.823 39.7016C49.6259 41.4414 49.6541 43.2046 48.4576 44.8693C47.064 46.8061 44.9243 48.1472 42.3764 48.3536C40.7012 48.4896 39.073 48.1894 37.6325 47.6173C36.6893 47.2469 35.84 46.731 34.8734 46.323C33.7613 45.8541 32.5226 45.4649 31.2416 45.3101C30.5143 45.221 29.7916 45.221 29.0831 45.207C25.8877 45.1319 21.979 45.3898 20.1208 42.1917C19.6 41.3007 19.1449 40.3628 18.4879 39.5093C17.7043 38.4917 16.6767 37.7133 15.7101 37.038C14.7482 36.3721 13.8332 35.7531 12.9463 35.0122C12.0923 34.2947 11.4917 33.4975 11.1586 32.583C10.6377 31.1575 10.7926 29.5068 11.3791 27.842C11.8155 26.6087 12.3598 25.3988 12.6789 24.0999C13.5751 20.4515 12.3598 17.1642 14.0396 13.8254C15.1423 11.6354 17.3008 10.0644 19.5437 9.16407C21.7819 8.26839 24.1562 7.93075 26.5962 7.5978C28.9142 7.2883 31.3683 6.86625 33.5783 6.14408C36.572 5.1593 39.561 5.15461 42.6204 6.12532C45.5953 7.0679 48.2652 9.06559 49.7949 11.823C51.5498 15.0024 51.1462 18.7211 52.2255 22.3038V22.2991Z" stroke="url(#paint14_linear_6126_174)" stroke-miterlimit="10"/>
<path d="M51.528 21.6376C51.9315 22.8381 52.6823 23.7713 53.1562 24.8686C54.3105 27.5322 53.9633 31.0493 52.1333 33.6472C50.8429 35.4808 49.6558 36.7375 49.5291 38.8102C49.4212 40.5453 49.5948 42.3273 48.4499 44.0155C47.1219 45.9757 45.0057 47.3262 42.4719 47.481C40.8108 47.5842 39.2014 47.2278 37.7984 46.5994C36.8787 46.1867 36.0575 45.6334 35.1191 45.1972C34.0539 44.7002 32.8527 44.2875 31.5999 44.1421C30.8913 44.0577 30.1875 44.0718 29.4977 44.0765C26.4008 44.0858 22.5015 44.5313 20.7607 41.3144C20.2821 40.4281 19.8645 39.4949 19.231 38.6602C18.4708 37.666 17.4432 36.9298 16.4719 36.3155C15.5006 35.7058 14.5716 35.1619 13.6753 34.4819C12.7932 33.816 12.1832 33.0563 11.85 32.1794C11.3245 30.8054 11.5075 29.1922 12.141 27.5744C12.6055 26.3786 13.1779 25.2109 13.5017 23.9401C14.4026 20.3667 12.9621 17.1592 14.5669 13.8438C15.6132 11.6819 17.7623 10.1626 19.9771 9.32784C22.1871 8.50251 24.5286 8.24459 26.9217 7.95853C29.1974 7.69123 31.6046 7.28794 33.7442 6.50012C36.5737 5.45907 39.4172 5.34183 42.378 6.20938C45.245 7.04878 47.8399 8.93393 49.2851 11.5835C50.9462 14.6503 50.4065 18.2284 51.5468 21.6329L51.528 21.6376Z" stroke="url(#paint15_linear_6126_174)" stroke-miterlimit="10"/>
<path d="M50.8259 20.9815C51.2623 22.1585 52.0647 23.0542 52.5855 24.1234C53.8524 26.7166 53.5568 30.2337 51.7315 32.7988C50.4317 34.6136 49.2446 35.8282 49.2258 37.929C49.2071 39.6594 49.5214 41.4602 48.4375 43.1671C47.1753 45.1554 45.0872 46.5107 42.5628 46.6185C40.9111 46.6889 39.3251 46.2762 37.9596 45.5915C37.0634 45.1414 36.2751 44.5505 35.3554 44.0769C34.3372 43.5516 33.1735 43.1155 31.9488 42.9842C31.2591 42.9092 30.5693 42.9373 29.8983 42.9561C26.8952 43.0452 23.01 43.6829 21.3865 40.4472C20.9454 39.5703 20.5747 38.6418 19.9553 37.8259C19.2187 36.8505 18.191 36.1611 17.2151 35.6078C16.2391 35.0591 15.2912 34.5855 14.3809 33.9665C13.4706 33.3475 12.8512 32.63 12.5134 31.7906C11.9832 30.4635 12.1943 28.8925 12.87 27.3169C13.3674 26.1633 13.968 25.0331 14.2871 23.7904C15.1974 20.2968 13.5316 17.1643 15.0613 13.877C16.0514 11.7433 18.1864 10.2708 20.3823 9.51113C22.569 8.75144 24.8729 8.57325 27.219 8.33408C29.4525 8.10899 31.8128 7.71977 33.8821 6.87099C36.5426 5.77835 39.2406 5.54388 42.1123 6.30825C44.8761 7.0398 47.3958 8.8171 48.7519 11.3635C50.3191 14.3178 49.6434 17.7551 50.84 20.9815H50.8259Z" stroke="url(#paint16_linear_6126_174)" stroke-miterlimit="10"/>
<path d="M50.1288 20.3249C50.5981 21.4785 51.4474 22.332 52.0198 23.3777C53.3994 25.9053 53.1647 29.4177 51.3348 31.95C50.0256 33.7507 48.8431 34.9184 48.9323 37.0474C49.0027 38.7731 49.4578 40.5926 48.4302 42.323C47.229 44.3394 45.1738 45.7041 42.6587 45.7556C41.0211 45.7932 39.4539 45.3242 38.126 44.5833C37.2532 44.0956 36.4931 43.4672 35.6015 42.9607C34.6302 42.4074 33.5041 41.9525 32.3075 41.8259C31.6365 41.7556 30.9655 41.7978 30.3086 41.8353C27.4041 42.0041 23.5236 42.8294 22.022 39.5797C21.6185 38.7074 21.29 37.7883 20.6941 36.9864C19.9809 36.0345 18.9533 35.3873 17.9679 34.8949C16.9872 34.4025 16.0206 34.0039 15.0962 33.4412C14.1578 32.8738 13.529 32.1938 13.1912 31.3919C12.6562 30.1164 12.8955 28.583 13.6135 27.0542C14.139 25.9381 14.7678 24.8502 15.0915 23.6356C16.0065 20.217 14.1202 17.1642 15.5701 13.9004C16.5039 11.7948 18.6295 10.3739 20.7974 9.67991C22.9605 8.99056 25.2269 8.89208 27.5261 8.69982C29.7174 8.51693 32.0354 8.15116 34.0296 7.23672C36.5259 6.0925 39.0738 5.74548 41.8516 6.402C44.5122 7.03038 46.9522 8.69513 48.2238 11.1336C49.6971 13.9754 48.8901 17.2674 50.1382 20.3202L50.1288 20.3249Z" stroke="url(#paint17_linear_6126_174)" stroke-miterlimit="10"/>
<path d="M49.431 19.668C49.9378 20.7935 50.834 21.6141 51.4534 22.627C52.9456 25.0843 52.772 28.6014 50.9373 31.0961C49.6187 32.8828 48.4316 34.0083 48.6334 36.156C48.7929 37.8817 49.3935 39.7106 48.4175 41.4691C47.282 43.509 45.2549 44.883 42.7492 44.8877C41.121 44.8877 39.5772 44.3719 38.2869 43.57C37.4376 43.0448 36.7056 42.3789 35.8375 41.8349C34.9084 41.2534 33.8198 40.7751 32.6514 40.6579C31.9992 40.5922 31.3423 40.6485 30.7041 40.7048C27.8981 40.9533 24.0223 41.9709 22.6428 38.7024C22.2768 37.8395 21.9906 36.9204 21.4134 36.142C20.7236 35.2088 19.696 34.6132 18.706 34.1771C17.7159 33.7457 16.7399 33.4174 15.8014 32.9156C14.8301 32.3998 14.192 31.7573 13.8588 30.993C13.3192 29.769 13.582 28.2731 14.3515 26.7866C14.9052 25.7127 15.5668 24.6622 15.8906 23.4758C16.8103 20.137 14.7034 17.1592 16.0736 13.9235C16.951 11.8507 19.0673 10.4767 21.2069 9.85306C23.3419 9.23405 25.5708 9.2153 27.8278 9.06523C29.9768 8.92455 32.2526 8.57753 34.1717 7.59744C36.5085 6.40633 38.9016 5.93739 41.5855 6.49074C44.1382 7.01596 46.5078 8.56816 47.6902 10.9035C49.065 13.628 48.136 16.7793 49.431 19.6586V19.668Z" stroke="url(#paint18_linear_6126_174)" stroke-miterlimit="10"/>
<path d="M48.7301 19.0064C49.2744 20.1037 50.2176 20.8915 50.8839 21.8763C52.484 24.2679 52.3713 27.7803 50.532 30.2422C49.2041 32.0101 48.0169 33.0934 48.3266 35.2693C48.5753 36.9903 49.3167 38.8379 48.397 40.6152C47.3271 42.6833 45.3282 44.0666 42.8319 44.0151C41.2178 43.9869 39.6928 43.4101 38.4399 42.5567C37.6141 41.9892 36.9103 41.2905 36.0703 40.7137C35.1882 40.1088 34.1371 39.6023 32.9969 39.4991C32.3634 39.4382 31.7253 39.5085 31.1012 39.5836C28.3938 39.9118 24.5179 41.1217 23.2651 37.8344C22.9366 36.9762 22.6926 36.0665 22.1389 35.3021C21.4773 34.3924 20.445 33.839 19.4503 33.4639C18.4555 33.0887 17.4607 32.8355 16.5082 32.3947C15.5087 31.9304 14.8612 31.3255 14.5281 30.5986C13.9838 29.4263 14.2747 27.9679 15.0864 26.5282C15.6683 25.4918 16.358 24.4836 16.6865 23.3253C17.6109 20.0615 15.2835 17.1634 16.5786 13.9512C17.3997 11.9066 19.5066 10.5795 21.6181 10.0261C23.7296 9.47278 25.9209 9.53843 28.131 9.43526C30.2378 9.34147 32.4761 9.01321 34.3154 7.96747C36.488 6.72946 38.7309 6.14329 41.3257 6.58878C43.7751 7.00614 46.0649 8.45517 47.1629 10.678C48.4439 13.29 47.3928 16.2912 48.7301 19.0017V19.0064Z" stroke="url(#paint19_linear_6126_174)" stroke-miterlimit="10"/>
<path d="M48.0368 18.3504C48.6186 19.4196 49.6087 20.1699 50.3219 21.1312C52.0346 23.4525 51.983 26.9695 50.1389 29.394C48.8016 31.1478 47.6098 32.1889 48.0368 34.3882C48.3699 36.1092 49.2614 37.9709 48.3981 39.7717C47.3939 41.8631 45.4232 43.2559 42.9409 43.1574C41.3362 43.0965 39.8346 42.4634 38.6193 41.5536C37.817 40.9487 37.1366 40.2125 36.3248 39.6028C35.4849 38.9698 34.4761 38.4399 33.364 38.3461C32.7446 38.2945 32.1252 38.3789 31.5199 38.4727C28.9063 38.876 25.0352 40.2828 23.909 36.9768C23.6181 36.128 23.421 35.2229 22.8814 34.4773C22.2433 33.591 21.2063 33.0798 20.2068 32.7657C19.2074 32.4515 18.1938 32.2733 17.2272 31.8887C16.1996 31.4761 15.5427 30.9086 15.2095 30.2193C14.6605 29.0985 14.9796 27.6776 15.8336 26.2802C16.4436 25.2813 17.1662 24.3106 17.4947 23.1852C18.4237 20.001 15.8852 17.1827 17.0911 13.9939C17.8607 11.9774 19.9487 10.7019 22.0415 10.2142C24.1296 9.73121 26.2833 9.87658 28.4465 9.82031C30.5111 9.76872 32.7118 9.4686 34.4714 8.34783C36.489 7.06762 38.5724 6.35951 41.0734 6.69715C43.4196 7.01134 45.6296 8.34783 46.6432 10.4674C47.8303 12.9669 46.6572 15.8181 48.0368 18.3597V18.3504Z" stroke="url(#paint20_linear_6126_174)" stroke-miterlimit="10"/>
<path d="M47.335 17.6941C47.9543 18.7351 48.9913 19.4526 49.7515 20.3858C51.5768 22.6367 51.5862 26.1585 49.7374 28.5454C48.3907 30.2852 47.1942 31.284 47.7338 33.5021C48.1514 35.2232 49.1884 37.0989 48.3813 38.9231C47.4429 41.0427 45.5003 42.4402 43.0274 42.2901C41.4368 42.1963 39.954 41.507 38.7762 40.541C37.9973 39.8985 37.3451 39.1294 36.5615 38.4776C35.7638 37.8164 34.7925 37.2677 33.7133 37.1786C33.1126 37.1318 32.512 37.2302 31.9255 37.3428C29.4104 37.8258 25.5393 39.4249 24.5351 36.1001C24.2818 35.256 24.1269 34.3556 23.6108 33.6288C22.9961 32.7612 21.9591 32.297 20.9549 32.0437C19.9508 31.7858 18.9185 31.6873 17.9425 31.3544C16.882 30.998 16.2204 30.4634 15.8826 29.8116C15.3289 28.7424 15.6714 27.359 16.577 26.0084C17.2199 25.0471 17.9659 24.1186 18.2991 23.0213C19.2329 19.9122 16.4691 17.1736 17.6046 14.0082C18.3179 12.0199 20.3965 10.7913 22.4611 10.3786C24.5211 9.96593 26.642 10.1863 28.7582 10.177C30.7806 10.1676 32.9437 9.89559 34.6282 8.69978C36.4911 7.37737 38.4149 6.55203 40.8268 6.77712C43.065 6.99283 45.2047 8.21208 46.129 10.2238C47.2223 12.6108 45.9273 15.3072 47.349 17.6847L47.335 17.6941Z" stroke="url(#paint21_linear_6126_174)" stroke-miterlimit="10"/>
<path d="M16.5551 29.4227C16.893 30.037 17.564 30.5388 18.6526 30.8389C19.6474 31.1156 20.689 31.139 21.7026 31.336C22.7161 31.5329 23.7484 31.9503 24.3396 32.7944C24.8323 33.5025 24.9449 34.3982 25.1608 35.2329C26.0289 38.5764 29.9047 36.7804 32.3259 36.2223C32.8984 36.091 33.4802 35.9785 34.0621 36.0207C35.1131 36.0957 36.0422 36.6725 36.7977 37.3619C37.5531 38.0465 38.1772 38.8531 38.9373 39.5331C40.0776 40.5601 41.5369 41.301 43.1182 41.4276C45.5816 41.6246 47.4961 40.2224 48.3688 38.0747C49.1196 36.227 47.9371 34.3372 47.4351 32.6209C46.7782 30.3793 47.9794 29.4227 49.3354 27.697C51.1889 25.3429 51.1185 21.8258 49.1806 19.6405C48.3735 18.7355 47.299 18.0461 46.6374 17.0379C45.1781 14.8198 46.5905 12.2828 45.591 10.0085C44.7511 8.09987 42.6912 6.99317 40.5562 6.88062C38.2382 6.7587 36.4786 7.71065 34.7659 9.07527C33.1705 10.3461 31.0402 10.59 29.0554 10.5524C26.9908 10.5149 24.9074 10.2101 22.871 10.5571C20.8345 10.9041 18.7652 12.0812 18.1083 14.0414C17.0525 17.1786 20.0368 19.8422 19.0984 22.8716C18.7652 23.9407 17.9863 24.827 17.3153 25.7509C16.3674 27.0545 15.9968 28.4004 16.5551 29.4227Z" stroke="url(#paint22_linear_6126_174)" stroke-miterlimit="10"/>
</g>
<defs>
<linearGradient id="paint0_linear_6126_174" x1="1.56691" y1="0.999989" x2="71.942" y2="15.8681" gradientUnits="userSpaceOnUse">
<stop stop-color="#8258C8"/>
<stop offset="1" stop-color="#2C84C8"/>
</linearGradient>
<linearGradient id="paint1_linear_6126_174" x1="2.29195" y1="1.37694" x2="71.0167" y2="15.9099" gradientUnits="userSpaceOnUse">
<stop stop-color="#8258C8"/>
<stop offset="1" stop-color="#2C84C8"/>
</linearGradient>
<linearGradient id="paint2_linear_6126_174" x1="3.00935" y1="1.71386" x2="70.1102" y2="15.9091" gradientUnits="userSpaceOnUse">
<stop stop-color="#8258C8"/>
<stop offset="1" stop-color="#2C84C8"/>
</linearGradient>
<linearGradient id="paint3_linear_6126_174" x1="3.71742" y1="2.07128" x2="69.2452" y2="15.9469" gradientUnits="userSpaceOnUse">
<stop stop-color="#8258C8"/>
<stop offset="1" stop-color="#2C84C8"/>
</linearGradient>
<linearGradient id="paint4_linear_6126_174" x1="4.41424" y1="2.41796" x2="68.4253" y2="15.9891" gradientUnits="userSpaceOnUse">
<stop stop-color="#8258C8"/>
<stop offset="1" stop-color="#2C84C8"/>
</linearGradient>
<linearGradient id="paint5_linear_6126_174" x1="5.1094" y1="2.75097" x2="67.6408" y2="16.0237" gradientUnits="userSpaceOnUse">
<stop stop-color="#8258C8"/>
<stop offset="1" stop-color="#2C84C8"/>
</linearGradient>
<linearGradient id="paint6_linear_6126_174" x1="5.80472" y1="3.06835" x2="66.8783" y2="16.0444" gradientUnits="userSpaceOnUse">
<stop stop-color="#8258C8"/>
<stop offset="1" stop-color="#2C84C8"/>
</linearGradient>
<linearGradient id="paint7_linear_6126_174" x1="6.49241" y1="3.39452" x2="66.1303" y2="16.0785" gradientUnits="userSpaceOnUse">
<stop stop-color="#8258C8"/>
<stop offset="1" stop-color="#2C84C8"/>
</linearGradient>
<linearGradient id="paint8_linear_6126_174" x1="7.17835" y1="3.69628" x2="65.407" y2="16.0889" gradientUnits="userSpaceOnUse">
<stop stop-color="#8258C8"/>
<stop offset="1" stop-color="#2C84C8"/>
</linearGradient>
<linearGradient id="paint9_linear_6126_174" x1="7.86632" y1="4.01855" x2="64.6931" y2="16.1279" gradientUnits="userSpaceOnUse">
<stop stop-color="#8258C8"/>
<stop offset="1" stop-color="#2C84C8"/>
</linearGradient>
<linearGradient id="paint10_linear_6126_174" x1="8.55439" y1="4.30859" x2="63.9971" y2="16.1275" gradientUnits="userSpaceOnUse">
<stop stop-color="#8258C8"/>
<stop offset="1" stop-color="#2C84C8"/>
</linearGradient>
<linearGradient id="paint11_linear_6126_174" x1="9.21544" y1="4.6123" x2="63.3093" y2="16.1577" gradientUnits="userSpaceOnUse">
<stop stop-color="#8258C8"/>
<stop offset="1" stop-color="#2C84C8"/>
</linearGradient>
<linearGradient id="paint12_linear_6126_174" x1="9.89209" y1="4.88964" x2="62.6378" y2="16.1529" gradientUnits="userSpaceOnUse">
<stop stop-color="#8258C8"/>
<stop offset="1" stop-color="#2C84C8"/>
</linearGradient>
<linearGradient id="paint13_linear_6126_174" x1="10.5804" y1="5.13476" x2="61.9784" y2="16.107" gradientUnits="userSpaceOnUse">
<stop stop-color="#8258C8"/>
<stop offset="1" stop-color="#2C84C8"/>
</linearGradient>
<linearGradient id="paint14_linear_6126_174" x1="11.2455" y1="5.40136" x2="61.32" y2="16.0935" gradientUnits="userSpaceOnUse">
<stop stop-color="#8258C8"/>
<stop offset="1" stop-color="#2C84C8"/>
</linearGradient>
<linearGradient id="paint15_linear_6126_174" x1="11.9359" y1="5.63085" x2="60.6727" y2="16.0289" gradientUnits="userSpaceOnUse">
<stop stop-color="#8258C8"/>
<stop offset="1" stop-color="#2C84C8"/>
</linearGradient>
<linearGradient id="paint16_linear_6126_174" x1="12.5972" y1="5.86132" x2="60.0262" y2="15.9747" gradientUnits="userSpaceOnUse">
<stop stop-color="#8258C8"/>
<stop offset="1" stop-color="#2C84C8"/>
</linearGradient>
<linearGradient id="paint17_linear_6126_174" x1="13.2722" y1="6.07226" x2="59.394" y2="15.895" gradientUnits="userSpaceOnUse">
<stop stop-color="#8258C8"/>
<stop offset="1" stop-color="#2C84C8"/>
</linearGradient>
<linearGradient id="paint18_linear_6126_174" x1="13.9356" y1="6.25976" x2="58.7683" y2="15.7939" gradientUnits="userSpaceOnUse">
<stop stop-color="#8258C8"/>
<stop offset="1" stop-color="#2C84C8"/>
</linearGradient>
<linearGradient id="paint19_linear_6126_174" x1="14.6009" y1="6.44042" x2="58.1394" y2="15.6823" gradientUnits="userSpaceOnUse">
<stop stop-color="#8258C8"/>
<stop offset="1" stop-color="#2C84C8"/>
</linearGradient>
<linearGradient id="paint20_linear_6126_174" x1="15.2779" y1="6.61327" x2="57.5278" y2="15.5588" gradientUnits="userSpaceOnUse">
<stop stop-color="#8258C8"/>
<stop offset="1" stop-color="#2C84C8"/>
</linearGradient>
<linearGradient id="paint21_linear_6126_174" x1="15.9452" y1="6.74023" x2="56.9147" y2="15.3828" gradientUnits="userSpaceOnUse">
<stop stop-color="#8258C8"/>
<stop offset="1" stop-color="#2C84C8"/>
</linearGradient>
<linearGradient id="paint22_linear_6126_174" x1="16.6126" y1="6.87011" x2="56.3043" y2="15.2103" gradientUnits="userSpaceOnUse">
<stop stop-color="#8258C8"/>
<stop offset="1" stop-color="#2C84C8"/>
</linearGradient>
</defs>
</svg>
