<svg width="42" height="42" viewBox="0 0 42 42" fill="none" xmlns="http://www.w3.org/2000/svg">
<path d="M41.902 13.1139C41.9033 13.1117 41.9049 13.11 41.9062 13.1079C41.9089 13.1035 41.911 13.099 41.9136 13.0946C41.92 13.0838 41.9262 13.0729 41.9319 13.0618C41.9357 13.0543 41.9393 13.0467 41.9427 13.0392C41.9476 13.0286 41.9522 13.0179 41.9566 13.007C41.9601 12.9984 41.9632 12.9897 41.9661 12.981C41.9695 12.971 41.9728 12.9611 41.9757 12.9509C41.9786 12.9409 41.9811 12.9308 41.9834 12.9207C41.9855 12.9116 41.9875 12.9024 41.9892 12.8931C41.9913 12.8818 41.993 12.8705 41.9944 12.8592C41.9955 12.8507 41.9966 12.8421 41.9972 12.8335C41.9983 12.8213 41.9988 12.809 41.9991 12.7968C41.9993 12.7915 41.9999 12.7864 41.9999 12.7812C41.9999 12.778 41.9995 12.7749 41.9994 12.7718C41.9993 12.7602 41.9985 12.7486 41.9977 12.737C41.997 12.7277 41.9965 12.7183 41.9953 12.709C41.9942 12.6995 41.9925 12.69 41.991 12.6806C41.9892 12.6697 41.9874 12.6588 41.9851 12.6482C41.9834 12.6404 41.9812 12.6328 41.9792 12.6252C41.9761 12.6133 41.973 12.6015 41.9693 12.59C41.967 12.5829 41.9642 12.576 41.9617 12.569C41.9574 12.5574 41.9533 12.5459 41.9484 12.5347C41.945 12.5269 41.9411 12.5194 41.9373 12.5117C41.9324 12.5019 41.9278 12.4919 41.9225 12.4823C41.9174 12.4731 41.9117 12.4643 41.9061 12.4554C41.9014 12.4477 41.8969 12.44 41.8918 12.4327C41.885 12.4229 41.8776 12.4134 41.8703 12.404C41.8655 12.3978 41.861 12.3916 41.856 12.3856C41.8484 12.3764 41.8401 12.3678 41.8319 12.3591C41.8263 12.3532 41.8209 12.3471 41.8151 12.3414C41.8074 12.3339 41.7993 12.3268 41.7912 12.3197C41.7838 12.3131 41.7764 12.3065 41.7687 12.3003C41.7616 12.2947 41.7542 12.2894 41.7469 12.2841C41.7373 12.277 41.7277 12.2702 41.7177 12.2637C41.7151 12.262 41.7128 12.2601 41.7102 12.2585L36.4499 8.97083C36.4463 8.96861 36.4426 8.96689 36.439 8.96475C36.4317 8.96039 36.4245 8.95596 36.417 8.95193C36.4124 8.94946 36.4078 8.94716 36.4032 8.94486C36.3958 8.94108 36.3884 8.93763 36.3808 8.93417C36.3748 8.93138 36.3689 8.9285 36.3627 8.92587C36.3584 8.92407 36.3542 8.9225 36.3499 8.92086C36.3399 8.91691 36.3298 8.9133 36.3197 8.90993C36.316 8.9087 36.3126 8.90705 36.3088 8.9059C36.3076 8.90557 36.3065 8.90532 36.3054 8.905C36.3018 8.90393 36.2982 8.90302 36.2946 8.90196C36.2828 8.8985 36.2711 8.89563 36.2592 8.89291C36.2547 8.89193 36.2503 8.89053 36.2458 8.88963C36.2428 8.88905 36.2398 8.8888 36.2369 8.88823C36.2249 8.88601 36.2129 8.8842 36.2008 8.88264C36.1922 8.88157 36.1835 8.8805 36.1748 8.87976C36.1642 8.87886 36.1537 8.87837 36.1431 8.87804C36.133 8.87771 36.1229 8.87746 36.1129 8.87763C36.1036 8.87779 36.0945 8.87828 36.0853 8.87886C36.0817 8.87911 36.0781 8.87911 36.0745 8.87935C36.0721 8.87952 36.0697 8.87943 36.0673 8.87968C36.0623 8.88017 36.0574 8.88108 36.0524 8.88165C36.044 8.88264 36.0355 8.88396 36.027 8.88527C36.0243 8.88568 36.0215 8.88601 36.0187 8.8865C36.015 8.88716 36.0112 8.88741 36.0075 8.88815C36.0029 8.88905 35.9984 8.89037 35.9939 8.89135C35.9855 8.89316 35.9771 8.89538 35.9686 8.89752C35.9581 8.90023 35.9476 8.90302 35.9374 8.90631C35.9283 8.90919 35.9195 8.91239 35.9106 8.91568C35.904 8.91807 35.8973 8.92012 35.8909 8.92275C35.8882 8.92382 35.8856 8.9253 35.8829 8.92645C35.8733 8.93048 35.8639 8.935 35.8545 8.93952C35.8481 8.94264 35.8415 8.94552 35.8352 8.9488C35.8345 8.94913 35.8338 8.94938 35.8332 8.94979L26.4168 13.9719L20.8195 7.13072C20.8193 7.13039 20.8189 7.13015 20.8187 7.12982C20.817 7.12768 20.8152 7.12563 20.8133 7.12349C20.809 7.11831 20.8042 7.11363 20.7997 7.10861C20.791 7.09891 20.7823 7.08913 20.7729 7.08001C20.7675 7.07467 20.7615 7.06982 20.7558 7.06472C20.7469 7.05659 20.7381 7.04837 20.7286 7.04072C20.7196 7.03357 20.7101 7.02708 20.7008 7.02034C20.7001 7.01985 20.6994 7.01927 20.6987 7.01878C20.6925 7.01442 20.6866 7.00965 20.6803 7.00546C20.6708 6.99922 20.6607 6.99379 20.6509 6.98804C20.6434 6.98368 20.6361 6.979 20.6284 6.97497C20.6192 6.97012 20.6095 6.96609 20.6 6.96174C20.5912 6.95771 20.5826 6.95327 20.5736 6.94965C20.565 6.9462 20.5562 6.94349 20.5474 6.94045C20.5369 6.93675 20.5266 6.93289 20.516 6.92976C20.5147 6.92935 20.5133 6.92878 20.512 6.92845C20.5027 6.92574 20.4933 6.92409 20.4839 6.92187C20.4755 6.9199 20.4671 6.9176 20.4584 6.91596C20.4548 6.9153 20.4513 6.91448 20.4477 6.91382L2.03984 3.62639C2.03375 3.62532 2.02775 3.625 2.02167 3.62409C2.01058 3.62245 1.99956 3.62089 1.98847 3.61982C1.97827 3.61883 1.96825 3.61834 1.95814 3.61793C1.94852 3.61752 1.9389 3.61719 1.92929 3.61719C1.91827 3.61719 1.90734 3.6176 1.89641 3.61826C1.88753 3.61875 1.87858 3.61941 1.8697 3.62023C1.85869 3.6213 1.84775 3.62278 1.8369 3.6245C1.82786 3.6259 1.8189 3.62746 1.80995 3.62919C1.79959 3.63124 1.7894 3.63363 1.77921 3.63626C1.76975 3.63864 1.7603 3.64127 1.75093 3.64415C1.74148 3.64702 1.73227 3.65015 1.72299 3.65352C1.71321 3.65705 1.70359 3.66075 1.69397 3.66478C1.6851 3.66848 1.67647 3.6725 1.66775 3.67661C1.65838 3.68105 1.6491 3.68565 1.63989 3.69058C1.63093 3.69543 1.62222 3.70053 1.61359 3.70579C1.60529 3.7108 1.59699 3.7159 1.58885 3.72132C1.57932 3.72774 1.57011 3.73448 1.56099 3.74138C1.55622 3.745 1.55112 3.74812 1.54644 3.7519C1.54422 3.75363 1.54241 3.7556 1.54019 3.75741C1.53099 3.76497 1.52219 3.77302 1.5134 3.78116C1.50707 3.787 1.50058 3.79275 1.49449 3.79883C1.4866 3.80672 1.47929 3.81511 1.47181 3.82341C1.46564 3.83031 1.45932 3.83705 1.45356 3.84412C1.44699 3.85217 1.4409 3.86072 1.43474 3.86919C1.42899 3.877 1.42307 3.88472 1.41773 3.89269C1.41214 3.90116 1.40712 3.90995 1.40195 3.91875C1.39685 3.9273 1.39159 3.93568 1.38699 3.94439C1.38238 3.95311 1.37836 3.96223 1.37416 3.97119C1.36981 3.98048 1.36529 3.98968 1.36142 3.99913C1.35781 4.00785 1.35485 4.01689 1.35164 4.02585C1.34803 4.03604 1.34425 4.04623 1.34121 4.05658C1.33866 4.06513 1.3366 4.07401 1.33438 4.0828C1.33159 4.09398 1.32879 4.10508 1.32666 4.11634C1.32608 4.11922 1.32518 4.12201 1.32469 4.12489C1.32353 4.13113 1.32321 4.1373 1.3223 4.14354C1.32074 4.15439 1.31918 4.16524 1.31819 4.17617C1.31721 4.18637 1.31671 4.19648 1.3163 4.20658C1.31589 4.21628 1.31556 4.22598 1.31556 4.23568C1.31556 4.24653 1.31605 4.2573 1.31663 4.26806C1.31712 4.27719 1.31778 4.28623 1.31869 4.29535C1.31975 4.3062 1.32123 4.31689 1.32288 4.32757C1.32427 4.33678 1.32592 4.34598 1.32773 4.35511C1.32978 4.3653 1.33208 4.37532 1.33471 4.38535C1.33718 4.39497 1.33981 4.4045 1.34269 4.41404C1.34556 4.42332 1.34869 4.43253 1.35197 4.44165C1.35551 4.45143 1.35921 4.46122 1.36323 4.47083C1.36693 4.47963 1.37088 4.48834 1.37499 4.49697C1.37942 4.50634 1.38403 4.51563 1.38896 4.52483C1.39373 4.53379 1.3989 4.54242 1.40408 4.55113C1.4091 4.55952 1.41419 4.56782 1.4197 4.57595C1.42603 4.58541 1.43277 4.59453 1.43959 4.60357C1.44321 4.60842 1.44633 4.61352 1.45019 4.61828L5.38323 9.53459H0.616438C0.610849 9.53459 0.605507 9.53524 0.6 9.53541C0.588658 9.53574 0.577315 9.53623 0.565973 9.53713C0.556027 9.53796 0.546164 9.53911 0.536384 9.54034C0.526767 9.54157 0.517151 9.54305 0.507617 9.5447C0.496767 9.54659 0.486082 9.54889 0.475479 9.55135C0.466932 9.55332 0.458466 9.55554 0.45 9.55793C0.439069 9.56097 0.428384 9.56426 0.417699 9.56796C0.409397 9.57075 0.401178 9.57379 0.392959 9.577C0.382849 9.58094 0.372904 9.58505 0.363123 9.58949C0.354411 9.59343 0.345781 9.59763 0.337233 9.60198C0.328438 9.6065 0.319726 9.61111 0.311178 9.61604C0.302055 9.62122 0.293096 9.62672 0.284219 9.63239C0.276575 9.63732 0.269096 9.64234 0.261699 9.64752C0.252658 9.65385 0.243863 9.6605 0.235151 9.66741C0.228082 9.673 0.22126 9.67867 0.214521 9.6845C0.206384 9.69157 0.198329 9.6988 0.190521 9.70628C0.18337 9.71311 0.176548 9.72009 0.169726 9.72724C0.162986 9.73431 0.156411 9.74154 0.15 9.74902C0.142521 9.75774 0.13537 9.7667 0.128384 9.77582C0.125014 9.78017 0.121397 9.78404 0.11811 9.78848C0.116219 9.79111 0.11474 9.79382 0.112932 9.79645C0.105863 9.80648 0.0993699 9.81675 0.0928767 9.82711C0.0885206 9.83417 0.084 9.84124 0.0799726 9.84839C0.0743014 9.8585 0.0691233 9.86886 0.0639452 9.8793C0.06 9.88727 0.0559726 9.89524 0.0523562 9.9033C0.0480822 9.913 0.0443836 9.92294 0.0406027 9.93289C0.0371507 9.94201 0.0335342 9.95113 0.0304932 9.96042C0.0275342 9.96954 0.0250685 9.97891 0.0225205 9.98828C0.0196438 9.99864 0.0167671 10.009 0.0145479 10.0194C0.0126575 10.0281 0.0113425 10.0369 0.00978082 10.0456C0.00780822 10.057 0.00583562 10.0684 0.00452055 10.0799C0.00353425 10.0882 0.0030411 10.0966 0.00246575 10.1051C0.00156164 10.1172 0.000821918 10.1293 0.000657534 10.1414C0.000410959 10.1446 0 10.1477 0 10.151C0 10.1566 0.000657534 10.162 0.000821918 10.1675C0.00115069 10.1788 0.00156164 10.1901 0.00254795 10.2015C0.00336986 10.2114 0.00452055 10.2212 0.00575342 10.2311C0.0069863 10.2408 0.00846575 10.2504 0.0101918 10.2599C0.0120822 10.2707 0.0143836 10.2814 0.0168493 10.292C0.0189041 10.3006 0.0210411 10.3092 0.0234247 10.3176C0.0264658 10.3285 0.0297534 10.3391 0.0333699 10.3497C0.0362466 10.3581 0.0392877 10.3664 0.0425753 10.3748C0.0464384 10.3847 0.0505479 10.3946 0.0549041 10.4043C0.0589315 10.4131 0.0632055 10.4219 0.0675616 10.4306C0.072 10.4393 0.0765206 10.4478 0.0812877 10.4562C0.086548 10.4655 0.0922192 10.4746 0.0979726 10.4837C0.10274 10.4911 0.107671 10.4985 0.112767 10.5058C0.119178 10.5149 0.125918 10.5238 0.132904 10.5326C0.138411 10.5395 0.144 10.5464 0.149753 10.553C0.156822 10.5612 0.164137 10.5693 0.171781 10.5772C0.178521 10.5843 0.185507 10.5911 0.192658 10.5978C0.199808 10.6046 0.206959 10.6112 0.214521 10.6177C0.223233 10.6252 0.232192 10.6323 0.241233 10.6392C0.245589 10.6426 0.249452 10.6462 0.253973 10.6495L14.4159 20.9491L11.8442 37.6658C11.8438 37.6678 11.8436 37.6697 11.8433 37.6718L11.8429 37.6738C11.8425 37.6763 11.8425 37.6788 11.8422 37.6813C11.8397 37.6988 11.8378 37.7163 11.8368 37.7338C11.8364 37.7407 11.8366 37.7474 11.8364 37.7542C11.8362 37.7673 11.8359 37.7804 11.8364 37.7934C11.8368 37.8035 11.8379 37.8135 11.8388 37.8235C11.8397 37.8331 11.8403 37.8426 11.8416 37.852C11.8433 37.8638 11.8456 37.8754 11.8479 37.887C11.8495 37.8947 11.8507 37.9025 11.8526 37.9102C11.8554 37.922 11.859 37.9335 11.8624 37.9451C11.8646 37.9526 11.8667 37.96 11.8692 37.9674C11.8729 37.9781 11.8772 37.9886 11.8815 37.9991C11.8848 38.0072 11.8879 38.0154 11.8916 38.0234C11.8957 38.0324 11.9003 38.0411 11.9048 38.0498C11.9096 38.059 11.9142 38.0682 11.9194 38.0772C11.9236 38.0844 11.9282 38.0913 11.9327 38.0984C11.9389 38.1082 11.9452 38.1181 11.9521 38.1276C11.9564 38.1336 11.9611 38.1394 11.9656 38.1452C11.9733 38.1551 11.9809 38.1649 11.9892 38.1743C11.9942 38.1799 11.9995 38.1852 12.0046 38.1907C12.013 38.1995 12.0213 38.2084 12.0302 38.2168C12.0369 38.2231 12.0441 38.2289 12.051 38.2349C12.0589 38.2417 12.0667 38.2486 12.075 38.255C12.0852 38.2629 12.0958 38.2701 12.1065 38.2773C12.1124 38.2812 12.1179 38.2854 12.1238 38.2891C12.1387 38.2985 12.1541 38.3071 12.1699 38.3152C12.1721 38.3163 12.1741 38.3177 12.1763 38.3188C12.1765 38.3189 12.1768 38.319 12.177 38.3191C12.1978 38.3295 12.2193 38.3387 12.2414 38.3468C12.2469 38.3487 12.2525 38.3501 12.258 38.3519C12.2731 38.3569 12.2884 38.3617 12.3041 38.3656C12.3145 38.3681 12.3248 38.3699 12.3352 38.372C12.3429 38.3735 12.3504 38.3755 12.3583 38.3768C12.3609 38.3772 12.3635 38.377 12.3661 38.3773C12.3946 38.3814 12.4231 38.3841 12.4516 38.3841C12.4519 38.3841 12.4522 38.384 12.4525 38.384H12.4528C12.4783 38.384 12.5033 38.3818 12.5282 38.3787C12.5332 38.3781 12.538 38.3775 12.543 38.3768C12.5938 38.3692 12.643 38.3553 12.6895 38.3358C12.694 38.3339 12.6985 38.3321 12.7029 38.3302C12.7254 38.3201 12.7474 38.3089 12.7685 38.2963C12.7724 38.294 12.776 38.2914 12.7798 38.289C12.7975 38.2778 12.8146 38.2657 12.8311 38.2529C12.8361 38.2491 12.841 38.2454 12.8458 38.2415C12.8641 38.2263 12.8815 38.2099 12.898 38.1926C12.9021 38.1882 12.9061 38.1837 12.9101 38.1792C12.9267 38.1608 12.9425 38.1416 12.9569 38.1212C12.9573 38.1206 12.9579 38.12 12.9583 38.1194C12.9738 38.097 12.9875 38.0734 13.0001 38.0489C13.0011 38.0469 13.0025 38.0452 13.0035 38.0432L17.506 29.038L32.4239 22.552C32.4279 22.5503 32.4316 22.5481 32.4355 22.5463C32.4474 22.5408 32.4592 22.535 32.4708 22.5288C32.4718 22.5282 32.473 22.5277 32.4741 22.5271C32.476 22.5261 32.4779 22.5254 32.4798 22.5243C32.4841 22.522 32.488 22.5191 32.4923 22.5166C32.5016 22.5111 32.5108 22.5054 32.5198 22.4994C32.5257 22.4954 32.5317 22.4917 32.5374 22.4876C32.5396 22.486 32.5417 22.4842 32.5439 22.4826C32.5507 22.4777 32.5572 22.4725 32.5637 22.4672C32.5653 22.466 32.5671 22.4652 32.5687 22.4638C32.5702 22.4625 32.5716 22.4611 32.5732 22.4597C32.5789 22.455 32.5844 22.4501 32.5899 22.4451C32.5954 22.4402 32.6006 22.4351 32.6059 22.4301C32.6062 22.4297 32.6066 22.4295 32.6069 22.4292C32.6092 22.4269 32.6116 22.4251 32.6139 22.4228C32.6157 22.421 32.6172 22.4192 32.619 22.4175C32.6231 22.4132 32.6271 22.4089 32.6311 22.4046C32.6362 22.399 32.6411 22.3932 32.646 22.3875C32.6508 22.382 32.6557 22.3766 32.6602 22.3709C32.6629 22.3676 32.6653 22.3643 32.6679 22.361C32.6699 22.3584 32.672 22.3558 32.6739 22.3531C32.6761 22.3502 32.678 22.3471 32.6801 22.3441C32.6808 22.3432 32.6813 22.3422 32.682 22.3413C32.6868 22.3346 32.6917 22.3279 32.6961 22.321C32.6975 22.3188 32.6989 22.3166 32.7003 22.3144C32.7051 22.3068 32.7095 22.2989 32.7139 22.2911C32.7181 22.2837 32.7224 22.2764 32.7263 22.269C32.7265 22.2686 32.7267 22.2683 32.7269 22.2679C32.7275 22.2668 32.728 22.2656 32.7286 22.2645C32.733 22.2557 32.737 22.2465 32.741 22.2374C32.7443 22.23 32.7478 22.2227 32.7508 22.2151C32.7513 22.2139 32.7519 22.2127 32.7524 22.2114C32.7561 22.2017 32.7593 22.1918 32.7626 22.1818C32.763 22.1805 32.7635 22.1791 32.764 22.1777C32.7646 22.1758 32.7656 22.1742 32.7662 22.1724L32.7686 22.1645C32.7687 22.1643 32.7687 22.1642 32.7688 22.164L35.5371 13.3978H41.382C41.3824 13.3978 41.3828 13.3978 41.3832 13.3978C41.3846 13.3978 41.3859 13.3976 41.3873 13.3976C41.4101 13.3974 41.4325 13.396 41.4546 13.3934C41.4608 13.3927 41.467 13.3915 41.4732 13.3906C41.4911 13.388 41.5087 13.3848 41.526 13.3807C41.5324 13.3792 41.5387 13.3775 41.5451 13.3757C41.5628 13.371 41.5802 13.3654 41.5972 13.3591C41.6025 13.3571 41.6079 13.3553 41.6133 13.3531C41.6354 13.3443 41.657 13.3345 41.6778 13.3232C41.6783 13.323 41.6788 13.3226 41.6793 13.3223C41.6989 13.3115 41.7178 13.2995 41.7361 13.2867C41.743 13.2819 41.7496 13.2767 41.7563 13.2716C41.7686 13.2623 41.7804 13.2526 41.7918 13.2425C41.7984 13.2367 41.805 13.2309 41.8113 13.2247C41.8265 13.2101 41.841 13.1948 41.8545 13.1787C41.8561 13.1769 41.8577 13.1754 41.8593 13.1735C41.8747 13.1545 41.8887 13.1344 41.902 13.1139ZM35.0806 10.7482L31.9335 20.7142L27.2128 14.9444L35.0806 10.7482ZM3.43693 5.1282L19.4891 7.99464L14.9028 19.4604L3.43693 5.1282ZM30.7883 21.2615L15.9662 20.1213L20.5269 8.71974L30.7883 21.2615ZM17.4764 27.7065L15.8877 21.3518L29.6563 22.4109L17.4764 27.7065ZM16.4015 28.4902L13.6592 33.9747L15.2262 23.7892L16.4015 28.4902ZM11.7363 17.476L2.51211 10.7675H6.36953L11.7363 17.476ZM36.4715 10.438L39.2342 12.1647H35.9262L36.4715 10.438Z" fill="white"/>
</svg>
