<svg width="62" height="70" viewBox="0 0 62 70" fill="none" xmlns="http://www.w3.org/2000/svg">
<path d="M53.4096 70H8.59036C3.45108 70 0 66.5958 0 61.5263C0 57.5032 5.16916 49.8547 10.652 41.7495C15.4627 34.6316 20.9157 26.5558 20.9157 23.2105V12.5263H19.0482C18.4357 12.5263 17.9277 12.0253 17.9277 11.4211V1.10526C17.9277 0.501053 18.4357 0 19.0482 0H42.9518C43.5643 0 44.0723 0.501053 44.0723 1.10526V11.4211C44.0723 12.0253 43.5643 12.5263 42.9518 12.5263H41.0843V23.2105C41.0843 26.5558 46.5373 34.6316 51.3479 41.7495C56.8308 49.8547 62 57.5032 62 61.5263C62 66.5958 58.5489 70 53.4096 70ZM23.1566 12.5263V23.2105C23.1566 27.2337 17.9875 34.8821 12.5046 42.9874C7.69398 50.1053 2.24096 58.1811 2.24096 61.5263C2.24096 65.3284 4.7359 67.7895 8.59036 67.7895H53.4096C57.2641 67.7895 59.759 65.3284 59.759 61.5263C59.759 58.1811 54.306 50.1053 49.4954 42.9874C44.0125 34.8821 38.8434 27.2337 38.8434 23.2105V12.5263H23.1566ZM20.1687 10.3158H41.8313V2.21053H20.1687V10.3158Z" fill="#A4AFBA"/>
<path d="M44.4456 36.1051H17.5541C16.9415 36.1051 16.4336 35.604 16.4336 34.9998C16.4336 34.3956 16.9415 33.8945 17.5541 33.8945H44.4456C45.0582 33.8945 45.5661 34.3956 45.5661 34.9998C45.5661 35.604 45.0582 36.1051 44.4456 36.1051Z" fill="#A4AFBA"/>
<path d="M23.1575 49.8256C20.6327 49.8256 18.5859 47.8066 18.5859 45.3161C18.5859 42.8256 20.6327 40.8066 23.1575 40.8066C25.6823 40.8066 27.7291 42.8256 27.7291 45.3161C27.7291 47.8066 25.6823 49.8256 23.1575 49.8256ZM23.1575 43.0172C21.8727 43.0172 20.8269 44.0487 20.8269 45.3161C20.8269 46.5835 21.8727 47.6151 23.1575 47.6151C24.4423 47.6151 25.4881 46.5835 25.4881 45.3161C25.4881 44.0487 24.4423 43.0172 23.1575 43.0172Z" fill="#A4AFBA"/>
<path d="M42.399 53.8782C40.3373 53.8782 38.6641 52.2277 38.6641 50.194C38.6641 48.1603 40.3373 46.5098 42.399 46.5098C44.4607 46.5098 46.1339 48.1603 46.1339 50.194C46.1339 52.2277 44.4607 53.8782 42.399 53.8782ZM42.399 48.7203C41.5773 48.7203 40.905 49.3835 40.905 50.194C40.905 51.0045 41.5773 51.6677 42.399 51.6677C43.2207 51.6677 43.893 51.0045 43.893 50.194C43.893 49.3835 43.2207 48.7203 42.399 48.7203Z" fill="#A4AFBA"/>
<path d="M30.4481 63.5455C27.0568 63.5455 24.293 60.8192 24.293 57.4739C24.293 54.1287 27.0568 51.4023 30.4481 51.4023C33.8395 51.4023 36.6033 54.1287 36.6033 57.4739C36.6033 60.8192 33.8395 63.5455 30.4481 63.5455ZM30.4481 53.6129C28.2819 53.6129 26.5339 55.3518 26.5339 57.4739C26.5339 59.596 28.2968 61.335 30.4481 61.335C32.5995 61.335 34.3624 59.596 34.3624 57.4739C34.3624 55.3518 32.5995 53.6129 30.4481 53.6129Z" fill="#A4AFBA"/>
<path d="M31.328 30.1661C32.1531 30.1661 32.8219 29.5063 32.8219 28.6924C32.8219 27.8785 32.1531 27.2188 31.328 27.2188C30.5029 27.2188 29.834 27.8785 29.834 28.6924C29.834 29.5063 30.5029 30.1661 31.328 30.1661Z" fill="#A4AFBA"/>
<path d="M37.1698 32.0089C37.9949 32.0089 38.6637 31.3491 38.6637 30.5352C38.6637 29.7213 37.9949 29.0615 37.1698 29.0615C36.3447 29.0615 35.6758 29.7213 35.6758 30.5352C35.6758 31.3491 36.3447 32.0089 37.1698 32.0089Z" fill="#A4AFBA"/>
<path d="M25.0682 31.92C25.8933 31.92 26.5622 31.2602 26.5622 30.4463C26.5622 29.6324 25.8933 28.9727 25.0682 28.9727C24.2431 28.9727 23.5742 29.6324 23.5742 30.4463C23.5742 31.2602 24.2431 31.92 25.0682 31.92Z" fill="#A4AFBA"/>
<path d="M35.3475 27.4249C36.1726 27.4249 36.8415 26.7651 36.8415 25.9512C36.8415 25.1373 36.1726 24.4775 35.3475 24.4775C34.5224 24.4775 33.8535 25.1373 33.8535 25.9512C33.8535 26.7651 34.5224 27.4249 35.3475 27.4249Z" fill="#A4AFBA"/>
<path d="M27.908 26.4083C28.7331 26.4083 29.402 25.7485 29.402 24.9346C29.402 24.1207 28.7331 23.4609 27.908 23.4609C27.0829 23.4609 26.4141 24.1207 26.4141 24.9346C26.4141 25.7485 27.0829 26.4083 27.908 26.4083Z" fill="#A4AFBA"/>
</svg>
