<svg width="68" height="73" viewBox="0 0 68 73" fill="none" xmlns="http://www.w3.org/2000/svg">
<g clip-path="url(#clip0_6302_394)">
<path d="M34.9913 43.8002C30.9293 43.8002 27.627 40.5267 27.627 36.5002C27.627 32.4737 30.9293 29.2002 34.9913 29.2002C39.0533 29.2002 42.3556 32.4737 42.3556 36.5002C42.3556 40.5267 39.0533 43.8002 34.9913 43.8002ZM34.9913 31.5055C32.2161 31.5055 29.9525 33.7492 29.9525 36.5002C29.9525 39.2511 32.2161 41.4949 34.9913 41.4949C37.7665 41.4949 40.0301 39.2511 40.0301 36.5002C40.0301 33.7492 37.7665 31.5055 34.9913 31.5055Z" fill="#A4AFBA"/>
<path d="M34.9909 73C25.642 73 18.3242 56.9707 18.3242 36.5C18.3242 16.0293 25.642 0 34.9909 0C37.1769 0 39.301 0.876 41.27 2.59726C41.7506 3.01221 41.7971 3.74989 41.3785 4.22632C40.9599 4.70274 40.2157 4.74884 39.7351 4.33389C38.1847 2.99684 36.5878 2.32063 34.9909 2.32063C27.2234 2.32063 20.6498 17.9811 20.6498 36.5154C20.6498 55.0497 27.2234 70.7101 34.9909 70.7101C42.7583 70.7101 49.332 55.0497 49.332 36.5154C49.332 25.6499 47.1769 15.6451 43.425 9.052C43.1149 8.49874 43.301 7.79179 43.8591 7.48442C44.4172 7.17705 45.1304 7.36147 45.4405 7.91474C49.3785 14.8305 51.6421 25.2657 51.6421 36.5154C51.6421 56.9861 44.3242 73.0154 34.9754 73.0154L34.9909 73Z" fill="#A4AFBA"/>
<path d="M42.744 9.98974C40.3874 9.98974 38.4805 8.09942 38.4805 5.76342C38.4805 3.42743 40.3874 1.53711 42.744 1.53711C45.1006 1.53711 47.0076 3.42743 47.0076 5.76342C47.0076 8.09942 45.1006 9.98974 42.744 9.98974ZM42.744 3.84237C41.6743 3.84237 40.8061 4.703 40.8061 5.76342C40.8061 6.82385 41.6743 7.68448 42.744 7.68448C43.8138 7.68448 44.682 6.82385 44.682 5.76342C44.682 4.703 43.8138 3.84237 42.744 3.84237Z" fill="#A4AFBA"/>
<path d="M54.7586 59.783C46.7431 59.7061 36.5106 56.4326 26.6811 50.8078C18.2935 46.0129 11.2238 40.0806 6.75865 34.1023C2.09199 27.8627 0.805164 22.2225 3.13075 18.2575C5.44082 14.2771 11.0222 12.5712 18.7897 13.4625C26.247 14.3078 34.9602 17.4122 43.3478 22.2072C61.2238 32.4425 71.5804 46.7352 66.8982 54.7575C65.7974 56.6324 63.9835 58.0156 61.4873 58.8609C60.8827 59.0606 60.216 58.7379 60.0145 58.1385C59.8129 57.5392 60.1385 56.8783 60.7431 56.6785C62.6811 56.0177 64.0765 54.988 64.8827 53.6049C68.7742 46.935 58.3711 33.4722 42.185 24.1897C34.0765 19.5484 25.6734 16.5516 18.5261 15.7371C11.8129 14.984 6.92919 16.3211 5.14625 19.4101C3.3478 22.4992 4.61912 27.3556 8.63462 32.7345C12.9137 38.467 19.7354 44.1686 27.8439 48.8099C37.3323 54.2503 47.1618 57.4009 54.7897 57.4777C55.4253 57.4777 55.9524 58.0002 55.9369 58.6457C55.9369 59.2758 55.4098 59.783 54.7742 59.783H54.7586Z" fill="#A4AFBA"/>
<path d="M57.969 62.7493C57.2249 62.7493 56.4807 62.5495 55.845 62.1806C53.814 61.0126 53.1163 58.4307 54.2791 56.4021C55.0388 55.0958 56.4497 54.2812 57.969 54.2812C58.7132 54.2812 59.4419 54.481 60.0931 54.8499C61.0853 55.4185 61.783 56.3253 62.0776 57.4164C62.3721 58.5076 62.2171 59.6448 61.6435 60.6284C60.8838 61.9347 59.4729 62.7493 57.9535 62.7493H57.969ZM57.969 56.6019C57.2714 56.6019 56.6357 56.9707 56.2946 57.5547C55.7675 58.4768 56.0776 59.6448 57.0078 60.1827C57.907 60.6899 59.1473 60.3671 59.659 59.4758C59.9225 59.0301 59.9845 58.5076 59.845 58.0158C59.7055 57.524 59.3954 57.109 58.9458 56.8478C58.6512 56.6787 58.3101 56.5865 57.9845 56.5865L57.969 56.6019Z" fill="#A4AFBA"/>
<path d="M14.9605 59.7835C9.17753 59.7835 5.02249 58.0469 3.11552 54.758C2.01474 52.8831 1.72017 50.6239 2.2318 48.0728C2.35583 47.4427 2.96048 47.0431 3.59614 47.166C4.2318 47.289 4.6349 47.9037 4.51087 48.5185C4.10777 50.5164 4.32482 52.2223 5.13102 53.6054C6.92947 56.6945 11.7977 58.0315 18.5109 57.2785C25.6582 56.4639 34.0613 53.4671 42.1698 48.8258C50.2783 44.1846 57.1 38.4675 61.3791 32.7505C65.3946 27.3715 66.6659 22.5151 64.8675 19.426C63.069 16.337 58.2008 14.9999 51.4876 15.753C44.3403 16.5675 35.9372 19.5644 27.8287 24.2056C18.3403 29.6307 10.6659 36.485 6.78994 43.0012C6.46435 43.5545 5.75118 43.7389 5.19304 43.4008C4.6349 43.078 4.44885 42.3711 4.78994 41.8178C8.86746 34.9635 16.8364 27.8172 26.6659 22.1924C35.0535 17.3974 43.7667 14.293 51.224 13.4477C59.0225 12.5564 64.5729 14.2776 66.883 18.2427C69.193 22.2231 67.9062 27.8479 63.255 34.0875C58.7899 40.0658 51.7202 45.998 43.3326 50.793C34.945 55.5879 26.2318 58.6924 18.7744 59.5376C17.4411 59.6913 16.1698 59.7681 14.9605 59.7681V59.7835Z" fill="#A4AFBA"/>
<path d="M4.263 49.4407C2.74362 49.4407 1.33276 48.6261 0.573074 47.3198C-0.00056897 46.3362 -0.140104 45.199 0.138966 44.1078C0.43354 43.0167 1.14672 42.1099 2.12346 41.5413C2.77463 41.1724 3.50331 40.9727 4.24749 40.9727C5.76687 40.9727 7.17773 41.7872 7.93742 43.0935C9.11571 45.1068 8.41804 47.704 6.37152 48.872C5.72036 49.2409 4.99168 49.4407 4.24749 49.4407H4.263ZM4.263 43.2933C3.92191 43.2933 3.59633 43.3855 3.30176 43.5546C2.85214 43.8158 2.52656 44.2308 2.40253 44.7226C2.263 45.2143 2.34052 45.7369 2.58858 46.1825C3.10021 47.0585 4.34052 47.3967 5.23974 46.8895C6.16997 46.367 6.48005 45.1836 5.95292 44.2615C5.61183 43.6621 4.96067 43.3087 4.263 43.3087V43.2933Z" fill="#A4AFBA"/>
</g>
<defs>
<clipPath id="clip0_6302_394">
<rect width="68" height="73" fill="white"/>
</clipPath>
</defs>
</svg>
