<svg width="55" height="55" viewBox="0 0 55 55" fill="none" xmlns="http://www.w3.org/2000/svg">
<path d="M35.5195 24.0625L28.6445 30.9375L24.0612 26.3542L17.1862 33.2292" stroke="white" stroke-width="2" stroke-linecap="round" stroke-linejoin="round"/>
<path d="M33.2292 10.3125H13.5125C12.3924 10.3125 11.8323 10.3125 11.4045 10.5305C11.0282 10.7222 10.7222 11.0282 10.5305 11.4045C10.3125 11.8323 10.3125 12.3924 10.3125 13.5125V41.4875C10.3125 42.6076 10.3125 43.1677 10.5305 43.5955C10.7222 43.9718 11.0282 44.2778 11.4045 44.4695C11.8323 44.6875 12.3924 44.6875 13.5125 44.6875H41.4875C42.6076 44.6875 43.1677 44.6875 43.5955 44.4695C43.9718 44.2778 44.2778 43.9718 44.4695 43.5955C44.6875 43.1677 44.6875 42.6076 44.6875 41.4875V21.7708" stroke="white" stroke-width="2" stroke-linecap="round"/>
<circle cx="42.3971" cy="12.6042" r="4.72917" stroke="white" stroke-width="2" stroke-linecap="round"/>
</svg>
