<svg width="39" height="39" viewBox="0 0 39 39" fill="none" xmlns="http://www.w3.org/2000/svg">
<path d="M28.0619 3.65804C28.1104 3.65577 28.1589 3.65736 28.2071 3.6628L34.5389 4.44594C35.0415 4.50435 35.4011 4.95993 35.3411 5.46236L34.5675 11.7965C34.5081 12.3024 34.0466 12.6621 33.5416 12.5963C33.0386 12.5333 32.6829 12.073 32.7489 11.5704L33.2583 7.42616L20.4067 17.4737L20.4138 32.232L23.375 29.278C23.8457 28.8514 24.3378 28.9645 24.6604 29.278C25.0125 29.6341 25.0125 30.2073 24.6604 30.5634L20.1448 35.0789C19.7887 35.431 19.2156 35.431 18.8594 35.0789L14.3415 30.5634C13.983 30.2062 13.983 29.6257 14.3415 29.2684C14.699 28.9084 15.2813 28.9084 15.6388 29.2684L18.5881 32.2177L18.5785 17.4999C14.3269 14.1169 10.0348 10.777 5.74597 7.42855L6.25537 11.5704C6.32134 12.073 5.9657 12.5333 5.4627 12.5963C4.96109 12.6564 4.50585 12.2982 4.44629 11.7965L3.66314 5.46236C3.6031 4.96076 3.9613 4.50555 4.46295 4.44594L10.7971 3.6628C11.2996 3.60276 11.7552 3.96234 11.8135 4.46498C11.8739 4.96331 11.5211 5.41707 11.0233 5.4814L6.87188 5.98842C11.0785 9.27189 15.2956 12.5514 19.4783 15.8765L32.13 5.98842L27.981 5.4814C27.4822 5.41825 27.1281 4.96413 27.1883 4.46498C27.2408 4.01744 27.6117 3.67492 28.0619 3.65804Z" fill="#F0F2F4"/>
</svg>
