<svg width="57" height="57" viewBox="0 0 57 57" fill="none" xmlns="http://www.w3.org/2000/svg">
<path d="M28.5 6.67969C21.1528 6.67969 14.6534 10.3101 10.6978 15.879C10.413 16.28 9.85704 16.3742 9.45599 16.0894C9.05499 15.8045 8.96081 15.2486 9.24567 14.8475C13.5209 8.82854 20.5515 4.89844 28.5 4.89844C41.5348 4.89844 52.1016 15.4652 52.1016 28.5C52.1016 37.8903 46.6175 45.9981 38.6815 49.7984C38.2379 50.0108 37.706 49.8233 37.4936 49.3798C37.2812 48.9363 37.4686 48.4041 37.9122 48.1917C45.2531 44.6764 50.3203 37.179 50.3203 28.5C50.3203 16.449 40.5511 6.67969 28.5 6.67969Z" fill="#45BBE1"/>
<path fill-rule="evenodd" clip-rule="evenodd" d="M11.4369 42.9348C7.40275 37.6183 5.69511 32.4055 5.17725 28.3128C4.91657 26.2522 4.95633 24.4668 5.15784 23.0877C5.25848 22.3991 5.40147 21.7978 5.57518 21.3072C5.74044 20.8405 5.96336 20.3871 6.27294 20.0775C7.73459 18.6159 10.1857 18.0557 12.2024 17.8924C13.2413 17.8084 15.0114 17.8125 16.1146 18.0727C16.3946 18.1387 16.7262 18.2395 16.9812 18.4146C17.6504 18.8742 18.1169 19.6928 18.4483 20.52C18.7935 21.3815 19.0512 22.4051 19.2208 23.4441C19.5532 25.4818 19.5799 27.7971 19.1031 29.2272C18.909 29.8093 18.4204 30.3057 17.9861 30.6748C17.5187 31.0721 16.2543 31.8401 15.0928 32.5247C15.809 34.2893 16.8027 36.245 18.0486 37.7232C19.2323 39.1335 21.1527 40.969 22.6615 41.7823C23.5624 40.6634 24.5363 39.6656 25.0129 39.2794C25.4557 38.9206 26.0336 38.5318 26.6415 38.4483C28.135 38.2433 30.4057 38.696 32.3473 39.3983C33.3373 39.7564 34.2958 40.1983 35.079 40.6963C35.831 41.1745 36.5495 41.7838 36.878 42.5263C37.0031 42.8092 37.0411 43.1537 37.0543 43.4411C37.0689 43.7586 37.0571 44.1298 37.0221 44.5312C36.9521 45.335 36.7847 46.3138 36.5106 47.3193C35.9785 49.2716 34.9763 51.5774 33.2703 52.7445C32.909 52.9921 32.4223 53.1275 31.9331 53.2041C31.419 53.2843 30.8016 53.3141 30.1062 53.286C28.7137 53.2299 26.9514 52.94 24.9742 52.3041C21.0139 51.0305 16.2543 48.5395 11.4369 42.9348ZM7.53247 21.3371C8.52004 20.3495 10.4107 19.8246 12.3462 19.6679C12.4312 19.661 12.5238 19.6529 12.6225 19.6443C13.6121 19.558 15.2172 19.418 15.9798 19.8878C16.2006 20.0436 16.5008 20.4486 16.7948 21.1824C17.0782 21.8898 17.3076 22.7797 17.4628 23.7309C17.7797 25.6733 17.753 27.6448 17.4133 28.6639C17.3846 28.7498 17.2332 28.977 16.8325 29.3176C16.4649 29.6301 14.6957 30.7641 13.6485 31.2569C13.2697 31.4352 13.0662 31.8532 13.1595 32.2612C14.0277 34.7346 15.2439 37.1175 16.5427 38.6982C17.8991 40.358 20.2621 42.305 22.5642 43.7311C22.9481 43.898 23.3972 43.7739 23.6422 43.4344C24.4925 42.2563 25.4823 41.1917 26.1342 40.6634C26.5429 40.3323 26.7941 40.2253 26.8837 40.213C27.948 40.0669 29.8907 40.4039 31.7414 41.0733C32.6477 41.4011 33.4802 41.7905 34.1232 42.1994C34.7903 42.6236 35.2062 42.9717 35.2455 43.2391C35.4416 44.5731 35.1323 45.6556 34.8869 46.5142C34.8536 46.6309 34.8215 46.7426 34.792 46.8508C34.2814 48.7243 33.4171 50.4859 32.2645 51.2746C32.2306 51.2977 32.0568 51.3819 31.6581 51.4442C31.2845 51.5026 30.7868 51.5306 30.1779 51.5061C28.962 51.4571 27.3592 51.2002 25.5196 50.6084C21.8856 49.4394 17.5902 47.2035 12.9535 41.9861C9.04564 36.8841 7.4288 31.9174 6.94443 28.0892C6.70187 26.1721 6.74444 24.5493 6.92038 23.3452C7.00851 22.7422 7.12803 22.2583 7.25424 21.9018C7.38894 21.5215 7.50348 21.3661 7.53247 21.3371Z" fill="#45BBE1"/>
<path fill-rule="evenodd" clip-rule="evenodd" d="M35.8863 20.4392C36.0511 20.1894 36.3304 20.0391 36.6297 20.0391H38.007C38.4989 20.0391 38.8976 20.4378 38.8976 20.9297V27.5351H39.1876C39.6795 27.5351 40.0782 27.9338 40.0782 28.4257C40.0782 28.9176 39.6795 29.3163 39.1876 29.3163H38.8976V32.0625C38.8976 32.5544 38.4989 32.9531 38.007 32.9531C37.5151 32.9531 37.1164 32.5544 37.1164 32.0625V29.3163H32.3008C31.8089 29.3163 31.4102 28.9176 31.4102 28.4257V27.4902C31.4102 27.3158 31.4614 27.1452 31.5574 26.9997L35.8863 20.4392ZM37.1164 27.5351V21.8203H37.109L33.3382 27.5351H37.1164Z" fill="#45BBE1"/>
<path d="M26.6295 21.9001C25.4745 21.706 23.9325 22.2813 23.0278 23.777C22.7732 24.1979 22.2257 24.3327 21.8048 24.0781C21.3839 23.8235 21.2491 23.276 21.5037 22.8551C22.7634 20.7725 25.0066 19.8211 26.9248 20.1435C27.8954 20.3066 28.8006 20.8037 29.4005 21.6666C30.0012 22.5307 30.2301 23.6663 30.0335 24.9884C29.836 26.3157 29.008 27.5071 27.8083 28.7038C27.0398 29.4704 26.0738 30.2822 24.928 31.1728H30.3331C30.825 31.1728 31.2238 31.5715 31.2238 32.0634C31.2238 32.5553 30.825 32.954 30.3331 32.954H22.2657C21.881 32.954 21.5398 32.7069 21.4196 32.3414C21.2995 31.9759 21.4277 31.5746 21.7375 31.3464C23.8551 29.786 25.449 28.5413 26.5503 27.4427C27.6588 26.337 28.1589 25.4839 28.2716 24.7263C28.4167 23.751 28.2262 23.098 27.9379 22.6833C27.6488 22.2674 27.1954 21.9953 26.6295 21.9001Z" fill="#45BBE1"/>
</svg>
