<svg width="48" height="50" viewBox="0 0 48 50" fill="none" xmlns="http://www.w3.org/2000/svg">
<path d="M23.5 2.67969C16.1528 2.67969 9.65337 6.31014 5.69784 11.879C5.41301 12.28 4.85704 12.3742 4.45599 12.0894C4.05499 11.8045 3.96081 11.2486 4.24567 10.8475C8.52094 4.82854 15.5515 0.898438 23.5 0.898438C36.5348 0.898438 47.1016 11.4652 47.1016 24.5C47.1016 33.8903 41.6175 41.9981 33.6815 45.7984C33.2379 46.0108 32.706 45.8233 32.4936 45.3798C32.2812 44.9363 32.4686 44.4041 32.9122 44.1917C40.2531 40.6764 45.3203 33.179 45.3203 24.5C45.3203 12.449 35.5511 2.67969 23.5 2.67969Z" fill="#DAF8D2"/>
<path fill-rule="evenodd" clip-rule="evenodd" d="M6.43692 38.9348C2.40275 33.6183 0.695107 28.4055 0.177253 24.3128C-0.0834325 22.2522 -0.0436661 20.4668 0.157838 19.0877C0.258478 18.3991 0.401468 17.7978 0.575185 17.3072C0.74044 16.8405 0.963364 16.3871 1.27294 16.0775C2.73459 14.6159 5.18573 14.0557 7.20241 13.8924C8.24133 13.8084 10.0114 13.8125 11.1146 14.0727C11.3946 14.1387 11.7262 14.2395 11.9812 14.4146C12.6504 14.8742 13.1169 15.6928 13.4483 16.52C13.7935 17.3815 14.0512 18.4051 14.2208 19.4441C14.5532 21.4818 14.5799 23.7971 14.1031 25.2272C13.909 25.8093 13.4204 26.3057 12.9861 26.6748C12.5187 27.0721 11.2543 27.8401 10.0928 28.5247C10.809 30.2893 11.8027 32.245 13.0486 33.7232C14.2323 35.1335 16.1527 36.969 17.6615 37.7823C18.5624 36.6634 19.5363 35.6656 20.0129 35.2794C20.4557 34.9206 21.0336 34.5318 21.6415 34.4483C23.135 34.2433 25.4057 34.696 27.3473 35.3983C28.3373 35.7564 29.2958 36.1983 30.079 36.6963C30.831 37.1745 31.5495 37.7838 31.878 38.5263C32.0031 38.8092 32.0411 39.1537 32.0543 39.4411C32.0689 39.7586 32.0571 40.1298 32.0221 40.5312C31.9521 41.335 31.7847 42.3138 31.5106 43.3193C30.9785 45.2716 29.9763 47.5774 28.2703 48.7445C27.909 48.9921 27.4223 49.1275 26.9331 49.2041C26.419 49.2843 25.8016 49.3141 25.1062 49.286C23.7137 49.2299 21.9514 48.94 19.9742 48.3041C16.0139 47.0305 11.2543 44.5395 6.43692 38.9348ZM2.53247 17.3371C3.52004 16.3495 5.4107 15.8246 7.34616 15.6679C7.43117 15.661 7.5238 15.6529 7.62252 15.6443C8.61209 15.558 10.2172 15.418 10.9798 15.8878C11.2006 16.0436 11.5008 16.4486 11.7948 17.1824C12.0782 17.8898 12.3076 18.7797 12.4628 19.7309C12.7797 21.6733 12.753 23.6448 12.4133 24.6639C12.3846 24.7498 12.2332 24.977 11.8325 25.3176C11.4649 25.6301 9.69567 26.7641 8.64848 27.2569C8.26969 27.4352 8.06619 27.8532 8.15948 28.2612C9.02771 30.7346 10.2439 33.1175 11.5427 34.6982C12.8991 36.358 15.2621 38.305 17.5642 39.7311C17.9481 39.898 18.3972 39.7739 18.6422 39.4344C19.4925 38.2563 20.4823 37.1917 21.1342 36.6634C21.5429 36.3323 21.7941 36.2253 21.8837 36.213C22.948 36.0669 24.8907 36.4039 26.7414 37.0733C27.6477 37.4011 28.4802 37.7905 29.1232 38.1994C29.7903 38.6236 30.2062 38.9717 30.2455 39.2391C30.4416 40.5731 30.1323 41.6556 29.8869 42.5142C29.8536 42.6309 29.8215 42.7426 29.792 42.8508C29.2814 44.7243 28.4171 46.4859 27.2645 47.2746C27.2306 47.2977 27.0568 47.3819 26.6581 47.4442C26.2845 47.5026 25.7868 47.5306 25.1779 47.5061C23.962 47.4571 22.3592 47.2002 20.5196 46.6084C16.8856 45.4394 12.5902 43.2035 7.95352 37.9861C4.04564 32.8841 2.4288 27.9174 1.94443 24.0892C1.70187 22.1721 1.74444 20.5493 1.92038 19.3452C2.00851 18.7422 2.12803 18.2583 2.25424 17.9018C2.38894 17.5215 2.50348 17.3661 2.53247 17.3371Z" fill="#DAF8D2"/>
<path fill-rule="evenodd" clip-rule="evenodd" d="M30.8863 16.4392C31.0511 16.1894 31.3304 16.0391 31.6297 16.0391H33.007C33.4989 16.0391 33.8976 16.4378 33.8976 16.9297V23.5351H34.1876C34.6795 23.5351 35.0782 23.9338 35.0782 24.4257C35.0782 24.9176 34.6795 25.3163 34.1876 25.3163H33.8976V28.0625C33.8976 28.5544 33.4989 28.9531 33.007 28.9531C32.5151 28.9531 32.1164 28.5544 32.1164 28.0625V25.3163H27.3008C26.8089 25.3163 26.4102 24.9176 26.4102 24.4257V23.4902C26.4102 23.3158 26.4614 23.1452 26.5574 22.9997L30.8863 16.4392ZM32.1164 23.5351V17.8203H32.109L28.3382 23.5351H32.1164Z" fill="#DAF8D2"/>
<path d="M21.6295 17.9001C20.4745 17.706 18.9325 18.2813 18.0278 19.777C17.7732 20.1979 17.2257 20.3327 16.8048 20.0781C16.3839 19.8235 16.2491 19.276 16.5037 18.8551C17.7634 16.7725 20.0066 15.8211 21.9248 16.1435C22.8954 16.3066 23.8006 16.8037 24.4005 17.6666C25.0012 18.5307 25.2301 19.6663 25.0335 20.9884C24.836 22.3157 24.008 23.5071 22.8083 24.7038C22.0398 25.4704 21.0738 26.2822 19.928 27.1728H25.3331C25.825 27.1728 26.2238 27.5715 26.2238 28.0634C26.2238 28.5553 25.825 28.954 25.3331 28.954H17.2657C16.881 28.954 16.5398 28.7069 16.4196 28.3414C16.2995 27.9759 16.4277 27.5746 16.7375 27.3464C18.8551 25.786 20.449 24.5413 21.5503 23.4427C22.6588 22.337 23.1589 21.4839 23.2716 20.7263C23.4167 19.751 23.2262 19.098 22.9379 18.6833C22.6488 18.2674 22.1954 17.9953 21.6295 17.9001Z" fill="#DAF8D2"/>
</svg>
