<svg xmlns="http://www.w3.org/2000/svg" width="16" height="16" fill="none" viewBox="0 0 16 16"><g fill="#fff" clip-path="url(#a)"><path d="M5.117 7.237c.05.186.208.322.398.344l2.595.31.31 2.595a.469.469 0 0 0 .84.225l1.566-2.092 2.402 1.03a.469.469 0 0 0 .616-.617l-1.03-2.402 2.093-1.565a.47.47 0 0 0-.226-.84l-2.595-.31-.31-2.596a.468.468 0 0 0-.84-.225L9.37 3.187l-2.402-1.03a.469.469 0 0 0-.615.616l1.03 2.402L5.288 6.74a.47.47 0 0 0-.172.497"/><path d="m13.746 2.92.662-.664a.468.468 0 1 0-.662-.663l-.663.663a.468.468 0 1 0 .663.663M9.005 1.827a.47.47 0 0 0 .331-.574L9.094.348a.469.469 0 0 0-.906.242l.243.906a.47.47 0 0 0 .574.331m2.186 8.15a.47.47 0 0 0-.331.574l.243.906a.47.47 0 0 0 .905-.243l-.242-.905a.47.47 0 0 0-.575-.332m-5.5-5.741-.905-.242a.469.469 0 1 0-.243.905l.905.243a.469.469 0 1 0 .243-.906m8.481 2.758a.47.47 0 0 0 .332.574l.905.243a.469.469 0 1 0 .243-.906l-.905-.242a.47.47 0 0 0-.575.331M.8 15.862c.183.184.48.184.663 0L7.407 9.92l-.141-1.185-1.185-.141-5.944 5.944a.47.47 0 0 0 0 .663z"/></g><defs><clipPath id="a"><path fill="#fff" d="M0 0h16v16H0z"/></clipPath></defs></svg>