<svg width="20" height="20" viewBox="0 0 20 20" fill="none" xmlns="http://www.w3.org/2000/svg">
<path d="M4.19995 8.5C2.49995 8.5 1.3001 8.3 0.600098 7.5C9.76324e-05 6.8 0 5.6998 0 4.2998H0.800049H0C0 1.3998 0.200049 0 4.30005 0C8.40005 0 8.6001 1.3998 8.6001 4.2998C8.6001 5.6998 8.6 6.8 8 7.5C7.2 8.3 5.89995 8.5 4.19995 8.5ZM4.19995 1.5C1.39995 1.5 1.3999 1.6998 1.3999 4.2998C1.2999 5.0998 1.39995 5.8 1.69995 6.5C1.99995 6.8 2.79995 7 4.19995 7C5.59995 7 6.39995 6.8 6.69995 6.5C6.99995 5.8 7.1 4.9998 7 4.2998C7 1.6998 6.99995 1.5 4.19995 1.5Z" fill="#333333"/>
<path d="M15.2 8.5C13.5 8.5 12.3001 8.3 11.6001 7.5C11.0001 6.8 11 5.6998 11 4.2998H11.8H11C11 1.3998 11.2 0 15.3 0C19.4 0 19.6001 1.3998 19.6001 4.2998C19.6001 5.6998 19.6 6.8 19 7.5C18.2 8.3 16.9 8.5 15.2 8.5ZM15.2 1.5C12.4 1.5 12.3999 1.6998 12.3999 4.2998C12.2999 5.0998 12.4 5.8 12.7 6.5C13 6.8 13.8 7 15.2 7C16.6 7 17.4 6.8 17.7 6.5C18 5.8 18.1 4.9998 18 4.2998C18 1.6998 18 1.5 15.2 1.5Z" fill="#333333"/>
<path d="M4.19995 19.5C2.49995 19.5 1.3001 19.3 0.600098 18.5C9.76324e-05 17.8 0 16.6998 0 15.2998H0.800049H0C0 12.3998 0.200049 11 4.30005 11C8.40005 11 8.6001 12.3998 8.6001 15.2998C8.6001 16.6998 8.6 17.8 8 18.5C7.2 19.3 5.89995 19.5 4.19995 19.5ZM4.19995 12.5C1.39995 12.5 1.3999 12.6998 1.3999 15.2998C1.2999 16.0998 1.39995 16.8 1.69995 17.5C1.99995 17.8 2.79995 18 4.19995 18C5.59995 18 6.39995 17.8 6.69995 17.5C6.99995 16.8 7.1 15.9998 7 15.2998C7 12.6998 6.99995 12.5 4.19995 12.5Z" fill="#333333"/>
<path d="M15.2 19.5C13.5 19.5 12.3001 19.3 11.6001 18.5C11.0001 17.8 11 16.6998 11 15.2998H11.8H11C11 12.3998 11.2 11 15.3 11C19.4 11 19.6001 12.3998 19.6001 15.2998C19.6001 16.6998 19.6 17.8 19 18.5C18.2 19.3 16.9 19.5 15.2 19.5ZM15.2 12.5C12.4 12.5 12.3999 12.6998 12.3999 15.2998C12.2999 16.0998 12.4 16.8 12.7 17.5C13 17.8 13.8 18 15.2 18C16.6 18 17.4 17.8 17.7 17.5C18 16.8 18.1 15.9998 18 15.2998C18 12.6998 18 12.5 15.2 12.5Z" fill="#333333"/>
</svg>
